<svg xmlns="http://www.w3.org/2000/svg" viewBox="0 0 348 234">
<g>
	<g>
		<path class="st0" d="M185.9,234.2c-0.1-1.1-0.2-2.2-0.2-3.2c-0.6-8.2-1-12.7,8-19.4c0.5-0.3,0.9-0.7,1.3-1c4-2.9,5.3-3.9,5.4-7.5
			c0.1-3.6-2.1-7.5-6.5-7.7l-1.4-0.1l0-1.4c0-1.8-0.4-4.1-0.8-6.7c-1.1-6.1-2.4-13.8,1.2-19.8c1.1-1.8,3.5-3.2,5.6-4.5
			c1.2-0.7,2.6-1.5,2.9-2c0.9-1.5,1.8-9.7,0.5-11c-2.2,0.3-4.3,0.7-6.3,1c-4.6,0.8-9,1.5-13.2,1.7c-4.7,0.2-22.2,0.1-31.8-0.4
			c-5.8-0.3-10.3-1.1-13.6-1.7c-2.1-0.4-3.9-0.7-5.1-0.7c-0.8,0.7-1.6,4.7-0.2,8.9c1.1,3.1,3.6,5.5,7.6,8.5l0.1,0.1
			c6.2,5.9,5.5,13.5,4.8,21.6c-0.1,1.4-0.3,2.9-0.4,4.4l-0.1,1.3l-1.3,0.1c-3.6,0.2-6.5,2.3-7.5,5.2c-1.5,4.4,2.5,8.1,5.9,11.4
			c0.6,0.6,1.2,1.2,1.8,1.7c6.6,6.7,6.8,8.7,6.5,15.3c-0.1,1.6-0.2,3.4-0.2,5.6h-3c0-2.3,0.1-4.3,0.2-5.8c0.3-5.9,0.3-7-5.6-13.1
			c-0.5-0.5-1.1-1.1-1.7-1.7c-3.7-3.5-8.8-8.4-6.7-14.5c1.2-3.7,4.6-6.4,8.8-7.1c0.1-1.1,0.2-2.2,0.3-3.2c0.7-7.9,1.3-14.2-3.8-19.1
			c-4.4-3.3-7.2-6-8.6-9.8c-1.4-4.1-1.2-9.1,0.5-11.5c0.9-1.2,1.9-1.4,2.4-1.4c1.5,0,3.3,0.3,5.7,0.7c3.2,0.6,7.6,1.3,13.2,1.6
			c9.4,0.5,27,0.6,31.5,0.4c4-0.2,8.3-0.9,12.9-1.7c2.1-0.4,4.3-0.7,6.6-1.1l0.2,0c0.7,0,1.9,0.2,2.7,1.8c1.7,3.3,0.5,12-0.8,13.9
			c-0.7,1-2.2,1.9-3.9,2.9c-1.7,1-3.9,2.3-4.6,3.5c-3.1,5-1.9,11.8-0.8,17.7c0.4,2.1,0.7,4.1,0.8,5.9c5.3,1,8.1,6,8,10.6
			c-0.1,5.1-2.6,6.9-6.7,9.9c-0.4,0.3-0.9,0.6-1.3,1c-7.7,5.6-7.4,8.9-6.8,16.7c0.1,1,0.2,2.1,0.2,3.2L185.9,234.2z"/>
	</g>
	<g>
		<path class="st0" d="M133.2,149.5c-3.9-4.3-7.5-15.8-9.9-23.5c-0.6-1.8-1-3.3-1.5-4.5c-3.4-9.9-6-19.9-8.4-31.5
			c-1.4-7-2.1-14.6-1.8-21.9l0-0.7l0.6-0.4c2-1.5,3.3-3.5,5-6c1.1-1.7,2.4-3.7,4.2-5.8c2.7-3.3,6.7-7.7,10.8-10.4
			c1-0.7,1.1-1.7,1.1-3.6c0-1.6,0-3.4,1.1-4.9c2-2.7,6.8-3.3,8.3-3.4c1.7-1.1,2.5-4.3,3.2-7c0.3-1.2,0.6-2.3,0.9-3.2
			c1.3-3.4,2.7-5.6,5.3-7.8c0.7-0.6,1.4-1.2,1.9-1.8c1.9-1.8,3.4-3.2,6.4-4.3c4.3-1.5,10-1.5,14.1-0.1c3.4,1.2,8,4.4,10.1,8.2
			c1,1.7,1.5,4.2,2.1,6.8c0.7,2.9,1.4,6,2.6,7.7c0.6,0.8,1.1,0.9,2.3,1.1c1.2,0.2,2.9,0.4,4.7,1.8c2.6,2.1,3.1,4.1,3.6,6
			c0.3,1.2,0.6,2.4,1.4,3.8c1.3,2.5,3.6,4.3,5.9,6.3c2,1.7,4.1,3.4,5.6,5.6c0.9,1.3,1.7,2.9,2.5,4.5c1.5,3,3.2,6.5,5.3,6.9l1.2,0.2
			v3c0.4,1.1-0.6,1.7-1.1,2.1c-0.1,0.1-0.2,0.1-0.3,0.2c0.1,4.6-0.4,9.6-0.8,14.5c-0.1,1.3-0.3,2.6-0.4,3.8
			c-0.9,9.8-3.1,19.5-6.4,28.3c-0.5,1.2-1.1,2.9-1.8,5c-2.8,7.9-7,19.9-10.5,24.8l-2.4-1.7c3.2-4.6,7.5-16.8,10.1-24.1
			c0.7-2.1,1.3-3.8,1.8-5c3.2-8.5,5.3-18,6.2-27.5c0.1-1.3,0.2-2.5,0.4-3.8c0.5-4.8,1-9.7,0.8-14.2l-0.1-0.3c-0.2-1,0.6-1.6,1.5-2.2
			V70c-2.9-1.3-4.7-4.9-6.2-8.1c-0.8-1.6-1.5-3.1-2.3-4.1c-1.3-1.9-3.2-3.4-5.1-5c-2.5-2.1-5-4.2-6.6-7.2c-1-1.8-1.4-3.2-1.7-4.5
			c-0.5-1.8-0.8-3-2.6-4.5c-1.2-0.9-2.1-1.1-3.2-1.2c-1.3-0.2-3-0.4-4.4-2.3c-1.6-2.2-2.4-5.5-3.1-8.8c-0.5-2.4-1.1-4.6-1.8-6
			c-1.5-2.7-5.2-5.7-8.5-6.8c-3.4-1.2-8.4-1.1-12.1,0.1c-2.4,0.8-3.6,1.9-5.3,3.6c-0.6,0.6-1.3,1.2-2,1.9c-2.2,1.9-3.3,3.6-4.4,6.6
			c-0.3,0.8-0.6,1.8-0.8,2.9c-0.9,3.5-1.9,7.6-5,9l-0.3,0.1l-0.3,0c-1.9,0.1-5.3,0.8-6.3,2.2c-0.5,0.7-0.5,1.9-0.5,3.1
			c0,2,0,4.5-2.5,6.1c-2.9,1.9-6.5,5.4-10.1,9.7c-1.6,2-2.9,3.9-4,5.6c-1.6,2.5-3.1,4.6-5.2,6.4c-0.2,6.8,0.4,13.9,1.7,20.5
			c2.4,11.6,5,21.2,8.3,31.1c0.4,1.2,0.9,2.8,1.5,4.6c2.2,6.9,5.8,18.6,9.3,22.3L133.2,149.5z"/>
	</g>
	<g>
		<path class="st0" d="M170.1,198.3c-0.7,0-1.4,0-2.1,0c-8.4-0.3-22.9-2.1-26.1-3.6l1.3-2.7c2.3,1.1,15.8,3.1,24.9,3.3
			c8.7,0.2,19.8-1.2,25.5-2.8l0.8,2.9C188.9,196.9,178.7,198.3,170.1,198.3z"/>
	</g>
	<g>
		<path class="st0" d="M165.3,169.9c-12.9,0-28.1-1.4-28.2-1.4l0.3-3c0.2,0,16.6,1.5,29.6,1.4c13.3-0.1,19.6-0.4,28.7-2.3l0.6,2.9
			c-9.3,2-15.8,2.2-29.3,2.4C166.4,169.9,165.8,169.9,165.3,169.9z"/>
	</g>
	<g>
		<path class="st0" d="M220.4,71.4c-9.9-2.3-27.9-3.5-52.3-3.5c-13.9,0-45.2,0.7-54.7,2.4l-0.5-3c9.8-1.7,40.8-2.5,55.3-2.5
			c24.9,0,42.7,1.2,52.9,3.5L220.4,71.4z"/>
	</g>
	<g>
		<path class="st0" d="M197.9,40.6c-21.8-2.9-46.2-2-62.7-0.7l-0.2-3c16.7-1.3,41.2-2.3,63.3,0.7L197.9,40.6z"/>
	</g>
</g>
</svg>
