<svg xmlns="http://www.w3.org/2000/svg" viewBox="0 0 348 234">
<g>
	<g>
		<path class="st0" d="M121.7,196c-26.6,0-47.9-9.5-63.4-28.2c-0.5-0.6-0.9-1.1-1.2-1.4c-10.7-11.1-13.3-40.1-13.5-41.3l0-0.4
			l0.2-0.4c0.1-0.2,9.7-19.7,35.7-19.7c18.9,0,93.4,7.8,120.4,24.9l0.7,0.5l0,0.8c0,0.3-0.2,8-4.5,17.8
			c-6.1,13.7-25.2,45.7-69.9,47.4C124.6,195.9,123.1,196,121.7,196z M46.6,125.1c0.4,3.5,3.3,29.4,12.6,39.1
			c0.3,0.4,0.8,0.9,1.4,1.6c2.8,3.4,8.7,10.5,19.1,16.6c13,7.6,28.5,11.1,46.2,10.5c43.1-1.6,61.4-32.4,67.3-45.6
			c3.3-7.4,4.1-13.6,4.2-15.8c-25.9-15.7-97.6-24-118-24C59.7,107.5,49.1,120.2,46.6,125.1z"/>
	</g>
	<g>
		<path class="st0" d="M193.5,152.1c-0.6,0-1-0.1-1.4-0.6l-0.2-1.5c0.3-0.7,0.5-1.1,8.7-3.1c2.4-0.6,8.4-1.9,12.2-2.3
			c5.9-0.5,30.3-0.9,35.2,0c4.4,0.8,31.7,3.1,34.8,3.4c5.8-1.7,20.7-6.4,23.7-8.4c1.5-1,1.3-1.4,0.4-3.3c-0.5-1-1-2.1-1-3.3
			c0-2.4-1.3-10.6-2.1-15.4c-0.8-4.2-6.2-13.9-8.1-16.8c-0.5-0.9-0.9-2-1.3-3c-0.5-1.4-1.1-3.1-1.8-3.3c-0.6-0.2-3.2,0.5-4.7,1
			c-2.4,0.7-4.9,1.5-6.7,1.2c-0.6-0.1-2.1-0.3-2.3-1.9c-0.4-0.3-1.9-1-7.7-1.9c-4-0.6-8.8-1.7-15-3.3c-4.6-1.2-9.5-2.5-14.7-4
			c-6.6-1.8-13.4-3.7-20.5-5.5c-6.6-1.6-16-5-26.8-8.9c-21.1-7.6-47.4-17-68.2-19.3c-36.1-4-63.5,11.5-66.5,13.3
			c-9.2,5.4-30.6,20.3-30.6,41.3c0,19.6,9.2,22.6,15.8,24.8l1,0.3l-0.9,2.8l-0.9-0.3c-6.7-2.2-17.9-5.8-17.9-27.6
			c0-22.5,22.4-38.2,32-43.9c3.1-1.8,31.3-17.7,68.3-13.7c21.1,2.3,47.6,11.8,68.8,19.5c10.8,3.9,20.1,7.2,26.6,8.8
			c7.1,1.8,13.9,3.7,20.5,5.5c5.2,1.4,10,2.8,14.6,4c6.1,1.6,10.8,2.6,14.7,3.2c7.6,1.2,9.6,2.2,10.1,3.8c1.2,0.1,3.4-0.5,5.3-1.1
			c2.7-0.8,5-1.5,6.6-0.9c2.1,0.8,2.9,3.1,3.6,5.2c0.3,0.9,0.7,1.8,1,2.4c0.1,0.1,7.4,12.1,8.5,17.8c0.8,4.7,2.2,13.1,2.2,15.9
			c0,0.5,0.4,1.2,0.7,1.9c0.9,1.7,2.3,4.7-1.4,7.1c-4,2.7-22.6,8.2-24.8,8.9l-0.3,0.1l-0.3,0c-1.2-0.1-30.6-2.6-35.4-3.5
			c-4.7-0.8-28.9-0.5-34.4,0c-5,0.5-15.4,3-18.3,4l0.1,0.4C194.3,152.1,193.9,152.1,193.5,152.1z M194.5,149.7l0.2,1.3
			c0.1-0.2,0.1-0.5,0-0.8C194.7,150.1,194.6,149.9,194.5,149.7z"/>
	</g>
	<g>
		<path class="st0" d="M255.2,88.3l-2.7-1.4c1.3-2.5,1.9-5.3,1.5-5.8c-1.7-1.1-16.7-2.2-23.3-2.2c-1.5,0-2,0.3-2.2,0.5
			c0,0.1,0,0.2,0,0.3l-2.8,1.2c-0.1-0.2-0.7-1.7,0.2-3.1c0.8-1.2,2.4-1.8,4.7-1.8c0.2,0,22.7,0.4,25.4,3
			C258.5,81.3,256,86.7,255.2,88.3z"/>
	</g>
	<g>
		<path class="st0" d="M307.1,137.3c-6.7,0-50.7-11.9-103.1-26.2c-11.3-3.1-21.9-6-30.1-8.2c-31.3-8.4-66.1-11.1-103.4-8.2
			c-27.1,2.2-36.3,10.6-41.8,15.7l-0.4,0.3l-2-2.2l0.4-0.3c5.8-5.3,15.4-14.2,43.6-16.5c37.7-3,72.8-0.2,104.4,8.3
			c8.3,2.2,18.9,5.1,30.2,8.2c38.1,10.4,95.5,26.1,102.2,26.1c0.1,0,0.1,0,0.2,0l0.2,3C307.3,137.3,307.2,137.3,307.1,137.3z"/>
	</g>
	<g>
		<path class="st0" d="M31.7,123.4l-2.5-1.7c0.2-0.3,0.4-0.7,0.6-1.1c3.1-5.3,11.4-19.2,49.7-16.2l-0.2,3
			c-36.5-2.9-44.1,9.9-46.9,14.7C32.2,122.7,31.9,123.1,31.7,123.4z"/>
	</g>
	<g>
		
			<rect x="301.5" y="111.1" transform="matrix(0.9887 0.1497 -0.1497 0.9887 20.5221 -47.3787)" class="st0" width="46.7" height="3"/>
	</g>
	<g>
		<rect x="306.2" y="127" transform="matrix(0.989 0.1478 -0.1478 0.989 22.5844 -46.9332)" class="st0" width="42" height="3"/>
	</g>
</g>
</svg>
