<svg xmlns="http://www.w3.org/2000/svg" viewBox="0 0 348 234">
<g>
	<path class="st0" d="M127.8,227.3c-1.7,0-3.1-0.4-4.4-1.3l-11.3-0.5c-4.5-0.4-7.9-1.9-9.9-4.6c-2.6-3.5-2.2-7.6-2-8.5v-23.4
		l2.5-99.3l12.6-9.5l10.7,9.6l-3.9,117.6c-0.5,3.1-1,11.8,2.1,15.3c1,1.1,2.3,1.6,3.9,1.5c10.2-0.5,79-13.1,81.1-13.5
		c0.3-0.1,4.3-2.2,5.2-19.1c1-19.5,1.5-44.8,1.5-45l3,0.1c0,0.3-0.5,25.6-1.5,45.1c-1,20-6.6,21.8-7.7,21.9
		c-2.8,0.5-71,13-81.5,13.5C128.1,227.3,128,227.3,127.8,227.3z M105.7,91.3l-2.5,97.8l0,23.6l0,0.1c0,0-0.6,3.6,1.5,6.3
		c1.5,2,4.1,3.1,7.7,3.4l8.4,0.4c-3-5.6-1.7-14.7-1.6-15.8l3.8-116l-7.8-7L105.7,91.3z"/>
</g>
<g>
	<path class="st0" d="M216.9,139.3H147l42.1-85.7L254.2,68L216.9,139.3z M151.9,136.3H215L249.7,70l-59-13L151.9,136.3z"/>
</g>
<g>
	<polygon class="st0" points="130,197.6 123.8,197.6 120.1,193.9 122.2,191.7 125.1,194.6 128.6,194.6 135.2,186.9 170.4,183.5 
		172.9,188.8 175.7,188.8 180.9,182.2 193.9,180.7 203.9,167.5 217.4,143.8 256.7,67.7 256.7,62.6 191.9,48.2 186.6,50.9 
		139.3,148.7 127.5,179 122.4,183.2 120.5,180.9 124.9,177.2 136.6,147.4 184.3,48.7 191.5,45 259.7,60.2 259.7,68.4 220,145.3 
		206.4,169.2 195.5,183.5 182.5,185 177.2,191.8 171,191.8 168.6,186.7 136.7,189.8 	"/>
</g>
<g>
	
		<rect x="163.6" y="135.1" transform="matrix(7.781687e-02 0.997 -0.997 7.781687e-02 325.3323 -4.5628)" class="st0" width="3" height="76.9"/>
</g>
<g>
	<path class="st0" d="M123.6,157.2l-2.7-1.4l22.9-44.5l31.8-59.8c1.2-2.2,5.2-9.3,7.6-10.6c2.5-1.4,7.3-2.3,10.8-1.4
		c3,0.7,48.3,11.6,48.7,11.7l16.9,5v5h-3v-2.8L242,54.3c-0.4-0.1-45.7-11-48.7-11.7c-2.6-0.7-6.7,0-8.7,1.1
		c-1.2,0.6-4.2,5.4-6.4,9.4l-31.7,59.7L123.6,157.2z"/>
</g>
<g>
	<path class="st0" d="M121.8,223l-0.3-3l9.1-0.9c0,0,50.3-8.2,59.3-9.7c7.7-1.3,8.2-13.2,8.2-13.3l1-21.9l3,0.1l-1,21.9
		c0,0.6-0.6,14.5-10.7,16.2c-9,1.5-59.4,9.8-59.4,9.8L121.8,223z"/>
</g>
<g>
	<polygon class="st0" points="100.6,183.4 63.6,149.7 85.7,106.8 103.4,120.1 101.6,122.5 86.7,111.3 67.3,149 102.6,181.2 	"/>
</g>
<g>
	<path class="st0" d="M93.3,112.9l-2.1-2.1l3.4-3.4l2,0.8c-0.6-3.7-1.5-10.3-1.1-13c0.6-4,5.3-24.1,13.4-40.5
		c9.3-18.8,17-30.1,23.5-34.6c7.7-5.2,13.4-1.9,13.6-1.8l40.7,21.1l-1.4,2.7l-40.7-21.2c-0.2-0.1-4.4-2.4-10.5,1.7
		c-6,4.1-13.6,15.3-22.5,33.4C103.8,71.8,99,91.8,98.4,95.5c-0.4,2.7,0.9,11.5,1.5,14.7l0.5,2.6l-5.1-2L93.3,112.9z"/>
</g>
<g>
	<path class="st0" d="M226.6,35.9L195.9,26l9.2-21.8l29.5,9.9L226.6,35.9z M200,24.1l24.8,8.1l6-16.2l-24-8.1L200,24.1z"/>
</g>
<g>
	<polygon class="st0" points="257.6,58.9 225.3,43.5 221.3,39.1 221.3,33.1 224.3,33.1 224.3,38 227.1,41.1 258.8,56.1 	"/>
</g>
<g>
	<path class="st0" d="M195.1,32.5c-1.2,0-2.6-0.1-3.8-0.5c-3.2-1-49.4-11.8-49.9-11.9l0.7-2.9c1.9,0.4,46.8,11,50.1,12
		c2,0.6,4.6,0.4,6,0.1l1.2-2.6l2.7,1.3l-1.8,3.9l-0.7,0.2C199.4,32.1,197.5,32.5,195.1,32.5z"/>
</g>
<g>
	<path class="st0" d="M215.1,102.8c-3.7,0-7.1-0.9-7.8-1.1l-3.8-1L207,99c0,0,5-2.6,5.7-7.9c0.6-5.4-4.1-9.6-4.1-9.7l-2.9-2.6
		l3.9-0.1c1.1,0,11.3-0.1,14.5,4.6c4.2,6,4.1,11-0.1,16.1C221.9,102.1,218.4,102.8,215.1,102.8z M211.4,99.5
		c3.6,0.5,8.4,0.6,10.3-1.8c3.3-4.1,3.3-7.6-0.1-12.5c-1.4-2-5.4-2.9-8.6-3.2c1.5,2.2,3.2,5.6,2.7,9.5
		C215.2,95.2,213.2,97.9,211.4,99.5z"/>
</g>
<g>
	<path class="st0" d="M186.8,105.5c-8.2,0-15.7-4.4-18.3-8.1l2.4-1.7c2,2.8,9.8,7.8,18.5,6.6c8.9-1.2,17.8-3.4,17.9-3.5l0.7,2.9
		c-0.1,0-9.2,2.3-18.2,3.5C188.8,105.4,187.8,105.5,186.8,105.5z"/>
</g>
<g>
	<path class="st0" d="M209,81.7c0,0-1.1-0.4-7.3-2.5c-10.4-3.4-17.9-4.5-20.7-3l-1.4-2.6c3.6-2,11.4-1,23.1,2.8
		c6.4,2.1,7.4,2.5,7.5,2.5L209,81.7z"/>
</g>
<g>
	<polygon class="st0" points="213.1,133.4 153.4,131.2 153.5,128.2 211.3,130.3 244.3,66.9 247,68.3 	"/>
</g>
<g>
	<path class="st0" d="M114.3,101.2c-3.2,0-5.7-2.6-5.7-5.7s2.6-5.8,5.7-5.8s5.8,2.6,5.8,5.8S117.5,101.2,114.3,101.2z M114.3,92.7
		c-1.5,0-2.7,1.2-2.7,2.8c0,1.5,1.2,2.7,2.7,2.7c1.5,0,2.8-1.2,2.8-2.7C117.1,93.9,115.8,92.7,114.3,92.7z"/>
</g>
</svg>
