<svg xmlns="http://www.w3.org/2000/svg" class="open-bottom" viewBox="0 0 348 234">
<g>
	<g>
		<path class="st0" d="M159.9,226c-29.1,0-45.6-5.4-50.3-7.2c-1.2-0.5-2.4-0.9-11.2-39.6c-4-17.4-7.7-35-8.3-37.5
			c-0.7-1.1-2.9-4.7-0.6-7.9c1.7-2.4,4.3-2.7,5.9-2.7c1.5-4.7,4-7.8,11.7-17.6c7.4-9.4,16-14.2,18.4-15.4l2.3-7.6l0.8-61
			c0-0.7-0.2-4.1,2.1-6.6c1.5-1.6,3.7-2.4,6.5-2.4c5.5,0,7.5-1,8.3-1.8c0.7-0.8,0.7-1.8,0.6-3.3c0-0.4,0-0.8,0-1.2
			c0-5.2,6.5-6.1,19.4-6.1c14,0,16.3,0.6,17.2,4.6c0.1,0.5,0.2,1,0.2,1.6c0.3,2.6,0.6,5.1,5.6,5.5c5,0.3,8.4,1.7,10.3,4.1
			c1.4,1.9,1.4,3.7,1.3,4.4l6,62l3.3,6.4c2.3,1.3,13.3,7.8,18.4,12.8c4.8,4.8,11.4,14.7,13.2,17.4c0.1,0,0.1,0,0.2,0
			c3.2-0.1,6.7-0.1,7.9,5.8l0,0.2l0,0.2c-0.2,2.2-1.8,4.2-2.5,5l-13.6,75.6l-0.5,0.4c-9.4,7.3-21.9,9.7-60.7,11.5
			C167.6,225.9,163.7,226,159.9,226z M111.1,216.1c5.7,2.1,25.4,8.2,60.5,6.6c37-1.7,49.9-4,58.6-10.6l13.6-75.4l0.3-0.3
			c0.5-0.5,1.7-2,1.9-3.3c-0.7-3.2-1.8-3.2-4.9-3.2c-0.3,0-0.7,0-1,0h-0.8l-0.4-0.7c-0.1-0.1-8-12.3-13.2-17.6
			c-5.2-5.2-18-12.5-18.1-12.6l-0.4-0.2l-3.9-7.7l-6.1-63l0-0.2c0,0,0.2-1.1-0.8-2.3c-0.9-1.1-3-2.6-8.1-2.9c-7.4-0.6-8-5.5-8.4-8.1
			c-0.1-0.5-0.1-0.9-0.2-1.3c-0.3-1.4-0.5-2.2-14.3-2.2c-14.5,0-16.4,1.6-16.4,3.1c0,0.3,0,0.7,0,1c0.1,1.6,0.2,3.8-1.4,5.5
			c-1.8,1.9-5.1,2.7-10.5,2.7c-1.9-0.1-3.3,0.4-4.2,1.4c-1.5,1.7-1.3,4.3-1.3,4.4l0,0.1l0,0.1l-0.8,61.5l-2.9,9.3l-0.6,0.3
			c-0.1,0-9.8,4.6-17.9,14.8c-8.4,10.6-10.2,13-11.5,17.7l-0.4,1.4l-1.4-0.3c-0.1,0-2.9-0.5-4.3,1.4c-1.3,1.8,0.7,4.6,0.8,4.6
			l0.2,0.3l0.1,0.3C98.8,167.9,108.7,211.8,111.1,216.1z"/>
	</g>
	<g>
		<path class="st0" d="M154.3,148.1c-21.3,0-36.3-1.4-45.7-2.8c-12.7-1.8-18.1-3.9-18.3-4l1.1-2.8c0.2,0.1,22,8.1,79.1,6.3
			c56.1-1.8,74-8.6,74.2-8.7l1.1,2.8c-0.7,0.3-18.4,7.1-75.2,8.9C164.7,148,159.3,148.1,154.3,148.1z"/>
	</g>
	<g>
		<path class="st0" d="M147.9,140.7c-39.5,0-51.5-6.4-52-6.7l1.5-2.6c5.3,2.9,27,7.9,70.6,5.8c56.5-2.6,61.5-4.2,71.5-10l1.5,2.6
			c-10.5,6.1-15.6,7.8-72.9,10.4C160.6,140.5,153.9,140.7,147.9,140.7z"/>
	</g>
	<g>
		<path class="st0" d="M161.5,102.7c-19.3,0-33.7-4.4-34.4-4.6l0.9-2.9c0.2,0.1,17.9,5.5,39.8,4.3c19.7-1.1,28.4-3.8,35.5-5.9
			c0.9-0.3,1.8-0.6,2.7-0.8l0.8,2.9c-0.9,0.3-1.7,0.5-2.6,0.8c-6.8,2.1-16.1,5-36.2,6C165.8,102.7,163.6,102.7,161.5,102.7z"/>
	</g>
	<g>
		
			<rect x="274.7" y="8.2" transform="matrix(9.570000e-02 0.9954 -0.9954 9.570000e-02 329.7161 -202.2443)" class="st0" width="3" height="144.3"/>
	</g>
	<g>
		<path class="st0" d="M201.9,63.1l-0.1-3c2,0,144.6-3.3,146.1-3.4l0.1,3C346.6,59.8,203.9,63.1,201.9,63.1z"/>
	</g>
</g>
</svg>
