<svg xmlns="http://www.w3.org/2000/svg" viewBox="0 0 348 234" class="shoebox">
<g>
	<polygon class="st0" points="61.5,234.1 58.5,234.1 58.5,48.6 44.1,49.5 44.1,234.1 41.1,234.1 41.1,46.7 61.5,45.4 	"/>
</g>
<g>
	<polygon class="st0" points="75.2,55 72.2,55 72.2,50.1 59.8,48.5 60.2,45.5 75.2,47.5 	"/>
</g>
<g>
	<path class="st0" d="M308,101.4l-88-8.1l-126.5,6.9v-62l127.3-12.7L308,39.8V101.4z M220.1,90.3l0.1,0l84.8,7.8V42.3l-84.4-13.8
		L96.5,40.9v56.1L220.1,90.3z"/>
</g>
<g>
	<rect x="219.2" y="27.1" class="st0" width="3" height="64.8"/>
</g>
<g>
	<rect x="93.5" y="99.9" class="st0" width="3" height="7.4"/>
</g>
<line class="st1" x1="303.4" y1="98.7" x2="303.4" y2="104.9"/>
<g>
	<path class="st0" d="M309.2,116.8l-89.9-5.6l0,0.1l-125.8,5.5v-12.2l125.1-5.7v-7.1h3V99l87.6,6.1V116.8z M96.5,107.4v6.2
		l122.1-5.3v-6.4L96.5,107.4z M221.6,108.3l84.6,5.3v-5.7l-84.6-5.9V108.3z"/>
</g>
<g>
	
		<rect x="76" y="37.1" transform="matrix(8.592734e-02 0.9963 -0.9963 8.592734e-02 125.33 -27.1822)" class="st0" width="3" height="35.1"/>
</g>
<g>
	<polygon class="st0" points="60,104.4 60,101.4 93.5,101.3 93.5,98.6 96.5,98.6 96.5,104.3 	"/>
</g>
<g>
	<path class="st0" d="M193.9,139.3c-16.7,0-28.2-4.2-38.1-8.9c-8.8-4.1-15.2-11.6-17-13.7H95v-3h45.2l0.5,0.6
		c0.1,0.1,6.9,9,16.4,13.4c10.7,5,23.2,9.5,42.5,8.4c19.4-1.1,27.5-3.3,35.7-7.2c7.7-3.6,28-15.6,28.2-15.7l0.3-0.2l18.2-1l0.2,3
		l-17.5,0.9c-2.7,1.6-20.8,12.2-28.2,15.7c-8.5,4-16.9,6.3-36.8,7.4C197.7,139.2,195.7,139.3,193.9,139.3z"/>
</g>
<g>
	<path class="st0" d="M202.1,129.9c-6.7,0-9.1-3.6-10.1-5.1c-0.1-0.2-0.2-0.3-0.2-0.4c-0.3-0.4-0.6-0.9-0.9-1.5
		c-0.7-1.5-1.4-2.6-2.5-2.7c-3.5-0.5-9-5.9-9.8-8.1l2.8-1.1c0.5,1.4,5.2,5.9,7.4,6.2c2.8,0.4,4.1,2.9,4.8,4.4
		c0.2,0.4,0.4,0.8,0.5,0.9c0.1,0.2,0.3,0.4,0.5,0.7c1,1.5,3.1,4.8,10.8,3.5c3.4-0.6,5.7-1.8,6.9-3.7c1.4-2.3,0.8-4.8,0.6-5.5
		c-0.5-1.6-4-4.3-6.4-5.8l1.6-2.5c1.1,0.7,6.7,4.3,7.7,7.5c0.3,1,1.2,4.7-0.9,8c-1.7,2.7-4.7,4.4-9,5.1
		C204.4,129.8,203.2,129.9,202.1,129.9z"/>
</g>
<g>
	<rect x="72.2" y="102.9" class="st0" width="3" height="131.2"/>
</g>
</svg>
