<svg xmlns="http://www.w3.org/2000/svg" class="traditionaire-colonial" viewBox="0 0 348 234">
    <g>
        <g>
            <path class="st0" d="M162.7,203.7l-24.3-3.7L96.1,87.4l-12.9-1v-8.2l1.4-0.1c3.1-0.1,8.6-0.9,10.4-2.4c2.4-2.1,6.4-11.6,8-17.1
			l0.4-1.3c1.6-5.4,3.7-12.7,8.8-17.2c5.6-4.9,9.3-6.1,21.6-8.8c9.1-2,14.3-3.2,16.4-3.7L150,14.8l-3.8-2.8V6.4L168.8,0l22.7,5.4
			v5.8l-2.6,2.6v14.5c4,0.1,14.9,0.5,21.7,2c17.1,3.7,22.2,13,23.4,15.7c0.9,2.2,1.9,4.6,2.9,7.1c2.8,7,6,14.9,7.8,17.2
			c1.6,2.2,8.8,4.8,12.9,6l1.1,0.3v7.8H244L199.8,202L162.7,203.7z M140.5,197.3l22.3,3.4l34.8-1.6l44.3-117.7h13.8v-2.5
			c-3-0.9-11-3.6-13.3-6.7c-2-2.7-5.2-10.4-8.2-17.9c-1-2.5-2-4.9-2.9-7.1c-4-9.6-17.3-13.1-21.3-13.9c-8.1-1.7-22.5-1.9-22.6-1.9
			h-1.5V12.5l2.6-2.6V7.7l-19.6-4.6l-19.7,5.6v1.9l3.7,2.8l0.2,16.8l-1.2,0.3c0,0-5.1,1.2-17.6,4c-12.6,2.8-15.5,3.9-20.3,8.2
			c-4.4,3.9-6.4,10.8-7.9,15.8l-0.4,1.3c-1.5,4.9-5.7,15.7-9,18.5c-2.4,2.1-8,2.8-10.7,3v2.5l12,1L140.5,197.3z" />
        </g>
        <g>
            <polygon class="st0" points="84.9,86.5 84.5,83.5 144.1,75.2 144.2,75.2 255.7,81.3 255.7,79.1 144.2,72.9 84.9,81.2 84.5,78.2
			144.1,69.9 144.2,69.9 258.7,76.3 258.7,84.4 144.2,78.2 		" />
        </g>
        <g>
            <path class="st1" d="M190.4,29.8c0,0-11.5,0.5-17.8,0s-11.5-1.5-13.6-1.5c-2.2,0-2.6-0.5-9.7,1.1" />
            <path class="st0" d="M180.1,31.5c-2.7,0-5.4-0.1-7.6-0.2c-3.4-0.3-6.4-0.6-8.8-1c-2.1-0.3-3.8-0.5-4.7-0.5c-0.4,0-0.8,0-1.2,0
			c-1.3-0.1-2.6-0.1-8.2,1.1L149,28c6-1.4,7.5-1.3,9-1.2c0.3,0,0.6,0,1,0c1.1,0,2.9,0.2,5.1,0.5c2.4,0.3,5.4,0.7,8.7,0.9
			c6.2,0.5,17.5,0,17.6,0l0.1,3C190.2,31.3,185.2,31.5,180.1,31.5z" />
        </g>
        <g>
            <path class="st0" d="M144.6,72.8l-0.8-2.9c2.1-0.6,4-1.8,4-2.3c0.2-2.1,2.2-20.6,2.4-22.3c0-2,0.1-15.8,6.4-18.6l1.2,2.7
			c-3.5,1.5-4.7,10.5-4.6,15.9v0.1v0.1c0,0.2-2.2,20.2-2.4,22.3C150.5,70.9,146,72.4,144.6,72.8z" />
        </g>
        <g>
            <line class="st2" x1="162.9" y1="203.2" x2="149.3" y2="77" />

            <rect x="92.7" y="138.6" transform="matrix(-0.1075 -0.9942 0.9942 -0.1075 33.5836 310.3949)" class="st0" width="126.9" height="3" />
        </g>
        <g>
            <path class="st0" d="M204.7,171.3h-41.1l-9.2-89.7l82.6,4.6L204.7,171.3z M166.3,168.3h36.3L232.7,89l-75-4.1L166.3,168.3z" />
        </g>
        <g>
            <path class="st0" d="M155.1,171.3h-21.5l-30.6-84l42.5-5.8L155.1,171.3z M135.7,168.3h16.1l-8.9-83.4l-35.7,4.9L135.7,168.3z" />
        </g>
        <g>
            <path class="st0" d="M169.2,232.1c-8.5,0-15.8-1.5-16.1-1.5l-1.1-0.2l-2.9-29.7l3-0.3l2.7,27.4c2.3,0.4,8.1,1.3,14.4,1.3
			c6.2,0,11-1,13-1.5l2.8-26.7l3,0.3l-3.1,28.7l-1,0.3C183.8,230.3,177.8,232.1,169.2,232.1z" />
        </g>
        <g>
            <rect x="155.7" y="229.7" class="st0" width="3" height="4.3" />
        </g>
        <g>
            <rect x="178" y="229.7" class="st0" width="3" height="4.3" />
        </g>
    </g>
</svg>
