<svg id="Layer_1" data-name="Layer 1" xmlns="http://www.w3.org/2000/svg" x="0px" y="0px" viewBox="0 0 664 2595.3" style="enable-background:new 0 0 664 2595.3;" xml:space="preserve">
    <defs>
		<style type="text/css">
			.path-st0{fill:#ACA29A;}
			.path-st1{fill:#FFFFFF;}
		</style>
    </defs>
<g>
	<rect x="367.6" y="172.2" transform="matrix(0.4407 -0.8977 0.8977 0.4407 50.497 428.4515)" class="path-st0" width="3" height="3"/>
</g>
<polygon class="path-st1" points="112.7,592.6 114.1,599 122.3,596.6 122.9,594.1 121,592.6 116.2,592.6 "/>
<g>
	<path class="path-st0" d="M87.5,509.9l5,44.8c0,0.7,0.1,3.4,1.9,5.2c1,1,2.3,1.5,3.7,1.5h37.2c0.3,0.1,0.7,0.2,1.1,0.2
		c0.5,0,1-0.1,1.6-0.3c1.7-0.7,3.1-2.7,4-5.7c1.9-6.2,22-64.3,22.2-64.9l0.1-0.3c1.1-9.5,0-10.1-0.7-10.6
		c-1.3-0.8-10.4-4.1-17.8-5.2c-7.4-1.1-19.5-1.8-19.6-1.8l-0.1,0c-1.2,0-28.6,0-39,4.2l-1,0.4l0.1,1.1c0,0,0.2,2.7-0.7,4.9
		C84.3,486,86.5,502.8,87.5,509.9z M88.2,484.5c0.8-1.8,1-3.9,1-5.1c8.5-2.9,27.6-3.7,36.9-3.7c0.8,0,12.3,0.8,19.3,1.8
		c6.7,1,14.4,3.8,16.3,4.6c0.2,1.2,0,4.7-0.3,7.7c-1.4,4-20.3,58.7-22.2,64.8c-0.9,2.8-1.9,3.6-2.3,3.8c-0.3,0.2-0.6,0.1-0.6,0.1
		c0,0,0,0,0,0l-0.3-0.2H98.1c-0.7,0-1.2-0.2-1.6-0.6c-0.9-0.9-1-2.6-1-3.2l0-0.1l-5-45C88.9,498.5,87.6,486.2,88.2,484.5z"/>
	<path class="path-st0" d="M310.8,380.9c0.4,0.2,0.7,0.2,1,0.2c0.3,0,0.5,0,0.7-0.1h20.2c0.9,0,1.8-0.3,2.4-0.9c1.1-1.1,1.2-2.8,1.2-3.2
		l5-44.7l-0.8-0.3c-6.2-2.5-22.5-2.5-23.2-2.5l-0.1,0c-0.3,0-7.3,0.4-11.6,1.1c-4.4,0.7-9.8,2.6-10.6,3.1c-0.6,0.4-1.3,0.8,0.8,6.7
		c0.1,0.3,11.5,33.5,12.6,37.2C308.8,379.3,309.7,380.4,310.8,380.9z M297.7,339.5c-0.6-1.5-1.1-3.4-1.3-4.3c1.4-0.6,5.6-2,9.3-2.6
		c4.1-0.6,10.9-1,11.4-1.1c5.4,0,16.5,0.4,21.6,2.1l-4.8,43.1l0,0.1l0,0.1c0,0.2-0.1,1.2-0.5,1.7c-0.1,0.1-0.3,0.3-0.8,0.3h-20.4
		l-0.1-0.1l-0.3,0.2c-0.2,0.1-0.9-0.2-1.5-2.2C309.2,373.1,298.2,340.9,297.7,339.5z"/>
	<path class="path-st0" d="M348.1,331.1l-0.9,5.9c-0.6,4.1-5.7,40.5-5.7,42c0,1,0.5,1.5,0.8,1.8c0.4,0.2,0.7,0.3,1.1,0.3
		c0.4,0,0.8-0.1,1-0.2l2.2-0.6l3.1-0.5l13.5-44.9l0.1-0.4l-0.1-0.3c-0.9-2.2-1.6-3.7-5.9-4.5c-4.2-0.8-8.6,1.2-8.8,1.3L348.1,331.1z
		 M350.1,332.6c1.2-0.5,4.1-1.4,6.9-0.9c3.1,0.6,3.6,1.3,4.2,2.8l-13,43.3l-1.9,0.3l-2.4,0.7l-0.1,0c0.2-2.5,3.4-25.9,5.6-41.5
		L350.1,332.6z"/>
	<path class="path-st0" d="M171.2,165.5c-0.7-0.5-2.8-1-5.3-1.4c-2.8-0.4-7.2-0.7-7.4-0.7l-0.1,0c-3.3,0-7.6,0.9-10.9,2.2l-1.1,0.4
		l2.6,25c0,0.4,0.1,1.7,1,2.5c0.5,0.5,1.3,0.8,2.1,0.8h7.3c0.2,0,0.3,0.1,0.5,0.1c0.3,0,0.6-0.1,1-0.2c0.9-0.4,1.6-1.3,2-2.7
		c0.6-1.8,6.1-15.5,8.9-22.5l0.1-0.2C172.3,167.2,172.1,166.1,171.2,165.5z M169,168.2c-0.8,1.8-8.2,20.3-8.9,22.6
		c-0.1,0.4-0.2,0.6-0.3,0.7l-7.6,0c0-0.1-0.1-0.3-0.1-0.4l0-0.1l-2.4-22.8c2.8-1,6.2-1.6,8.7-1.6c0.5,0,4.6,0.3,7.1,0.7
		c1.7,0.3,2.9,0.5,3.5,0.7C169,168,169,168.1,169,168.2z"/>
	<path class="path-st0" d="M138,164.8c-0.5-0.4-1.5-0.9-2.9-0.7c-1.2,0.2-2.2,0.9-2.6,1.9c-0.5,1-0.4,2.1,0.2,3.2l7.5,23.4
		c0.2,0.6,0.8,1,1.4,1c0.1,0,0.2,0,0.3,0c0.8-0.2,1.3-0.9,1.1-1.7l-3.6-24.4C139.4,167.2,139.2,165.7,138,164.8z M135.5,168.2
		c0-0.1-0.1-0.2-0.1-0.3c-0.2-0.3-0.2-0.5-0.2-0.6c0-0.1,0.2-0.2,0.4-0.2c0.1,0,0.2,0,0.3,0c0.1,0,0.3,0,0.3,0.1
		c0.2,0.1,0.3,0.5,0.3,0.7c0,0,0,0.1,0,0.1l0.9,6L135.5,168.2z"/>
	<path class="path-st0" d="M56.1,76.1c-2.2,6-0.9,12.1,3.5,15.8c3.7,3,13,4.7,17.8,1.5c5.8,4.6,13.4,9.5,21.6,9.5c3.8,0,7.7-1,11.6-3.6
		c3.5-2.3,6.1-7.8,7.4-11.1c2.9,3.5,9.2,9.7,17,8.9c5.4-0.6,10.4-2,13.1-11.9c6,5.8,17.3,8.7,27,6.6c5.3-0.2,11.4-4.8,14.1-10.5
		c1.2-2.6,1.6-5.2,1.1-7.5c3.6,1.1,7.6,0.9,10.7-0.6c3.2-1.5,5.1-4.2,5.5-7.6c0.5-4.1-0.9-8-3.8-10.8c-2.2-2.2-5.2-3.4-8.2-3.5
		c0.1-6.8-4.1-10.8-8.4-12.4c-4.6-1.7-9.5-0.9-12.9,2c-1.6-4.9-4.3-8.4-7.9-10.3c-3.5-1.9-7.8-2.3-12.6-1.1c0.2-2.8-0.1-7.3-2.9-9.9
		c-2.2-2.1-5.4-2.6-9.5-1.7c-7.6-10.1-16.1-9.7-23.7-9.3C107,9.1,104,14.5,101.3,21c-3.7-2.8-9.4-3.5-13.9-1.6
		c-5,2.2-7.7,7.1-7.5,13.7C73.7,31,67.1,31.8,63,35.3c-3.7,3.1-5,7.9-3.9,13.6c-5.6,0.7-10.4,3.9-13.1,8.9c-2.4,4.4-2.5,9.4-0.2,13
		C47.7,74,51.4,75.8,56.1,76.1z M48.6,59.2c2.4-4.5,7-7.3,12.3-7.4c0.5,0,0.9-0.2,1.2-0.6c0.3-0.4,0.4-0.8,0.2-1.3
		c-1.5-5.4-0.6-9.6,2.6-12.3c3.8-3.2,10.3-3.5,16-0.9c0.5,0.2,1.1,0.2,1.5-0.1c0.4-0.3,0.7-0.9,0.6-1.4c-0.8-6.5,1.2-11.2,5.6-13.1
		c4.1-1.8,9.5-0.7,12.1,2.4c0.3,0.4,0.9,0.6,1.4,0.5c0.5-0.1,1-0.4,1.2-0.9l0.1-0.3c2.9-7.1,4.7-11.7,13.5-12.2
		c7.4-0.4,15-0.7,21.7,8.9c0.4,0.5,1,0.8,1.6,0.6c3.5-0.9,6.1-0.7,7.7,0.8c2.5,2.4,2.1,7.7,1.7,9.6c-0.1,0.5,0.1,1.1,0.5,1.4
		c0.4,0.4,1,0.5,1.5,0.3c4.8-1.7,9.1-1.6,12.4,0.2c3.4,1.9,5.8,5.6,7.1,11.1c0.1,0.6,0.6,1,1.2,1.1c0.6,0.1,1.2-0.1,1.5-0.6
		c2.7-4,7.7-4.4,11.3-3.1c3.6,1.3,7.1,4.9,6.4,11c-0.1,0.5,0.1,0.9,0.4,1.3s0.8,0.5,1.3,0.4c2.8-0.4,5.5,0.5,7.6,2.5
		c2.2,2.2,3.2,5.2,2.9,8.3c-0.3,3-2.3,4.5-3.8,5.2c-3.4,1.6-8.3,1.2-11.7-1c-0.6-0.4-1.4-0.3-1.9,0.2c-0.5,0.5-0.5,1.4-0.1,1.9
		c2.2,2.9,1.4,6.1,0.4,8.3c-2.2,4.6-7.5,8.7-11.6,8.8c-0.1,0-0.2,0-0.3,0c-10.8,2.4-22.2-2.1-26.1-7.8c-0.3-0.5-0.9-0.7-1.5-0.6
		c-0.6,0.1-1.1,0.6-1.2,1.2c-1.6,7.9-3.5,11.6-11.1,12.4c-8.8,0.9-15.9-9.7-16-9.8c-0.3-0.5-0.9-0.7-1.5-0.7c-0.6,0.1-1,0.5-1.2,1
		c-0.8,2.6-3.7,9.9-7.1,12.2c-11.1,7.3-22.1,0.4-30.5-6.5c-0.3-0.2-0.6-0.3-0.9-0.3c-0.4,0-0.7,0.1-1,0.4c-3.1,3-12,1.6-14.9-0.8
		c-4.5-3.7-4.1-9.8-1.8-14.3c0.2-0.5,0.2-1-0.1-1.5c-0.3-0.5-0.8-0.7-1.3-0.7c-4.8,0.2-8.4-1.2-10.1-4
		C46.6,66.5,46.7,62.7,48.6,59.2z"/>
	<path class="path-st0" d="M332.9,126.8c0,0,0.1,0,0.1,0c0.7-0.3,1.3-0.6,1.9-0.9c2.6-1.3,4.5-2.3,6.9-1.9c1.1,0.2,4.4,2.7,7.6,5.1
		c7.7,5.8,19.3,14.5,29.5,15.2c2.3,0.2,4.4,0.2,6.3,0.2c10.4,0,16.3-2.4,23-8.8c1.4-1.3,2.7-3.7,4.2-6.3c1.6-2.9,3.8-6.8,5.2-7.2
		c0.1,0,0.2,0,0.3,0.1c0.5,0.3,1.1,0.7,1.6,1.2c2.4,1.8,5.3,4.1,12.9,4.7c6,0.5,9.7-2.3,12.9-4.9c2-1.6,3.9-3.1,6.3-3.7
		c3.8-0.9,7.4,0.8,12.7,6c9.1,9.1,20.2,14.9,33,17.3c9.7,1.8,31.5,0.2,38.2-9.4c2.6-3.6,2.8-7.9,0.7-12.8
		c8.9,1.1,24.8,1.2,32.3-10.4c6.1-9.3,5.6-24.6-4.3-32.8c5.9-4.5,11.2-14.5,10.1-23.2c-0.6-5.1-3.5-11.7-13.9-14.8
		c0-0.1,0-0.2,0.1-0.3c0.8-4.5,3.3-18.2-11.5-22.9c-9.2-2.9-14.5,0.2-17,2.6c-1.7-4.2-3.1-6.8-7-10.8c-7.2-7.4-22.4-6.7-30.3-5.1
		c-8.7,1.8-18,8.2-21.3,17.6c-3.9-8.2-10.9-13.1-21.6-15.2c-9.8-1.9-20.9,0.8-29,7.1c-11.8,9.1-9.9,20.2-8.2,30
		c0,0.2,0.1,0.5,0.1,0.7c-10.9-3-20-0.3-26.3,8c-5.1,6.6-6.3,13.2-3.9,20.5c-7.8-1.7-18.7-1.2-26.5,1.4c0,0-0.1,0-0.1,0
		c-5.5,2.3-9.3,6.7-12.7,10.6c-4.3,5-6.7,7.5-10.1,5.7c-2.8-2.4-9.9-8.2-20.4-3.7c-6.1,2.6-10.1,6.8-12,12.4
		c-2.5,7.5-0.4,15.7,2.2,20.4C310,127.1,322.4,130.9,332.9,126.8z M305.8,99.1c1.6-4.7,5.1-8.3,10.4-10.6c7.9-3.4,13.4,0,17.3,3.3
		c0.1,0.1,0.1,0.1,0.2,0.2c5.8,3.3,9.7-1.3,14-6.2c3.1-3.6,6.6-7.7,11.5-9.8c8.3-2.8,20.4-3,27.5-0.6c0.6,0.2,1.2,0,1.6-0.4
		c0.4-0.4,0.5-1.1,0.3-1.6c-3.4-7.5-2.7-13.7,2.4-20.3c6-7.9,14.6-10,25.3-6.3c0.5,0.2,1,0.1,1.5-0.3c0.4-0.3,0.6-0.9,0.5-1.4
		c-0.2-1-0.3-2.1-0.5-3.1c-1.7-9.8-3.3-19.1,7-27.2c7.4-5.8,17.6-8.3,26.6-6.5c11.5,2.3,18,7.8,21.1,17.8c0.2,0.7,0.9,1.1,1.6,1.1
		c0.7-0.1,1.3-0.6,1.4-1.3c1.2-10.6,11-18,20.1-19.8C509,3.2,519,6.1,523,10.2c4.2,4.3,5.2,6.5,7.3,12.2c0.2,0.6,0.7,0.9,1.3,1
		c0.6,0,1.2-0.3,1.4-0.8c0.2-0.3,3.9-7,15.2-3.4c10.9,3.5,10.7,12.2,9.4,19.5c-0.3,1.4-0.4,2,0,2.7c0.2,0.4,0.5,0.6,0.9,0.7
		c7.7,2,12.1,6.4,12.9,12.6c1,8.3-4.8,18.4-10.5,21.4c-0.5,0.2-0.8,0.7-0.8,1.2s0.2,1,0.7,1.3c10.1,6.8,10.9,21.3,5.2,30
		c-7.5,11.5-25,9.9-32.2,8.7c-0.6-0.1-1.2,0.1-1.5,0.6c-0.3,0.5-0.4,1.1-0.1,1.6c2.8,4.8,3.1,8.9,0.8,12.2c-5.7,8.1-26,9.9-35.2,8.2
		c-12.2-2.3-22.8-7.8-31.5-16.5c-6.1-6.1-10.6-8-15.5-6.8c-3,0.7-5.3,2.5-7.5,4.2c-3,2.4-5.9,4.6-10.8,4.2
		c-6.7-0.6-9.2-2.5-11.3-4.1c-0.6-0.5-1.2-0.9-1.9-1.3c-0.8-0.5-1.7-0.6-2.7-0.4c-2.7,0.7-4.8,4.5-7.1,8.6c-1.3,2.3-2.6,4.6-3.6,5.6
		c-8.1,7.7-14.9,8.6-27,7.8c-9.3-0.6-20.5-9.1-27.9-14.7c-4.7-3.5-7.2-5.3-8.9-5.6c-0.5-0.1-1.1-0.1-1.6-0.1c-2.6,0-4.8,1.1-7.2,2.3
		c-0.6,0.3-1.1,0.6-1.7,0.9c-9.2,3.5-19.9,0.3-24-7C305.5,112.9,303.6,105.7,305.8,99.1z"/>
	<path class="path-st0" d="M95,1789.4l7.4,67c0,0.7,0.1,4.8,2.6,7.3c1.3,1.3,3,2,5.1,2h55.8c0.3,0.1,0.8,0.2,1.5,0.2
		c0.6,0,1.3-0.1,2.1-0.4c2.4-1,4.3-3.7,5.6-8c2.9-9.3,33-96.1,33.3-97l0.1-0.3c1.6-13.7,0-14.6-0.7-15.1c-1.6-1-15-6-26.3-7.6
		c-11-1.6-29.1-2.7-29.3-2.7l-0.1,0c-14.7,0-45.7,1.3-58.1,6.3l-1,0.4l0.1,1.1c0,0,0.3,4.2-1.2,7.6
		C90.2,1754.1,94.2,1783.6,95,1789.4z M94.6,1751.3c1.3-2.9,1.4-6.2,1.4-7.9c12.6-4.5,41.8-5.7,56-5.7c1,0.1,18.4,1.1,29,2.7
		c10.6,1.6,22.7,6,24.9,7.1c0.4,1.5,0.1,7.3-0.4,12.2c-1.5,4.2-30.4,87.8-33.3,97c-1.4,4.4-3,5.7-3.8,6.1c-0.9,0.4-1.5,0.1-1.5,0.1
		l-0.3-0.2h-56.4c-1.2,0-2.2-0.4-2.9-1.1c-1.8-1.8-1.7-5.2-1.7-5.3l0-0.1L98,1789C95.6,1772.2,93.7,1753.5,94.6,1751.3z"/>
	<path class="path-st0" d="M84.8,1787.2l-4.3-31.5l-4-14l-0.6-0.3c-0.6-0.3-14.5-7.7-24.9-5.7c-8.2,1.6-17.9,4.5-20.5,13.3l-0.1,0.4
		l33.9,113l13.9,1.2l9.8,0.9c0.4,0.1,1.2,0.4,2,0.4c0.7,0,1.4-0.1,2-0.6c0.7-0.5,1.6-1.5,1.6-3.5C93.5,1857,85.2,1790.1,84.8,1787.2
		z M90.3,1861.8c-0.2,0.2-1,0-1.5-0.2l-0.2-0.1l-10.2-0.9l-11.8-1l-33-110.2c1.8-5.4,7.4-8.7,18.1-10.8c8.2-1.6,19.7,3.8,22.3,5.1
		l3.6,12.5l4.3,31.4c2.4,19.4,8.7,70.2,8.7,73.3C90.5,1861.5,90.4,1861.8,90.3,1861.8z"/>
	<path class="path-st0" d="M546.2,933.6c-1.2-2.8-1-6.3-1-6.3l0.1-1.1l-1-0.4c-10.5-4.2-36.9-5.3-49.3-5.3l-0.1,0
		c-0.2,0-15.5,0.9-24.8,2.3c-9.2,1.4-20.7,5.5-22.4,6.5c-0.7,0.4-2,1.3-0.7,13l0.1,0.3c0.3,0.7,25.8,74.4,28.2,82.3
		c1.1,3.7,2.8,6.1,4.9,6.9c0.7,0.3,1.3,0.4,1.8,0.4c0.5,0,1-0.1,1.3-0.2h47.3c1.8,0,3.3-0.6,4.5-1.8c2.1-2.2,2.3-5.7,2.3-6.3
		l6.3-56.8C544.6,960.1,547.7,937,546.2,933.6z M534.3,1023.7L534.3,1023.7l0,0.2c0,0.8-0.2,3.1-1.4,4.3c-0.6,0.6-1.3,0.9-2.3,0.9
		H483l-0.3,0l-0.3,0.2c-0.1,0-0.5,0.2-1.1-0.1c-0.7-0.3-2-1.4-3.1-5c-2.4-7.8-26.5-77.4-28.2-82.2c-0.4-4-0.7-8.8-0.4-10.1
		c2-0.9,12.2-4.6,20.9-5.9c8.9-1.3,23.6-2.2,24.5-2.3c11.9,0,36.5,1,47.2,4.7c0,1.5,0.2,4.2,1.2,6.6c0.7,2-0.9,17.8-2.9,31.9
		L534.3,1023.7z"/>
	<path class="path-st0" d="M653.2,2337.6c0-0.2-0.1-0.4-0.1-0.6c0-0.1,0.1-0.3,0.1-0.4c0-170.2-67-350.1-126.2-508.9
		c-46.8-125.8-87.3-234.4-87.3-315.8c0-92.3,25.1-157.3,49.4-220.2c4.7-12.2,9.4-24.5,14-37l0,382c0,0,0.1,2.9-1.4,4.5
		c-0.8,0.8-1.8,1.2-3.2,1.2v3c2.2,0,4-0.7,5.4-2.1c2.5-2.6,2.3-6.6,2.3-6.7v-553.8c4.7,1.4,11.9,1.5,15.3,1.5c0.6,0,1.1,0,1.4,0
		l1.1,0c5.1,0,9.9-0.1,13.6-0.8v552.9c-0.1,0.8-0.4,4.5,1.8,6.9c1.1,1.3,2.8,2,4.8,2v-3c-1.1,0-2-0.3-2.5-1c-1.2-1.3-1.2-3.8-1-4.6
		l0-0.1v-553.9c1.6-0.6,2.8-1.4,3.4-2.6c3-0.6,4.8-2.6,4.8-5.6c0-1.4-0.5-2.6-1.5-3.4c-1.4-1.3-3.7-1.8-7-1.6l0.3-10.4l8.8-17.9
		l20.3-2.4l34.8-112.9l16.1-1.4c0.7,0,2.5-0.1,3.2-1.4c0.3-0.6,0.4-1.7-0.7-3c-1.9-2.2-56.4-31.7-73-40.7l-7.3-1.9v-30l-6.6-1.3
		L529,842h-19.7l-6.5,4.4l-6.8,0.9v29h-3.6l-9.4,4.6c-6.1-10.3-12.8-20.7-20-31.1c-43.4-63.2-96.6-116.1-139.3-158.6
		c-15.6-15.5-29-28.8-40.1-40.8c-57.2-61.8-76.5-134.2-57.5-215.2c7.5-31.8,32.6-57.7,57-82.8c3.1-3.2,6.1-6.3,9.2-9.6l14.7,42.6
		l12.9,0.2l0.6,12.4c-1.5,0.3-2.4,1.3-2.4,2.9l0,0.1l0,0.1c0,0.2,0.2,1.4,2,2.2c0.1,0.2,0.2,0.4,0.3,0.5c0.1,0.1,0.2,0.2,0.3,0.3
		v259.4c0,0,0,3.3-2.5,3.8l0.5,2.1c3.4-0.7,4.2-4.2,4.2-6V404.8c2.2,0.5,5.1,0.6,6.7,0.6c0.3,0,0.5,0,0.7,0l0.5,0c2.2,0,4.3,0,6-0.3
		v258.2c-0.2,1.9,0.1,5.4,3.2,6l0.4-2.1c-1.9-0.4-1.4-3.7-1.4-3.7l0-0.1V404.6c0.6-0.3,1.1-0.6,1.4-1.1c1.5-0.4,2.4-1.4,2.4-3
		c0-0.8-0.3-1.4-0.8-1.9c-0.7-0.6-1.7-0.9-3.1-0.9l0.1-4.4l4-8.1l9.5-1.2l16.5-53.4l7-0.1c0.3,0,1.5,0,1.9-0.9
		c0.2-0.3,0.3-1-0.4-1.8c-0.9-1-21.8-12.4-34.3-19.1l-3.2-0.8v-14l-3.4-0.6l-3.2-1.9h-1c23.1-42.2,25.2-85.8,22.6-104.5
		c-0.1-0.4-0.3-0.7-0.5-0.9c2.6-0.2,5.2-0.5,7.8-0.7v70.9l0,0.1c0,0.4,0,1.4-1,1.5l0.4,3c2.8-0.4,3.7-3,3.5-4.7v-76.2
		c0.2,0,0.5,0,0.8,0c0.1,0,0.2,0,0.3,0h0.2c0.2,0,0.4,0,0.6,0v76.2c-0.2,1.7,0.6,4.3,3.3,4.7l0.4-3c-0.8-0.1-0.8-1.3-0.7-1.5l0-71.8
		c16.8-1.5,34-3,51.3-3c21,0,42.3,0.8,62.9,1.5c17,0.6,34.6,1.3,51.9,1.5c7.7,0.1,13.6,0.8,19.3,1.5c7.5,0.9,14.7,1.8,24.8,1
		c9.4-0.8,63.2-2.3,67.1,1.2c0.4,0.7,1.3,0.9,2,0.5c0.7-0.4,1-1.3,0.5-2.1c-0.7-1.2-2.2-3.8-34.4-3.7c-15.8,0.1-32.3,0.8-35.6,1.1
		c-9.8,0.8-16.7,0-24.1-1c-5.8-0.7-11.7-1.5-19.6-1.6c-17.2-0.2-34.8-0.8-51.8-1.5c-20.6-0.8-42-1.5-63-1.5
		c-17.4,0-34.6,1.4-51.3,2.9l0-2.3c0.7-0.3,1.1-1,1.1-1.9c0-0.8-0.4-1.2-0.6-1.4c-0.2-0.1-0.3-0.2-0.5-0.3l0-1.6l3.7-0.5l4.9-15.9
		l1.2,0c0.7,0,1.4-0.3,1.7-0.9c0.2-0.5,0.3-1.2-0.3-1.8c-0.2-0.3-0.4-0.5-10.6-6l-0.3-0.1v-4.3l-1.8-0.3l-1.1-0.6h-3.5l-1,0.7
		l-1.8,0.2v4.1l-11.5,5.7l-0.2,0.4c-0.2,0.5-0.4,1.2,0,1.8c0.3,0.5,0.9,0.8,1.6,0.8c0.3,0,1,0,1.6-0.1l5.8,16.8l3.6,0l0.1,1.9
		c-0.4,0.4-0.7,0.9-0.7,1.5l0,0.1l0,0.1c0,0.4,0.3,0.9,0.8,1.3v3.3c-18.1,1.7-36.9,3.3-55.7,3.3c-14.9,0-30-0.1-44.7-0.2
		c-29.4-0.2-59.9-0.3-89.8,0.2c-0.4,0-0.8,0-1.2,0l7.6-22c1.4,0.1,3.6,0.2,4.4,0.2c1.1,0,1.7-0.6,1.9-1c0.4-0.7,0.3-1.6,0-2.2
		l-0.2-0.4l-24.1-12H160v-8.3l-2.7-0.4l-2-1.3H149l-2.1,1.2l-2.6,0.5v8.8l-1.2,0.3l-0.4,0.1c-20.9,11.3-21.5,11.9-21.7,12.1
		c-0.8,0.9-0.5,1.7-0.4,2c0.3,0.7,1.1,1.1,1.9,1l3.8,0l7,22.7c-3.5,0.2-7.2,0.4-10.9,0.6c-42.3,2.3-95,5.2-117.3,2.2
		c-0.8-0.1-1.6,0.5-1.7,1.3c-0.1,0.8,0.5,1.6,1.3,1.7c7,0.9,16.9,1.3,28.4,1.3c25.8,0,60.1-1.9,89.4-3.5c4-0.2,7.9-0.4,11.7-0.6
		l2.4,7.7l8.1,1l0.2,6.6c-0.5,0.1-1,0.3-1.3,0.6c-0.4,0.3-0.8,0.9-0.8,1.8c0,1.9,0.8,3.2,2,3.6v160.3l0,0.2c0,0.1,0.2,2-1.8,2.6
		l0.9,2.9c3.4-1,4-4.1,3.9-5.7V211.9c0.9,0.1,2.1,0.1,3.5,0.1c1.4,0,2.6,0,3.6-0.1l0,159.9c0.1,1.6,0.8,4.6,3.3,5.5l1.1-2.8
		c-1-0.4-1.4-2.3-1.4-2.8V211.4c1.4-0.5,2-2.1,2-3.3l0-0.1l0,0c0-1.2-0.7-2.1-1.9-2.5l0.3-6.7l7.9-0.1l3.5-10.1c0.8,0,1.5,0,2.3,0
		c29.9-0.5,60.3-0.3,89.8-0.2c14.6,0.1,29.8,0.2,44.7,0.2c9.1,0,18.2-0.4,27.2-1c3.5,22.9-10.3,73-62.1,110.7
		c-64.5,47-109.4,96.9-131.6,145.5l-11.6-5.8h-2.6v-22.8l-5.6-0.7l-5.2-3.4H99.2l-5.5,3.2l-5.4,1v23.7l-5.2,1.3l-0.4,0.1
		c-16.9,9.1-56.2,30.4-57.7,32.2c-1,1.2-0.9,2.1-0.6,2.7c0.6,1.2,2.2,1.3,2.8,1.3l12.4,1.1l27.5,89l16,1.9l6.8,13.9l0.2,7.8
		c-2.5-0.1-4.3,0.3-5.4,1.3c-0.8,0.7-1.3,1.7-1.3,3c0,2.4,1.5,4.2,3.9,4.7c0.5,0.9,1.4,1.5,2.5,2v436.5l0,0.2c0,0,0.5,3.8-2,6l2,2.2
		c3.4-3,3.1-7.7,3-8.5V602c2.8,0.5,6.5,0.5,10.4,0.5l0.8,0c0.3,0,0.8,0,1.2,0c2.9,0,7.9-0.2,11.6-1.1v436.3l0,0.1
		c0,0.2,0.4,4.1,2.9,7.2l2.3-1.9c-1.8-2.2-2.2-5-2.2-5.4V600.2c0.2-0.2,0.5-0.3,0.7-0.5c0.3-0.3,0.4-0.6,0.6-0.9
		c2.9-1.2,3.2-3.2,3.2-3.5l0-0.2l0-0.1c-0.1-3.1-2.2-4.2-4-4.5l1-21.4l7-0.1c9.4,60.5,32.3,111.9,56.3,165.6
		c32.8,73.5,66.7,149.4,66.7,255.3c0,88-50.9,162-104.8,240.3c-30.8,44.8-62.7,91.1-86.9,142.6c-27.4,58.3-40.7,115-40.7,173.5
		c0,55.4,4.8,111.3,14.7,169.3c-16.8,9.3-31.1,17.4-32.1,18.5c-1.3,1.5-1.1,2.6-0.8,3.3c0.7,1.5,2.8,1.6,3.5,1.6l19.1,1.7
		l41.1,133.1l6.9,0.8c8.7,29.6,18,58.4,27.5,86.7v617.7l0,0.2c0,0,0.4,3.7-1.3,5.7c-0.7,0.8-1.8,1.2-3.2,1.2v3
		c2.3,0,4.1-0.8,5.4-2.3c2.4-2.8,2.1-7.2,2-7.9v-652.4c4.3,0.9,10.2,1,16.3,1l1.3,0c0.4,0,1,0,1.7,0c4.1,0,12.7-0.2,18.3-1.9
		l0,653.3c0,0.2-0.2,4.8,2.6,7.8c1.5,1.6,3.6,2.4,6.1,2.4v-3c-1.7,0-3-0.5-3.9-1.5c-1.9-2-1.8-5.5-1.8-5.6V2091
		c28,86.9,49.9,171.2,49.9,256.5c0,0.2,0.1,0.5,0.2,0.7c0,0.1-0.1,0.3-0.1,0.4c0,1.3,2.2,134.8-15.6,261.2c-0.1,0.8,0.5,1.6,1.3,1.7
		c0.1,0,0.1,0,0.2,0c0.7,0,1.4-0.5,1.5-1.3c17.9-126.7,15.7-260.3,15.6-261.6c0-0.2-0.1-0.5-0.2-0.6c0-0.1,0.1-0.2,0.1-0.4
		c0-88.7-23.5-176-52.9-266.3v-157.1c0.5-0.3,0.9-0.6,1.2-0.9c0.4-0.4,0.7-0.9,0.8-1.4c4.2-1.6,4.6-4.4,4.7-4.7l0-0.1l0-0.3
		c-0.1-4.4-3.1-5.8-6.1-6.1l1.5-33.4l32.8-0.4l48.8-141.9c4,0.3,17.3,1.2,20.8,1.2c2.2,0,3.2-0.9,3.7-1.7c1.1-1.8,0-4.1-0.2-4.3
		l-0.2-0.4l-94.5-46.9l-0.3-0.2h-4.5v-34.2l-7.8-1l-7.7-5.1H112l-8.1,4.8l-7.7,1.4v35.4l-8.4,2.1l-0.4,0.1
		c-7.4,4-30.7,16.6-51.2,27.9c-9.7-57.4-14.5-112.8-14.5-167.7c0-58,13.2-114.3,40.5-172.2c24.1-51.2,55.9-97.5,86.7-142.2
		c54.2-78.7,105.3-153.1,105.3-242c0-106.5-34.1-182.7-67-256.5c-23.8-53.3-46.6-104.4-56-164.4l11.8-0.1l32.6-94.9
		c3.1,0.2,11.3,0.8,13.6,0.8c1.7,0,2.5-0.7,2.9-1.4c0.8-1.4,0.1-3.1-0.1-3.4l-0.2-0.4L142.6,445c21.9-48,66.5-97.6,130.7-144.4
		c30.2-22,45.7-46.6,53.4-63.3c8.2-18,11.9-36.6,10-50c5.2-0.4,10.4-0.8,15.6-1.3c-0.3,0.3-0.4,0.7-0.3,1.2
		c2.6,18.6,0.5,62.2-23,104.1h-5.1l-3.1,2.1l-3.4,0.5v13.5h-1.4L278.3,326l-0.3,0.2l-0.2,0.3c-0.1,0.2-0.6,1.3-0.1,2.2
		c0.2,0.4,0.8,0.9,1.9,0.9c1.3,0,6-0.3,7.9-0.4l3.6,10.5c-3.4,3.6-6.8,7.1-10.3,10.7c-24.6,25.4-50.1,51.6-57.7,84.2
		c-19.3,82,0.3,155.3,58.2,217.9c11.1,12,24.6,25.4,40.2,40.9c42.7,42.4,95.8,95.2,139,158.2c7.1,10.3,13.6,20.6,19.7,30.8l-68,33.8
		l-0.4,0.2l-0.2,0.4c-0.2,0.4-1.1,2.3-0.1,3.9c0.4,0.7,1.3,1.5,3.3,1.5c3,0,13.9-0.7,17.5-1l41.4,120.3l27.7,0.3l1.2,27.9
		c-2.6,0.3-5.1,1.6-5.1,5.4l0,0.2l0,0.1c0,0.3,0.4,2.8,4,4.2c0.1,0.4,0.4,0.8,0.7,1.2c0.2,0.3,0.6,0.5,0.9,0.7l0,164.3
		c-5.4,15.2-11.1,30.1-16.8,44.7c-24.4,63.1-49.6,128.4-49.6,221.3c0,82,40.5,190.8,87.5,316.9c59,158.6,126,338.3,126,507.9
		c0,0.2,0.1,0.4,0.1,0.6c0,0.1-0.1,0.3-0.1,0.4c0,2,0.6,197.6-20.6,272c-0.2,0.8,0.2,1.6,1,1.9c0.1,0,0.3,0.1,0.4,0.1
		c0.7,0,1.3-0.4,1.4-1.1C653.8,2535.6,653.2,2339.6,653.2,2337.6z M372.2,155.9l3.6,0.6l-4.4,14.2l-1,0.1L372.2,155.9z M366.9,175.5
		c-0.2,0-0.5,0-0.7,0c-0.3,0-0.8,0-1.2-0.1l-0.1-1.5l2,0L366.9,175.5z M364.1,146.8l0.7-0.5h1.8l0.7,0.4v1.4h-3.1V146.8z
		 M362.3,151.1h0.3h1.5h2.9l1.8,1.8l-10.9,0.4L362.3,151.1z M360.5,170.9l-5-14.5l13.7-0.5l-1.9,15L360.5,170.9z M147.3,142.8l9.7,0
		v5.4h-9.7V142.8z M148.7,151.3h8.3h1.5h1l18.7,9.3c-0.3,0-0.6,0-0.9-0.1l-1.2-0.1l0,0l-35.1-1.4L148.7,151.3z M143.8,152.1l-6.8,7
		v0.3l-8.7,1.3C132.7,158.1,139.1,154.6,143.8,152.1z M138.9,195.1l-9.8-31.6l10-1.5l0.8,0l4.2,33.7L138.9,195.1z M154.9,208.9
		c-0.9,0.1-2,0.1-3.6,0.1c-1.4,0-2.6-0.1-3.5-0.1v-0.8c1.2,0.1,2.6,0.2,3.1,0.2c1.2,0,2.7-0.1,3.9-0.3V208.9z M155.1,205
		c-1.2,0.1-2.9,0.3-4.1,0.3c-1.1,0-2.2-0.1-3-0.2l-0.2-6.1l7.6-0.1L155.1,205z M164.1,195.7l-16.8,0.2l-4.2-33.8l32.1,1.2
		L164.1,195.7z M4.7,1735.3l64.3-12.9l-0.2,3.7l-64.2,9.3C4.6,1735.3,4.6,1735.3,4.7,1735.3z M66.7,1870.9l-41.1-133.2l-10-0.9
		l55.8-8.1l7.3,0.3l18.1,145.5L66.7,1870.9z M98.1,1877.7l0.4,12.8l-6.7-13.6L98.1,1877.7z M98.7,1951.7
		c-8.3-25.1-16.5-50.7-24.2-76.8l13.8,1.7l10.4,21.3l0.4,12.6c-4-0.3-6.7,0.3-8.4,1.8c-1.1,1-1.6,2.3-1.6,3.9c0,3.4,2,5.7,5.5,6.4
		c0.7,1.4,2.1,2.4,4.1,3.1V1951.7z M119.3,1924.3l-1.3,0c-3.3,0-9.9,0-14.8-0.7c3.9,0.4,9,0.7,15.6,0.7c3.9,0,7.4-0.1,10.5-0.2
		C125.9,1924.3,122.3,1924.4,119.3,1924.3z M145.9,1916.8c-0.1,0.3-0.7,1.7-3.4,2.5c-4.7,1.3-12.6,2-23.6,2
		c-12.7,0-19.9-1.2-23.4-1.7c-2.9-0.5-3.2-2.2-3.2-3.5c0-0.5,0.1-1.1,0.6-1.6c0.7-0.6,2.6-1.5,7.7-0.9c2.5,0.7,11.4,1.8,18.3,1.8
		c8.1,0,21-1.6,22.5-1.8C145.8,1913.6,145.8,1915.6,145.9,1916.8z M101.1,1877.7l40.1-0.5l-1.5,33.5c-3.6,0.4-14.2,1.6-21,1.6
		c-6.8,0-14.1-1-16.7-1.5L101.1,1877.7z M174.9,1873.9l-75,0.9l-18.1-145.6l141,5.5L174.9,1873.9z M247.7,1731.9
		c0.1,0.4,0.2,0.8,0.1,1c0,0-0.3,0.2-1.1,0.2c-3.8,0-19.3-1.1-21.5-1.2l0-0.2l-153.4-6l0.2-4l0.4-0.1l171.5,8.3L247.7,1731.9z
		 M154.4,1685.6l82.7,41l-162.7-7.9l33.5-33.2l0,0h39.8h1.5H154.4z M112.9,1645.2h21.4l5.1,3.4l-32.2-0.1L112.9,1645.2z
		 M99.3,1651.6l48.4,0.1v30.9H99.3V1651.6z M88.8,1688.8l10.5-2.6v-0.6h4.3l-33.8,33.5l-57.3,11.5
		C28.7,1721.4,63.6,1702.3,88.8,1688.8z M100,413.9h14l1.9,1.3l-18.1,0L100,413.9z M91.3,418.2l31.4,0.1v19.7H91.3V418.2z M84,443
		l7.3-1.8v-0.3h1.2l-21.7,21.5l-35.1,7.1C47.4,462.9,68.5,451.4,84,443z M70,465.6l-0.1,1.4l-25.2,3.7L70,465.6z M44.4,482.6
		l-2.4-7.8l-2.8-0.3l33.1-4.8l4.4,0.2l2.7,21.5l-0.6-4.1l-2.8-9.7l-0.6-0.3c-0.4-0.2-9.9-5.2-17-3.8
		C52.8,474.5,46.2,476.5,44.4,482.6z M47.4,483.1c1.2-3.3,4.8-5.4,11.7-6.7c5.2-1,12.4,2.3,14.4,3.3l2.3,8.1l2.9,20.9
		c2.3,18.7,5.8,47.1,5.8,48.9c0,0.1,0,0.1,0,0.2c-0.1,0-0.3-0.1-0.4-0.1l-0.2-0.1l-14.5-1.3L47.4,483.1z M69.4,563.9l-1.4-4.6
		l8.6,0.7l6.5,0.6c0.3,0.1,0.9,0.3,1.5,0.3c0.5,0,1.1-0.1,1.6-0.5c0.6-0.4,1.3-1.2,1.3-2.7c0-0.2,0-0.6-0.1-1.3l1.2,9.8L69.4,563.9z
		 M86.7,569l2.9,0.3l0.2,5.9L86.7,569z M121.5,595c-0.1,0.2-0.5,0.8-1.9,1.3c-3.1,0.9-8.3,1.3-15.7,1.3c-8.4,0-13.3-0.8-15.6-1.1
		c-1.5-0.2-1.7-1-1.7-1.8c0-0.3,0.1-0.5,0.3-0.7c0.3-0.3,1.4-0.9,4.7-0.5c2.1,0.6,8.2,1.2,12.3,1.2c5.4,0,14-1.1,15.1-1.2
		C121.3,593.4,121.5,594.2,121.5,595z M92.6,569.4l25.8-0.3l-1,21.4c-2.7,0.3-9.3,1-13.5,1c-4.2,0-8.7-0.6-10.7-0.9L92.6,569.4z
		 M141,565.8l-49.4,0.6l-12-96.4l93,3.6L141,565.8z M189.6,471.7c0,0-0.1,0-0.2,0c-2.5,0-12.9-0.7-14.4-0.8l0-0.1l-102.1-4l0.1-1.7
		l114.3,5.5L189.6,471.7z M180.7,467.3l-105.3-5.1l21.4-21.2h25.9h1.5h3.4L180.7,467.3z M340.4,400.2c0.1,0.1,0.1,0.1,0.1,0.3
		c0,0.4-0.1,0.8-0.9,0.9c-1.4,0.2-4.2,0.7-9.2,0.7c-5.4,0-8-0.4-9.2-0.8c-0.7-0.2-0.9-0.5-1-0.6c0-0.4,0.1-0.7,1.3-0.7
		c0.7,0.1,5.8,0.7,8.9,0.7c2.3,0,6-0.4,7.3-0.7C339.7,399.7,340.3,400.1,340.4,400.2z M322,385.6l14.9,0.2l-0.4,12.3
		c-1.2,0.2-3.7,0.5-6.1,0.5c-2.4,0-6.1-0.4-7.8-0.6L322,385.6z M339,388.1l0.1-2.4l1.2-0.1L339,388.1z M350.7,382.1l-11,1.3l7-56.6
		l2.6-0.1l17.7,2.6L350.7,382.1z M342.1,310.8c10.6,5.7,25.6,13.9,31.3,17.2l-22.1-3.2v-1l-13.7-14.1L342.1,310.8z M324.4,293.6h8.2
		l2.5,1.5l-12.9,0L324.4,293.6z M319.4,297.2l18.2,0v10.2h-18.2V297.2z M337.6,309.6v0.1V309.6L337.6,309.6z M289.1,326.9l-0.8,0.1
		c-0.1,0-5.5,0.4-7.8,0.5l35.9-17.8h3.1h15.1l14.6,15L289.1,326.9L289.1,326.9z M289.8,329l54.7-2.1l-7,56.7l-29-0.3L289.8,329z
		 M540.6,1051.8l0.3-9.6l4.7-0.6L540.6,1051.8z M602,923l-20.1,65.2l16.5-55l-0.1-0.4c-2.2-7.6-10.6-10.1-17.6-11.4
		c-8.9-1.7-20.7,4.6-21.2,4.8l-0.6,0.3l-3.4,11.8l-3.7,26.9c-0.3,2.4-7.4,59.2-7.4,62.5c0,1.8,0.8,2.7,1.4,3.1
		c0.6,0.4,1.2,0.5,1.9,0.5c0.7,0,1.4-0.2,1.8-0.3l19.8-1.7l-2.1,6.7l-25.1,3L557.4,916l6-0.2l45.4,6.6L602,923z M567.3,1026.4
		l-18.6,1.6l-0.2,0.1c-0.3,0.1-0.9,0.2-1,0.2c0,0-0.1-0.1-0.1-0.6c0-2.6,5.3-45.7,7.4-62.1l3.7-26.6l3-10.5
		c2.4-1.2,11.9-5.6,18.7-4.3c8.9,1.7,13.6,4.5,15.1,8.9L567.3,1026.4z M565.9,913.2l-0.1-2.7l47,9.5L565.9,913.2z M548.6,881.9
		c20.7,11.2,49.3,26.8,63.4,34.8l-47.1-9.5l-28.2-28h2.9v0.4L548.6,881.9z M510.2,845h18l4,2.4l-25.7,0L510.2,845z M498.9,850.5
		l40.6-0.1v25.8h-40.6V850.5z M493,879.3h4.4h1.5h33.4l28,27.7l-136.4,6.6L493,879.3z M414.7,919.1c-0.5,0-0.7-0.1-0.7-0.1
		c0-0.1,0-0.3,0.1-0.6l3.1-1.6l145.4-7l0.1,0l0.2,3l-129.9,5l0,0.1C431.1,918.1,418,919.1,414.7,919.1z M475.8,1038.4l-40.5-117.6
		l119-4.6l-15.3,123L475.8,1038.4z M537.9,1042.2l-0.8,27.7c-2.3,0.4-8.3,1.2-13.9,1.2c-5.6,0-14.3-1-17.6-1.4l-1.3-28l31,0.4
		c0,0,0,0,0,0.1H537.9z M500.5,1075.1c0-1,0.1-2.5,3.6-2.5c1.3,0.2,12.3,1.5,19.1,1.5c5.6,0,13.3-0.9,15.6-1.5
		c4.3-0.5,5.8,0.2,6.3,0.7c0.4,0.4,0.5,0.8,0.5,1.2c0,1.1-0.3,2.4-2.6,2.7c-3,0.5-9.1,1.4-19.8,1.4c-9.3,0-16.1-0.6-20-1.6
		C501,1076.3,500.6,1075.3,500.5,1075.1z"/>
</g>

</svg>