<?xml version="1.0" encoding="UTF-8"?>

<svg width="78px" height="77px" viewBox="0 0 78 77" version="1.1" xmlns="http://www.w3.org/2000/svg" xmlns:xlink="http://www.w3.org/1999/xlink">
    <!-- Generator: Sketch 47.1 (45422) - http://www.bohemiancoding.com/sketch -->
    <desc>Created with Sketch.</desc>
    <defs></defs>
    <g id="Page-1" stroke="none" stroke-width="1" fill="none" fill-rule="evenodd">
        <g id="Entergy_InteractiveWidget_20171129" transform="translate(-328.000000, -314.000000)" fill-rule="nonzero">
            <g id="g10" transform="translate(475.000000, 282.000000) scale(-1, 1) rotate(-180.000000) translate(-475.000000, -282.000000) translate(0.000000, 0.500000)">
                <g id="g22">
                    <g id="g24-Clipped">
                        <g id="g24" transform="translate(328.000000, 172.000000)">
                            <g id="g76" transform="translate(17.064750, 2.492125)" fill="#EB0A26">
                                <path d="M25,0 L7.49875,0 C4.06125,0 1.24875,2.8125 1.24875,6.25 L1.24875,66.935 C1.24875,70.3725 4.06125,73.185 7.49875,73.185 L25,73.185 C28.4375,73.185 31.25,70.3725 31.25,66.935 L31.25,6.25 C31.25,2.8125 28.4375,0 25,0" id="path78"></path>
                            </g>
                            <g id="g80" transform="translate(15.586375, 0.335250)" fill="#FFFFFF">
                                <path d="M5,73.75 C4.63125,73.75 4.31875,73.43875 4.31875,73.06875 L4.31875,4.43 C4.31875,4.06 4.63125,3.7475 5,3.7475 L30.455,3.7475 C30.825,3.7475 31.1375,4.06 31.1375,4.43 L31.1375,73.06875 C31.1375,73.43875 30.825,73.75 30.455,73.75 L5,73.75 Z M30.455,0.56625 L5,0.56625 C2.86875,0.56625 1.13625,2.3 1.13625,4.43 L1.13625,73.06875 C1.13625,75.19875 2.86875,76.9325 5,76.9325 L30.455,76.9325 C32.58625,76.9325 34.32,75.19875 34.32,73.06875 L34.32,4.43 C34.32,2.3 32.58625,0.56625 30.455,0.56625 L30.455,0.56625 Z" id="path82"></path>
                            </g>
                            <polygon id="path84" fill="#FFFFFF" points="18.31375 58.4025 48.315 58.4025 48.315 62.03875 18.31375 62.03875"></polygon>
                            <polygon id="path86" fill="#FFFFFF" points="18.31375 49.3125 48.315 49.3125 48.315 52.94875 18.31375 52.94875"></polygon>
                            <polygon id="path88" fill="#FFFFFF" points="18.31375 39.76625 48.315 39.76625 48.315 43.4025 18.31375 43.4025"></polygon>
                            <polygon id="path90" fill="#FFFFFF" points="18.31375 30.675 48.315 30.675 48.315 34.31125 18.31375 34.31125"></polygon>
                            <g id="g92" transform="translate(7.064125, 2.946250)" fill="#EB0A26">
                                <path d="M20,0 L6.59,0 C3.1525,0 0.34,2.8125 0.34,6.25 L0.34,53.7525 C0.34,57.19 3.1525,60.0025 6.59,60.0025 L20,60.0025 C23.4375,60.0025 26.25,57.19 26.25,53.7525 L26.25,6.25 C26.25,2.8125 23.4375,0 20,0" id="path94"></path>
                            </g>
                            <g id="g96" transform="translate(4.677000, 0.108125)" fill="#FFFFFF">
                                <path d="M5,61.25 C4.63125,61.25 4.31875,60.9375 4.31875,60.5675 L4.31875,5.11125 C4.31875,4.7425 4.63125,4.43 5,4.43 L26.36375,4.43 C26.73375,4.43 27.04625,4.7425 27.04625,5.11125 L27.04625,60.5675 C27.04625,60.9375 26.73375,61.25 26.36375,61.25 L5,61.25 Z M26.36375,1.2475 L5,1.2475 C2.86875,1.2475 1.13625,2.98125 1.13625,5.11125 L1.13625,60.5675 C1.13625,62.69875 2.86875,64.4325 5,64.4325 L26.36375,64.4325 C28.495,64.4325 30.22875,62.69875 30.22875,60.5675 L30.22875,5.11125 C30.22875,2.98125 28.495,1.2475 26.36375,1.2475 L26.36375,1.2475 Z" id="path98"></path>
                            </g>
                            <g id="g100" transform="translate(41.838250, 2.946250)" fill="#EB0A26">
                                <path d="M22.5,0 L7.27125,0 C3.83375,0 1.02125,2.8125 1.02125,6.25 L1.02125,41.48 C1.02125,44.9175 3.83375,47.73 7.27125,47.73 L22.5,47.73 C25.9375,47.73 28.75,44.9175 28.75,41.48 L28.75,6.25 C28.75,2.8125 25.9375,0 22.5,0" id="path102"></path>
                            </g>
                            <g id="g104" transform="translate(40.132875, 0.335250)" fill="#FFFFFF">
                                <path d="M5,48.75 C4.63,48.75 4.31875,48.4375 4.31875,48.0675 L4.31875,4.88375 C4.31875,4.515 4.63,4.2025 5,4.2025 L28.1825,4.2025 C28.5525,4.2025 28.86375,4.515 28.86375,4.88375 L28.86375,48.0675 C28.86375,48.4375 28.5525,48.75 28.1825,48.75 L5,48.75 Z M28.1825,1.02 L5,1.02 C2.86875,1.02 1.13625,2.75375 1.13625,4.88375 L1.13625,48.0675 C1.13625,50.1975 2.86875,51.93125 5,51.93125 L28.1825,51.93125 C30.3125,51.93125 32.04625,50.1975 32.04625,48.0675 L32.04625,4.88375 C32.04625,2.75375 30.3125,1.02 28.1825,1.02 L28.1825,1.02 Z" id="path106"></path>
                            </g>
                            <polygon id="path108" fill="#FFFFFF" points="63.08875 39.53875 58.5425 39.53875 58.5425 44.085 63.08875 44.085"></polygon>
                            <polygon id="path110" fill="#FFFFFF" points="63.08875 29.31125 58.5425 29.31125 58.5425 33.8575 63.08875 33.8575"></polygon>
                            <polygon id="path112" fill="#FFFFFF" points="63.08875 19.765 58.5425 19.765 58.5425 24.31125 63.08875 24.31125"></polygon>
                            <polygon id="path114" fill="#FFFFFF" points="54.22375 39.53875 49.6775 39.53875 49.6775 44.085 54.22375 44.085"></polygon>
                            <polygon id="path116" fill="#FFFFFF" points="54.22375 29.31125 49.6775 29.31125 49.6775 33.8575 54.22375 33.8575"></polygon>
                            <polygon id="path118" fill="#FFFFFF" points="54.22375 19.765 49.6775 19.765 49.6775 24.31125 54.22375 24.31125"></polygon>
                            <polygon id="path120" fill="#FFFFFF" points="20.13125 47.94875 15.58625 47.94875 15.58625 52.495 20.13125 52.495"></polygon>
                            <polygon id="path122" fill="#FFFFFF" points="20.13125 38.8575 15.58625 38.8575 15.58625 43.40375 20.13125 43.40375"></polygon>
                            <polygon id="path124" fill="#FFFFFF" points="20.13125 30.22 15.58625 30.22 15.58625 34.76625 20.13125 34.76625"></polygon>
                            <polygon id="path126" fill="#FFFFFF" points="20.13125 21.13 15.58625 21.13 15.58625 25.675 20.13125 25.675"></polygon>
                            <path d="M15.81375,4.31125 L23.99625,4.31125 L23.99625,14.765 L15.81375,14.765 L15.81375,4.31125 Z M26.7225,1.5825 L13.08625,1.5825 L13.08625,17.49375 L26.7225,17.49375 L26.7225,1.5825 L26.7225,1.5825 Z" id="path128" fill="#FFFFFF"></path>
                            <polygon id="path130" fill="#FFFFFF" points="0.13125 0.675 77.86125 0.675 77.86125 4.31125 0.13125 4.31125"></polygon>
                        </g>
                    </g>
                </g>
            </g>
        </g>
    </g>
</svg>