<?xml version="1.0" encoding="UTF-8" standalone="no"?>
<!-- Created with Inkscape (http://www.inkscape.org/) -->

<svg
   xmlns:dc="http://purl.org/dc/elements/1.1/"
   xmlns:cc="http://creativecommons.org/ns#"
   xmlns:rdf="http://www.w3.org/1999/02/22-rdf-syntax-ns#"
   xmlns:svg="http://www.w3.org/2000/svg"
   xmlns="http://www.w3.org/2000/svg"
   xmlns:sodipodi="http://sodipodi.sourceforge.net/DTD/sodipodi-0.dtd"
   xmlns:inkscape="http://www.inkscape.org/namespaces/inkscape"
   id="svg2"
   version="1.1"
   inkscape:version="0.91 r13725"
   xml:space="preserve"
   width="28.223148"
   height="47.216705"
   viewBox="0 0 28.223148 47.216705"
   sodipodi:docname="Entergy_InteractiveWidget_20171129.pdf"><metadata
     id="metadata8"><rdf:RDF><cc:Work
         rdf:about=""><dc:format>image/svg+xml</dc:format><dc:type
           rdf:resource="http://purl.org/dc/dcmitype/StillImage" /><dc:title></dc:title></cc:Work></rdf:RDF></metadata><defs
     id="defs6" /><sodipodi:namedview
     pagecolor="#ffffff"
     bordercolor="#666666"
     borderopacity="1"
     objecttolerance="10"
     gridtolerance="10"
     guidetolerance="10"
     inkscape:pageopacity="0"
     inkscape:pageshadow="2"
     inkscape:window-width="1127"
     inkscape:window-height="688"
     id="namedview4"
     showgrid="false"
     inkscape:zoom="2"
     inkscape:cx="-26.134616"
     inkscape:cy="28.894086"
     inkscape:window-x="0"
     inkscape:window-y="0"
     inkscape:window-maximized="0"
     inkscape:current-layer="g10"
     fit-margin-top="0"
     fit-margin-left="0"
     fit-margin-right="0"
     fit-margin-bottom="0" /><g
     id="g10"
     inkscape:groupmode="layer"
     inkscape:label="Entergy_InteractiveWidget_20171129"
     transform="matrix(1.25,0,0,-1.25,-460.88833,196.43864)"><path
       inkscape:connector-curvature="0"
       id="path86"
       style="fill:#3497b6;fill-opacity:1;fill-rule:nonzero;stroke:none"
       d="m 374.7522,131.7793 c 0.257,1.427 -0.395,2.542 -1.15,3.672 -1.072,1.599 -2.326,3.068 -3.334,4.708 -2.893,4.698 -1.633,11.245 2.761,14.581 2.069,1.57 4.383,2.437 6.964,2.41 3.482,-0.038 6.411,-1.387 8.667,-4.068 1.902,-2.262 2.755,-4.908 2.614,-7.846 -0.103,-2.15 -0.794,-4.132 -2.071,-5.878 -1.29,-1.763 -2.582,-3.52 -3.728,-5.383 -0.226,-0.367 -0.333,-0.73 -0.322,-1.16 0.024,-0.824 -0.009,-1.649 0.014,-2.473 0.012,-0.394 -0.109,-0.535 -0.518,-0.532 -2.579,0.015 -5.158,0.011 -7.737,0.006 -0.518,-0.001 -1.037,-0.044 -1.555,-0.047 -0.569,-0.003 -0.603,0.039 -0.605,0.59 -0.002,0.474 0,0.947 0,1.42" /><path
       inkscape:connector-curvature="0"
       id="path90"
       style="fill:#3497b6;fill-opacity:1;fill-rule:nonzero;stroke:none"
       d="m 380.0032,124.0176 c 1.404,0 2.809,0.001 4.212,-0.001 0.539,-10e-4 0.592,-0.051 0.481,-0.583 -0.233,-1.125 -0.932,-1.833 -2.031,-2.124 -0.33,-0.087 -0.502,-0.234 -0.624,-0.559 -0.329,-0.871 -1.136,-1.379 -2.074,-1.373 -0.901,0.008 -1.7,0.531 -2.014,1.393 -0.122,0.337 -0.316,0.457 -0.636,0.546 -1.13,0.314 -1.825,1.044 -2.039,2.222 -0.068,0.378 0.058,0.487 0.421,0.484 1.435,-0.013 2.869,-0.005 4.304,-0.005" /><path
       inkscape:connector-curvature="0"
       id="path94"
       style="fill:#3497b6;fill-opacity:1;fill-rule:nonzero;stroke:none"
       d="m 379.9993,125.6992 c -1.345,0 -2.688,-0.003 -4.032,10e-4 -0.776,0.003 -1.303,0.465 -1.33,1.152 -0.028,0.701 0.5,1.263 1.277,1.268 2.718,0.017 5.437,0.017 8.154,10e-4 0.78,-0.004 1.297,-0.551 1.279,-1.263 -0.018,-0.692 -0.538,-1.155 -1.317,-1.158 -1.343,-0.004 -2.687,-10e-4 -4.031,-10e-4" /></g></svg>