<?xml version="1.0" encoding="UTF-8" standalone="no"?>
<!-- Created with Inkscape (http://www.inkscape.org/) -->

<svg
   xmlns:dc="http://purl.org/dc/elements/1.1/"
   xmlns:cc="http://creativecommons.org/ns#"
   xmlns:rdf="http://www.w3.org/1999/02/22-rdf-syntax-ns#"
   xmlns:svg="http://www.w3.org/2000/svg"
   xmlns="http://www.w3.org/2000/svg"
   xmlns:sodipodi="http://sodipodi.sourceforge.net/DTD/sodipodi-0.dtd"
   xmlns:inkscape="http://www.inkscape.org/namespaces/inkscape"
   id="svg2"
   version="1.1"
   inkscape:version="0.91 r13725"
   xml:space="preserve"
   width="173.55821"
   height="234.69826"
   viewBox="0 0 173.55821 234.69826"
   sodipodi:docname="Entergy_InteractiveWidget_20171129.pdf"><metadata
     id="metadata8"><rdf:RDF><cc:Work
         rdf:about=""><dc:format>image/svg+xml</dc:format><dc:type
           rdf:resource="http://purl.org/dc/dcmitype/StillImage" /><dc:title></dc:title></cc:Work></rdf:RDF></metadata><defs
     id="defs6"><clipPath
       clipPathUnits="userSpaceOnUse"
       id="clipPath162"><path
         d="m 460.08,83.9532 74.329,0 0,-24.3728 -74.329,0 0,24.3728 z"
         id="path164"
         inkscape:connector-curvature="0" /></clipPath><clipPath
       clipPathUnits="userSpaceOnUse"
       id="clipPath178"><path
         d="m 395.562,247.339 138.847,0 0,-96.884 -138.847,0 0,96.884 z"
         id="path180"
         inkscape:connector-curvature="0" /></clipPath></defs><sodipodi:namedview
     pagecolor="#ffffff"
     bordercolor="#666666"
     borderopacity="1"
     objecttolerance="10"
     gridtolerance="10"
     guidetolerance="10"
     inkscape:pageopacity="0"
     inkscape:pageshadow="2"
     inkscape:window-width="1127"
     inkscape:window-height="688"
     id="namedview4"
     showgrid="false"
     fit-margin-top="0"
     fit-margin-left="0"
     fit-margin-right="0"
     fit-margin-bottom="0"
     inkscape:zoom="0.5"
     inkscape:cx="-205.24629"
     inkscape:cy="58.11602"
     inkscape:window-x="0"
     inkscape:window-y="0"
     inkscape:window-maximized="0"
     inkscape:current-layer="g10" /><g
     id="g10"
     inkscape:groupmode="layer"
     inkscape:label="Entergy_InteractiveWidget_20171129"
     transform="matrix(1.25,0,0,-1.25,-494.4525,309.17375)"><g
       id="g166"><g
         style="opacity:0.69999701"
         id="g168"
         clip-path="url(#clipPath162)"><g
           id="g170"
           transform="translate(532.9592,62.5801)"><path
             inkscape:connector-curvature="0"
             id="path172"
             style="fill:#ffffff;fill-opacity:1;fill-rule:nonzero;stroke:none"
             d="m 0,0 -43.695,0 c -0.957,0 -1.916,0.017 -2.874,0 -0.962,-0.017 1.136,-0.967 0.17,-0.034 -2.444,2.358 -5.13,4.515 -7.678,6.759 L -70.272,20.98 c -1.445,1.272 -3.575,-0.842 -2.122,-2.121 5.632,-4.957 11.263,-9.915 16.895,-14.872 C -52.104,0.999 -49.352,-3 -44.695,-3 L 0,-3 c 1.931,0 1.934,3 0,3" /></g></g></g><g
       id="g182"><g
         style="opacity:0.69999701"
         id="g184"
         clip-path="url(#clipPath178)"><g
           id="g186"
           transform="translate(532.9592,246.9121)"><path
             inkscape:connector-curvature="0"
             id="path188"
             style="fill:#ffffff;fill-opacity:1;fill-rule:nonzero;stroke:none"
             d="m 0,0 -39.197,0 c -3.115,0 -9.043,1.21 -11.866,-0.443 -1.713,-1.003 -3.343,-3.634 -4.664,-5.07 -20.576,-22.372 -41.152,-44.743 -61.729,-67.115 -6.511,-7.079 -13.022,-14.158 -19.532,-21.236 -1.305,-1.419 0.811,-3.546 2.122,-2.122 16.116,17.523 32.232,35.046 48.349,52.568 9.857,10.718 19.714,21.435 29.571,32.151 2.235,2.43 5.679,5.08 7.325,7.964 0.722,1.265 0.441,0.316 -0.056,0.303 1.955,0.052 3.92,0 5.876,0 L 0,-3 c 1.931,0 1.934,3 0,3" /></g></g></g></g></svg>