<?xml version="1.0" encoding="UTF-8" standalone="no"?>
<!-- Created with Inkscape (http://www.inkscape.org/) -->

<svg
   xmlns:dc="http://purl.org/dc/elements/1.1/"
   xmlns:cc="http://creativecommons.org/ns#"
   xmlns:rdf="http://www.w3.org/1999/02/22-rdf-syntax-ns#"
   xmlns:svg="http://www.w3.org/2000/svg"
   xmlns="http://www.w3.org/2000/svg"
   xmlns:sodipodi="http://sodipodi.sourceforge.net/DTD/sodipodi-0.dtd"
   xmlns:inkscape="http://www.inkscape.org/namespaces/inkscape"
   id="svg2"
   version="1.1"
   inkscape:version="0.91 r13725"
   xml:space="preserve"
   width="134.51125"
   height="293.72919"
   viewBox="0 0 134.51125 293.72919"
   sodipodi:docname="Entergy_InteractiveWidget_20171129.pdf"><metadata
     id="metadata8"><rdf:RDF><cc:Work
         rdf:about=""><dc:format>image/svg+xml</dc:format><dc:type
           rdf:resource="http://purl.org/dc/dcmitype/StillImage" /><dc:title></dc:title></cc:Work></rdf:RDF></metadata><defs
     id="defs6" /><sodipodi:namedview
     pagecolor="#ffffff"
     bordercolor="#666666"
     borderopacity="1"
     objecttolerance="10"
     gridtolerance="10"
     guidetolerance="10"
     inkscape:pageopacity="0"
     inkscape:pageshadow="2"
     inkscape:window-width="1280"
     inkscape:window-height="751"
     id="namedview4"
     showgrid="false"
     fit-margin-top="0"
     fit-margin-left="0"
     fit-margin-right="0"
     fit-margin-bottom="0"
     inkscape:zoom="1.1866823"
     inkscape:cx="276.74412"
     inkscape:cy="102.51162"
     inkscape:window-x="0"
     inkscape:window-y="1"
     inkscape:window-maximized="1"
     inkscape:current-layer="g10" /><g
     id="g10"
     inkscape:groupmode="layer"
     inkscape:label="Entergy_InteractiveWidget_20171129"
     transform="matrix(1.25,0,0,-1.25,-198.25587,472.46755)"><path
       inkscape:connector-curvature="0"
       id="path40"
       style="fill:none;stroke:#ffffff;stroke-width:2;stroke-linecap:round;stroke-linejoin:miter;stroke-miterlimit:10;stroke-dasharray:none;stroke-opacity:1"
       d="m 212.4099,219.8711 0,0.025" /><path
       inkscape:connector-curvature="0"
       id="path44"
       style="fill:none;stroke:#ffffff;stroke-width:2;stroke-linecap:round;stroke-linejoin:miter;stroke-miterlimit:10;stroke-dasharray:0.05, 4.03;stroke-dashoffset:0;stroke-opacity:1"
       d="m 212.4099,223.9258 0,153.034" /><path
       inkscape:connector-curvature="0"
       id="path190"
       style="fill:#eb0a26;fill-opacity:1;fill-rule:nonzero;stroke:none"
       d="m 259.4099,153 -35,52 0.016,0 0,14.871 -24.032,0 0,-14.871 0.016,0 -35,-52 -3.805,0 0,-7.01 101.609,0 0,7.01 -3.804,0 z" /><path
       inkscape:connector-curvature="0"
       id="path202"
       style="fill:#eb0a26;fill-opacity:1;fill-rule:nonzero;stroke:none"
       d="m 261.9997,154.5137 c -11.666,17.334 -23.333,34.667 -35,52 -0.863,-1.504 -1.727,-3.009 -2.59,-4.514 l 0.016,0 c 1.621,0 3,1.374 3,3 l 0,14.871 c 0,1.622 -1.375,3 -3,3 l -24.031,0 c -1.623,0 -3,-1.374 -3,-3 l 0,-14.871 c 0,-1.622 1.374,-3 3,-3 l 0.015,0 c -0.864,1.505 -1.727,3.01 -2.591,4.514 -11.667,-17.333 -23.333,-34.666 -35,-52 0.864,0.496 1.727,0.991 2.591,1.486 l -3.805,0 c -1.622,0 -3,-1.374 -3,-3 l 0,-7.009 c 0,-1.623 1.374,-3 3,-3 l 88.787,0 12.822,0 c 1.622,0 3,1.374 3,3 l 0,7.009 c 0,1.622 -1.374,3 -3,3 l -3.804,0 c -3.861,0 -3.867,-6 0,-6 l 3.804,0 -3,3 0,-7.009 3,3 -88.785,0 -12.824,0 3,-3 0,7.009 -3,-3 c 2.589,0 4.677,-0.402 6.498,1.638 0.978,1.097 1.724,2.562 2.542,3.776 4.034,5.995 8.068,11.989 12.103,17.983 6.75,10.029 13.501,20.059 20.252,30.09 1.296,1.924 -0.426,4.513 -2.59,4.513 l -0.015,0 3,-3 0,14.871 -3,-3 24.031,0 -3,3 0,-14.871 3,3 -0.016,0 c -2.164,0 -3.887,-2.589 -2.591,-4.513 11.667,-17.334 23.333,-34.667 35,-52 2.145,-3.188 7.345,-0.188 5.181,3.027" /><path
       inkscape:connector-curvature="0"
       id="path206"
       style="fill:#ddd9d4;fill-opacity:1;fill-rule:nonzero;stroke:none"
       d="m 259.4099,153 -94,0 35,52 24,0 35,-52 z" /><path
       d="m 224.425,205 -24.031,0 0,14.871 24.031,0 0,-14.871 z"
       style="fill:#ddd9d4;fill-opacity:1;fill-rule:nonzero;stroke:none"
       id="path208"
       inkscape:connector-curvature="0" /><path
       d="m 263.214,145.99 -101.608,0 0,7.01 101.608,0 0,-7.01 z"
       style="fill:#3497b6;fill-opacity:1;fill-rule:nonzero;stroke:none"
       id="path210"
       inkscape:connector-curvature="0" /><path
       inkscape:connector-curvature="0"
       id="path214"
       style="fill:#ffffff;fill-opacity:1;fill-rule:nonzero;stroke:none"
       d="m 188.2849,153 -22.875,0 35,52 3,0 -15.125,-52 z" /><path
       d="m 203.41,205 -3.016,0 0,14.871 3.016,0 0,-14.871 z"
       style="fill:#ffffff;fill-opacity:1;fill-rule:nonzero;stroke:none"
       id="path216"
       inkscape:connector-curvature="0" /></g></svg>