<?xml version="1.0" encoding="UTF-8" standalone="no"?>
<!-- Created with Inkscape (http://www.inkscape.org/) -->

<svg
   xmlns:dc="http://purl.org/dc/elements/1.1/"
   xmlns:cc="http://creativecommons.org/ns#"
   xmlns:rdf="http://www.w3.org/1999/02/22-rdf-syntax-ns#"
   xmlns:svg="http://www.w3.org/2000/svg"
   xmlns="http://www.w3.org/2000/svg"
   xmlns:sodipodi="http://sodipodi.sourceforge.net/DTD/sodipodi-0.dtd"
   xmlns:inkscape="http://www.inkscape.org/namespaces/inkscape"
   id="svg2"
   version="1.1"
   inkscape:version="0.91 r13725"
   xml:space="preserve"
   width="123.63375"
   height="108.28438"
   viewBox="0 0 123.63375 108.28438"
   sodipodi:docname="Entergy_InteractiveWidget_20171129.pdf"><metadata
     id="metadata8"><rdf:RDF><cc:Work
         rdf:about=""><dc:format>image/svg+xml</dc:format><dc:type
           rdf:resource="http://purl.org/dc/dcmitype/StillImage" /><dc:title></dc:title></cc:Work></rdf:RDF></metadata><defs
     id="defs6"><clipPath
       clipPathUnits="userSpaceOnUse"
       id="clipPath134"><path
         d="M 0,450 760,450 760,0 0,0 0,450 Z"
         id="path136"
         inkscape:connector-curvature="0" /></clipPath><clipPath
       clipPathUnits="userSpaceOnUse"
       id="clipPath142"><path
         d="m 609.657,148.214 98.907,0 0,-86.6275 -98.907,0 0,86.6275 z"
         id="path144"
         inkscape:connector-curvature="0" /></clipPath></defs><sodipodi:namedview
     pagecolor="#ffffff"
     bordercolor="#666666"
     borderopacity="1"
     objecttolerance="10"
     gridtolerance="10"
     guidetolerance="10"
     inkscape:pageopacity="0"
     inkscape:pageshadow="2"
     inkscape:window-width="1280"
     inkscape:window-height="751"
     id="namedview4"
     showgrid="false"
     inkscape:zoom="0.83911111"
     inkscape:cx="-409.69226"
     inkscape:cy="2.1064583"
     inkscape:window-x="0"
     inkscape:window-y="1"
     inkscape:window-maximized="1"
     inkscape:current-layer="g10"
     fit-margin-top="0"
     fit-margin-left="0"
     fit-margin-right="0"
     fit-margin-bottom="0" /><g
     id="g10"
     inkscape:groupmode="layer"
     inkscape:label="Entergy_InteractiveWidget_20171129"
     transform="matrix(1.25,0,0,-1.25,-762.07125,185.2675)"><g
       id="g130"><g
         id="g132"
         clip-path="url(#clipPath134)"><g
           id="g138"><g
             id="g140" /><g
             id="g146"><g
               clip-path="url(#clipPath142)"
               id="g148"
               style="opacity:0.5"><g
                 transform="translate(664.0495,63.6445)"
                 id="g150"><path
                   d="m 0,0 0,64.663 0,9.172 c -0.686,-0.687 -1.372,-1.372 -2.058,-2.059 l 37.591,0 -2.058,2.059 0,-64.663 0,-9.172 c 0.686,0.686 1.372,1.372 2.058,2.058 l -37.591,0 c -2.648,0 -2.653,-4.116 0,-4.116 l 37.591,0 c 1.113,0 2.058,0.943 2.058,2.058 l 0,64.663 0,9.172 c 0,1.112 -0.943,2.058 -2.058,2.058 l -37.591,0 c -1.112,0 -2.057,-0.944 -2.057,-2.058 l 0,-64.663 0,-9.172 C -4.115,-2.648 0,-2.653 0,0"
                   style="fill:#aca29a;fill-opacity:1;fill-rule:nonzero;stroke:none"
                   id="path152"
                   inkscape:connector-curvature="0" /></g><path
                 d="m 693.958,123.598 -26.479,0 0,6.585 26.479,0 0,-6.585 z"
                 style="fill:#aca29a;fill-opacity:1;fill-rule:nonzero;stroke:none"
                 id="path154"
                 inkscape:connector-curvature="0" /><path
                 d="m 693.958,109.578 -26.479,0 0,6.586 26.479,0 0,-6.586 z"
                 style="fill:#aca29a;fill-opacity:1;fill-rule:nonzero;stroke:none"
                 id="path156"
                 inkscape:connector-curvature="0" /><path
                 d="m 693.958,96.159 -26.479,0 0,6.585 26.479,0 0,-6.585 z"
                 style="fill:#aca29a;fill-opacity:1;fill-rule:nonzero;stroke:none"
                 id="path158"
                 inkscape:connector-curvature="0" /><path
                 d="m 693.958,82.739 -26.479,0 0,6.586 26.479,0 0,-6.586 z"
                 style="fill:#aca29a;fill-opacity:1;fill-rule:nonzero;stroke:none"
                 id="path160"
                 inkscape:connector-curvature="0" /><path
                 d="m 687.784,139.399 6.859,0 0,4.973 -6.859,0 0,-4.973 z m 10.701,-3.84 -14.542,0 0,12.655 14.542,0 0,-12.655 z"
                 style="fill:#aca29a;fill-opacity:1;fill-rule:nonzero;stroke:none"
                 id="path162"
                 inkscape:connector-curvature="0" /><g
                 transform="translate(649.3698,63.6445)"
                 id="g164"><path
                   d="m 0,0 0,27.543 0,15.74 c 0,0.989 0.127,2.071 0,3.054 -0.194,1.512 -1.525,2.322 -2.592,3.285 -4.047,3.654 -8.095,7.309 -12.141,10.963 -0.883,0.797 -2.017,0.742 -2.911,0 -3.752,-3.116 -7.505,-6.231 -11.259,-9.348 -1.132,-0.939 -3.329,-2.131 -3.813,-3.633 -0.263,-0.819 -0.073,-1.951 -0.073,-2.784 l 0,-33.817 0,-11.003 c 0,-1.112 0.943,-2.058 2.058,-2.058 l 28.673,0 c 2.649,0 2.653,4.116 0,4.116 l -28.673,0 C -30.045,1.372 -29.359,0.686 -28.673,0 l 0,41.18 0,5.877 c -0.201,-0.485 -0.402,-0.97 -0.602,-1.455 4.846,4.024 9.694,8.048 14.542,12.073 l -2.911,0 c 4.71,-4.253 9.42,-8.506 14.131,-12.759 -0.201,0.484 -0.402,0.97 -0.602,1.455 L -4.115,0 C -4.115,-2.648 0,-2.653 0,0"
                   style="fill:#aca29a;fill-opacity:1;fill-rule:nonzero;stroke:none"
                   id="path166"
                   inkscape:connector-curvature="0" /></g><path
                 d="m 631.215,97.622 -7.408,0 0,7.408 7.408,0 0,-7.408 z"
                 style="fill:#aca29a;fill-opacity:1;fill-rule:nonzero;stroke:none"
                 id="path168"
                 inkscape:connector-curvature="0" /><path
                 d="m 642.922,97.622 -7.408,0 0,7.408 7.408,0 0,-7.408 z"
                 style="fill:#aca29a;fill-opacity:1;fill-rule:nonzero;stroke:none"
                 id="path170"
                 inkscape:connector-curvature="0" /><path
                 d="m 642.922,85.62 -7.408,0 0,7.409 7.408,0 0,-7.409 z"
                 style="fill:#aca29a;fill-opacity:1;fill-rule:nonzero;stroke:none"
                 id="path172"
                 inkscape:connector-curvature="0" /><path
                 d="m 631.215,85.62 -7.408,0 0,7.409 7.408,0 0,-7.409 z"
                 style="fill:#aca29a;fill-opacity:1;fill-rule:nonzero;stroke:none"
                 id="path174"
                 inkscape:connector-curvature="0" /><path
                 d="m 642.922,72.562 -7.408,0 0,7.409 7.408,0 0,-7.409 z"
                 style="fill:#aca29a;fill-opacity:1;fill-rule:nonzero;stroke:none"
                 id="path176"
                 inkscape:connector-curvature="0" /><path
                 d="m 631.215,72.562 -7.408,0 0,7.409 7.408,0 0,-7.409 z"
                 style="fill:#aca29a;fill-opacity:1;fill-rule:nonzero;stroke:none"
                 id="path178"
                 inkscape:connector-curvature="0" /><path
                 d="m 609.657,61.587 98.907,0 0,4.39 -98.907,0 0,-4.39 z"
                 style="fill:#aca29a;fill-opacity:1;fill-rule:nonzero;stroke:none"
                 id="path180"
                 inkscape:connector-curvature="0" /></g></g></g></g></g></g></svg>