<?xml version="1.0" encoding="UTF-8" standalone="no"?>
<!-- Generator: Adobe Illustrator 22.0.1, SVG Export Plug-In . SVG Version: 6.00 Build 0)  -->

<svg
   xmlns:dc="http://purl.org/dc/elements/1.1/"
   xmlns:cc="http://creativecommons.org/ns#"
   xmlns:rdf="http://www.w3.org/1999/02/22-rdf-syntax-ns#"
   xmlns:svg="http://www.w3.org/2000/svg"
   xmlns="http://www.w3.org/2000/svg"
   xmlns:sodipodi="http://sodipodi.sourceforge.net/DTD/sodipodi-0.dtd"
   xmlns:inkscape="http://www.inkscape.org/namespaces/inkscape"
   version="1.1"
   id="Layer_1"
   x="0px"
   y="0px"
   viewBox="0 0 67.742976 44.500001"
   xml:space="preserve"
   inkscape:version="0.91 r13725"
   sodipodi:docname="parking.svg"
   width="67.742973"
   height="44.5"><metadata
     id="metadata20"><rdf:RDF><cc:Work
         rdf:about=""><dc:format>image/svg+xml</dc:format><dc:type
           rdf:resource="http://purl.org/dc/dcmitype/StillImage" /><dc:title></dc:title></cc:Work></rdf:RDF></metadata><defs
     id="defs18" /><sodipodi:namedview
     pagecolor="#ffffff"
     bordercolor="#666666"
     borderopacity="1"
     objecttolerance="10"
     gridtolerance="10"
     guidetolerance="10"
     inkscape:pageopacity="0"
     inkscape:pageshadow="2"
     inkscape:window-width="737"
     inkscape:window-height="480"
     id="namedview16"
     showgrid="false"
     fit-margin-top="0"
     fit-margin-left="0"
     fit-margin-right="0"
     fit-margin-bottom="0"
     inkscape:zoom="3.570348"
     inkscape:cx="33.853749"
     inkscape:cy="22.250001"
     inkscape:window-x="0"
     inkscape:window-y="0"
     inkscape:window-maximized="0"
     inkscape:current-layer="Layer_1" /><style
     type="text/css"
     id="style3">
	.st0{fill:#000333;}
	.st1{fill:none;stroke:#FFFFFF;stroke-width:2;stroke-linecap:round;stroke-miterlimit:10;}
	.st2{fill:none;stroke:#FFFFFF;stroke-width:2;stroke-linecap:round;stroke-miterlimit:10;stroke-dasharray:5.037331e-02,4.0299;}
	.st3{fill:#EB0A26;}
	.st4{fill:#DDD9D4;}
	.st5{fill:#FFFFFF;}
	.st6{opacity:0.5;}
	.st7{clip-path:url(#SVGID_2_);}
	.st8{fill:#ACA29A;}
	.st9{fill:#3497B6;}
	.st10{fill:#ACA29A;stroke:#ACA29A;stroke-width:0.5;stroke-miterlimit:10;}
	.st11{clip-path:url(#SVGID_4_);}
	.st12{fill:#BAB0A8;}
	.st13{fill:none;stroke:#FFFFFF;stroke-miterlimit:10;}
	.st14{filter:url(#Adobe_OpacityMaskFilter);}
	.st15{mask:url(#SVGID_5_);}
	.st16{fill:#B5D2FF;}
	.st17{fill:#EB0A26;stroke:#FFFFFF;stroke-width:3;stroke-miterlimit:10;}
	.st18{opacity:0.7;}
	.st19{fill:#FFFFFF;stroke:#FFFFFF;stroke-width:0.5;stroke-miterlimit:10;}
	.st20{clip-path:url(#SVGID_7_);}
	.st21{clip-path:url(#SVGID_9_);}
	.st22{clip-path:url(#SVGID_11_);}
	.st23{fill:none;stroke:#FFFFFF;}
	.st24{fill:#EB0A26;stroke:#FFFFFF;}
</style><g
     id="XMLID_2_"
     transform="translate(-1.2462497,-10.8)"><g
       id="g6"><path
         class="st5"
         d="m 68.9,23.1 c 0.4,1.6 -0.6,2.3 -1.9,2.8 -3.8,1.6 -3.8,1.6 -0.8,4.5 1.4,1.4 2,2.9 2,4.8 -0.1,5.8 0,11.6 0,17.4 0,2.6 -0.1,2.7 -2.8,2.7 -2.2,0 -4.5,0 -6.7,0 -1.6,0 -2.3,-0.5 -2.3,-2.2 0.1,-4 0.1,-3.7 -3.8,-3.7 -11.9,0 -23.8,0 -35.6,0 -2.9,0 -2.9,0 -2.9,3 0,2.7 -0.2,2.9 -2.9,2.9 -2.2,0 -4.4,0 -6.7,0 -1.5,0 -2.2,-0.7 -2.2,-2.2 0,-6.3 0.1,-12.6 0,-18.9 0,-2.4 1.4,-3.7 3,-4.9 C 5.9,28.8 6.9,28.4 6.8,27.7 6.7,26.7 3.7,26.2 3.2,26 2,25.4 1,24.7 1.3,23.3 c 0.3,-1.4 1,-2.7 2.7,-2.7 1.8,0 3.6,-0.1 5.5,0 1.3,0 2.1,-0.5 2.4,-1.8 0.5,-1.7 1,-3.3 1.6,-5 0.7,-2.1 2.1,-3 4.3,-3 5.8,0.1 28.9,0.1 34.6,0 2.3,0 3.7,1 4.4,3.1 0.6,1.6 1.1,3.2 1.6,4.8 0.4,1.4 1.2,1.9 2.6,1.9 1.7,-0.1 3.3,0 5,0 1.7,-0.1 2.6,1 2.9,2.5 z m -7.3,15.8 c 1.7,-0.2 2.3,-1.3 2,-3.5 -0.2,-1.5 -1,-2.5 -2.7,-2.1 -2.7,0.6 -5.4,1.2 -8.1,1.8 -1.1,0.3 -2,0.9 -1.8,2.2 0.2,1.2 1.2,1.6 2.3,1.6 1.3,0 2.6,0 4,0 1.4,0 2.6,0 4,0 0,0.1 0.1,0 0.3,0 z M 53.2,25.1 c 3,0 3,-0.1 2.1,-3 -0.6,-1.9 -1.2,-3.7 -1.7,-5.6 -0.4,-1.3 -1.2,-1.9 -2.6,-1.9 -10.5,0 -21.1,0 -31.6,0 -1.2,0 -1.9,0.5 -2.3,1.7 -0.6,1.9 -1.3,3.8 -1.9,5.8 -1,3 -1,3 2.1,3 5.8,0 29.8,0 35.9,0 z M 19.4,37.2 C 19.5,35.8 18.5,35.3 17.3,35 14.7,34.4 12.1,33.9 9.5,33.4 8,33.1 7,33.5 6.8,35.2 c -0.3,2.5 0.3,3.6 2.1,3.7 1.4,0.1 2.8,0 4.2,0 0,0 0,0 0,0 1.2,0 2.4,0 3.6,0 1.4,0.1 2.6,-0.1 2.7,-1.7 z"
         id="path8"
         inkscape:connector-curvature="0"
         style="fill:#ffffff" /><path
         class="st3"
         d="m 63.5,35.5 c 0.3,2.2 -0.3,3.2 -2,3.5 -0.1,0 -0.3,0 -0.4,0 -1.3,0 -2.6,0 -4,0 -1.4,0 -2.6,0 -4,0 -1.1,0 -2.2,-0.4 -2.3,-1.6 -0.2,-1.2 0.7,-1.9 1.8,-2.2 2.7,-0.6 5.4,-1.2 8.1,-1.8 1.8,-0.4 2.6,0.5 2.8,2.1 z"
         id="path10"
         inkscape:connector-curvature="0"
         style="fill:#eb0a26" /><path
         class="st3"
         d="m 55.3,22.2 c 0.9,2.9 0.9,3 -2.1,3 -6.1,0 -30.1,0 -36.1,0 -3.1,0 -3.1,0 -2.1,-3 0.6,-1.9 1.3,-3.8 1.9,-5.8 0.4,-1.2 1.1,-1.7 2.3,-1.7 10.6,0 21.1,0 31.6,0 1.4,0 2.2,0.6 2.6,1.9 0.7,1.8 1.3,3.7 1.9,5.6 z"
         id="path12"
         inkscape:connector-curvature="0"
         style="fill:#eb0a26" /><path
         class="st3"
         d="m 17.4,35.1 c 1.2,0.2 2.2,0.8 2.1,2.2 -0.1,1.6 -1.4,1.7 -2.6,1.7 -1.2,0 -2.4,0 -3.6,0 0,0 0,0 0,0 -1.4,0 -2.8,0.1 -4.2,0 C 7.3,38.9 6.7,37.7 7,35.3 c 0.2,-1.7 1.2,-2.1 2.7,-1.8 2.5,0.5 5.1,1 7.7,1.6 z"
         id="path14"
         inkscape:connector-curvature="0"
         style="fill:#eb0a26" /></g></g></svg>