<?xml version="1.0" encoding="UTF-8" standalone="no"?>
<!-- Generator: Adobe Illustrator 22.0.1, SVG Export Plug-In . SVG Version: 6.00 Build 0)  -->

<svg
   xmlns:dc="http://purl.org/dc/elements/1.1/"
   xmlns:cc="http://creativecommons.org/ns#"
   xmlns:rdf="http://www.w3.org/1999/02/22-rdf-syntax-ns#"
   xmlns:svg="http://www.w3.org/2000/svg"
   xmlns="http://www.w3.org/2000/svg"
   xmlns:sodipodi="http://sodipodi.sourceforge.net/DTD/sodipodi-0.dtd"
   xmlns:inkscape="http://www.inkscape.org/namespaces/inkscape"
   version="1.1"
   id="Layer_1"
   x="0px"
   y="0px"
   viewBox="0 0 75.999999 61.000001"
   xml:space="preserve"
   inkscape:version="0.91 r13725"
   sodipodi:docname="pedestrian.svg"
   width="76"
   height="61"><metadata
     id="metadata25"><rdf:RDF><cc:Work
         rdf:about=""><dc:format>image/svg+xml</dc:format><dc:type
           rdf:resource="http://purl.org/dc/dcmitype/StillImage" /><dc:title></dc:title></cc:Work></rdf:RDF></metadata><defs
     id="defs23" /><sodipodi:namedview
     pagecolor="#ffffff"
     bordercolor="#666666"
     borderopacity="1"
     objecttolerance="10"
     gridtolerance="10"
     guidetolerance="10"
     inkscape:pageopacity="0"
     inkscape:pageshadow="2"
     inkscape:window-width="737"
     inkscape:window-height="480"
     id="namedview21"
     showgrid="false"
     fit-margin-top="0"
     fit-margin-left="0"
     fit-margin-right="0"
     fit-margin-bottom="0"
     inkscape:zoom="3.570348"
     inkscape:cx="38.050001"
     inkscape:cy="30.250001"
     inkscape:window-x="0"
     inkscape:window-y="0"
     inkscape:window-maximized="0"
     inkscape:current-layer="Layer_1" /><style
     type="text/css"
     id="style3">
	.st0{fill:#000333;}
	.st1{fill:none;stroke:#FFFFFF;stroke-width:2;stroke-linecap:round;stroke-miterlimit:10;}
	.st2{fill:none;stroke:#FFFFFF;stroke-width:2;stroke-linecap:round;stroke-miterlimit:10;stroke-dasharray:5.037331e-02,4.0299;}
	.st3{fill:#EB0A26;}
	.st4{fill:#DDD9D4;}
	.st5{fill:#FFFFFF;}
	.st6{opacity:0.5;}
	.st7{clip-path:url(#SVGID_2_);}
	.st8{fill:#ACA29A;}
	.st9{fill:#3497B6;}
	.st10{fill:#ACA29A;stroke:#ACA29A;stroke-width:0.5;stroke-miterlimit:10;}
	.st11{clip-path:url(#SVGID_4_);}
	.st12{fill:#BAB0A8;}
	.st13{fill:none;stroke:#FFFFFF;stroke-miterlimit:10;}
	.st14{filter:url(#Adobe_OpacityMaskFilter);}
	.st15{mask:url(#SVGID_5_);}
	.st16{fill:#B5D2FF;}
	.st17{fill:#EB0A26;stroke:#FFFFFF;stroke-width:3;stroke-miterlimit:10;}
	.st18{opacity:0.7;}
	.st19{fill:#FFFFFF;stroke:#FFFFFF;stroke-width:0.5;stroke-miterlimit:10;}
	.st20{clip-path:url(#SVGID_7_);}
	.st21{clip-path:url(#SVGID_9_);}
	.st22{clip-path:url(#SVGID_11_);}
	.st23{fill:none;stroke:#FFFFFF;}
	.st24{fill:#EB0A26;stroke:#FFFFFF;}
</style><g
     id="g5"
     transform="translate(-3.9,-2.3)"><path
       class="st24"
       d="m 47.5,21.6 c 0,3.2 0.5,6.1 0.9,9 0.4,3 0.3,6 0.3,9 0,1.2 0.3,2.2 0.9,3.2 2,3.1 3.6,6.3 5.9,9.4 1,1.4 -1.5,3.2 -2.6,2.1 -2.2,-2.1 -4.1,-4.9 -6.3,-7.4 -2.1,-2.4 -4.1,-4.7 -3.6,-8.3 -1.7,1.4 -3.4,2.7 -3.9,4.9 -0.7,3 -1.5,6 -2.3,9 -0.2,0.9 -0.2,2 -1,2.5 -0.7,0.5 -1.7,0.4 -2.4,-0.1 -0.9,-0.7 -0.4,-1.8 -0.3,-2.6 0.2,-2.7 0.7,-5.4 0.8,-8.2 0.1,-3.1 1.3,-5.7 2.9,-8.2 0.7,-1.2 1.4,-2.4 2.1,-3.7 -0.3,-1.4 -0.5,-2.8 -0.8,-4.4 -2.6,2.2 -5,4.3 -7.4,6.3 -0.8,0.6 -1.5,1 -2.5,0.5 -0.8,-0.4 -1.1,-1 -1.2,-1.8 -0.1,-0.8 0.2,-1.4 0.7,-1.9 0.4,-0.4 0.8,-0.8 1.3,-1.1 3.9,-2.5 5.8,-6.1 6.7,-10.6 0.9,-4.6 1.2,-4.6 5.8,-5 0.9,-0.1 1.8,-0.1 2.7,-0.3 1.1,-0.2 1.9,0.2 2.7,0.9 2.2,2.1 4.4,4.1 6.7,6.1 0.4,0.4 0.9,0.8 1,1.3 0.7,3 1.5,6 2.1,9 0.2,1.2 -0.4,2.1 -1.6,2.4 -1.3,0.3 -2.3,-0.2 -2.6,-1.5 -0.5,-1.8 -1,-3.7 -1.3,-5.5 -0.4,-2.1 -1.6,-3.6 -3.7,-5 z"
       id="path7"
       inkscape:connector-curvature="0"
       style="fill:#eb0a26;stroke:#ffffff" /><path
       class="st5"
       d="m 71.3,63.1 c -1.7,-7 -3.3,-13.9 -5,-20.9 2.4,0 4.4,0 6.7,0 2.3,6.9 4.6,13.8 6.9,20.9 -2.9,0 -5.7,0 -8.6,0 z"
       id="path9"
       inkscape:connector-curvature="0"
       style="fill:#ffffff" /><path
       class="st5"
       d="m 12.6,63.2 c -2.9,0 -5.7,0 -8.7,0 2.3,-7 4.6,-13.9 6.9,-20.9 2.2,0 4.3,0 6.7,0 -1.5,7 -3.2,13.8 -4.9,20.9 z"
       id="path11"
       inkscape:connector-curvature="0"
       style="fill:#ffffff" /><path
       class="st5"
       d="m 21,63.1 c 1.5,-7.1 2.9,-14 4.4,-20.9 2.2,0 4.1,0 6.3,0 -0.8,7 -1.6,13.9 -2.4,20.9 -2.7,0 -5.3,0 -8.3,0 z"
       id="path13"
       inkscape:connector-curvature="0"
       style="fill:#ffffff" /><path
       class="st5"
       d="M 37.8,63.1 C 37.2,55.7 39.6,43.4 42,42 c 0.3,2.2 1.9,3.5 3.1,5 0.4,0.5 0.5,1 0.5,1.6 0.2,4.8 0.4,9.5 0.6,14.5 -2.7,0 -5.5,0 -8.4,0 z"
       id="path15"
       inkscape:connector-curvature="0"
       style="fill:#ffffff" /><path
       class="st5"
       d="m 63.8,63.3 c -2.9,0 -5.4,0 -8,0 -0.4,-2.4 -0.7,-4.7 -1.1,-7.1 0.4,-0.8 0.9,-0.8 1.4,-1.1 1.6,-1.3 1.9,-2.4 0.9,-4.1 -0.8,-1.4 -1.6,-2.8 -2.6,-4.1 -0.9,-1.3 -1.2,-2.8 -1,-4.5 2,-0.3 3.9,-0.1 6.1,-0.1 1.4,6.9 2.8,13.8 4.3,21 z"
       id="path17"
       inkscape:connector-curvature="0"
       style="fill:#ffffff" /><path
       class="st24"
       d="m 40.6,12.6 c -2.7,0 -5,-2.3 -4.9,-5 0.1,-2.6 2.3,-4.7 5,-4.8 2.7,0 5,2.2 5,4.9 -0.1,2.8 -2.3,5 -5.1,4.9 z"
       id="path19"
       inkscape:connector-curvature="0"
       style="fill:#eb0a26;stroke:#ffffff" /></g></svg>