<?xml version="1.0" encoding="UTF-8"?>
<svg width="136px" height="325px" viewBox="0 0 136 325" version="1.1" xmlns="http://www.w3.org/2000/svg" xmlns:xlink="http://www.w3.org/1999/xlink">
    <!-- Generator: Sketch 47.1 (45422) - http://www.bohemiancoding.com/sketch -->
    <desc>Created with Sketch.</desc>
    <defs>
        <polygon id="path-1" points="135.80125 0 0.80125 0 0.80125 324.14625 135.80125 324.14625"></polygon>
    </defs>
    <g id="Page-1" stroke="none" stroke-width="1" fill="none" fill-rule="evenodd" opacity="0.5">
        <g id="Entergy_InteractiveWidget_20171129" transform="translate(-774.000000, -239.000000)">
            <g id="g10" transform="translate(475.000000, 282.000000) scale(-1, 1) rotate(-180.000000) translate(-475.000000, -282.000000) translate(0.000000, 0.500000)">
                <g id="g22">
                    <g id="g24-Clipped">
                        <g id="g24" transform="translate(773.750000, -182.500000)">
                            <g id="g30">
                                <g id="g42">
                                    <g id="g44-Clipped">
                                        <g id="g44" transform="translate(0.000000, 182.500000)">
                                            <g id="g46">
                                                <g id="g48-Clipped">
                                                    <mask id="mask-2" fill="white">
                                                        <use xlink:href="#path-1"></use>
                                                    </mask>
                                                    <g id="path40"></g>
                                                    <g id="g48" mask="url(#mask-2)">
                                                        <g transform="translate(0.000000, -183.750000)">
                                                            <g id="g50" transform="translate(49.492750, 387.259500)">
                                                                <path d="M2.5,62.5 C3.14125,63.94375 3.30125,65.62875 3.30125,66.59125 C10.1075,68.91875 25.40125,69.56 32.8475,69.56 C33.48875,69.56 42.69625,68.91875 48.3025,68.11625 C53.66625,67.315 59.8325,65.0675 61.35375,64.425 C61.51375,63.46375 61.35375,60.65375 61.11375,58.2475 C59.9925,55.0375 44.85875,11.14875 43.3375,6.25375 C42.61625,4.0075 41.81625,3.365 41.495,3.205 C41.255,3.045 41.015,3.125 41.015,3.125 L40.775,3.285 L10.4275,3.285 C9.8675,3.285 9.46625,3.44625 9.14625,3.7675 C8.42625,4.48875 8.345,5.85375 8.345,6.33375 L8.345,6.415 L4.3425,42.52125 C3.06125,51.2675 2.02,61.13625 2.5,62.5 M1.94,42.12 L5.94375,6.17375 C5.94375,5.6125 6.02375,3.44625 7.465,2.0025 C8.265,1.19875 9.30625,0.79875 10.4275,0.79875 L40.21375,0.79875 C40.455,0.7175 40.775,0.6375 41.095,0.6375 C41.495,0.6375 41.89625,0.7175 42.37625,0.87875 C43.7375,1.44 44.85875,3.045 45.57875,5.45125 C47.10125,10.42625 63.195,57.04375 63.35625,57.52625 L63.43625,57.76625 C64.31625,65.38875 63.43625,65.87 62.875,66.27125 C61.83375,66.9125 54.5475,69.56 48.62125,70.4425 C42.69625,71.32625 33.0075,71.8875 32.9275,71.8875 L32.8475,71.8875 C31.88625,71.8875 9.9475,71.8875 1.61875,68.5175 L0.81875,68.1975 L0.89875,67.315 C0.89875,67.315 1.05875,65.1475 0.33875,63.3825 C-0.6225,61.29625 1.13875,47.81625 1.94,42.12" id="path52" fill="#ACA29A" fill-rule="nonzero"></path>
                                                            </g>
                                                            <g id="g54" transform="translate(0.105625, 0.599375)">
                                                                <path d="M126.25,462.5 L41.775,466.565 L58.9425,483.46375 L79.72125,483.46375 L80.92375,483.46375 L83.65125,483.46375 L126.25,462.5 Z M133.39,458.9925 L133.22875,458.9925 C131.22375,458.9925 122.88125,459.55125 121.6775,459.63 L121.6775,459.71 L39.77,462.8975 L39.85,464.2525 L131.545,459.87 L133.39,458.9925 L133.39,458.9925 Z M94.40125,383.98375 L54.77125,383.50625 L45.145,460.3475 L119.7525,457.4775 L94.40125,383.98375 Z M55.57375,381.115 L76.27125,381.3525 L75.46875,364.295 C73.30375,364.055 68.00875,363.4975 64.63875,363.4975 C61.27,363.4975 57.65875,363.97625 56.055,364.215 L55.57375,381.115 Z M78.7575,360.7075 C78.6775,360.5475 78.3575,360.07 77.23375,359.67125 C74.7475,358.95375 70.575,358.635 64.63875,358.635 C57.9,358.635 53.96875,359.2725 52.12375,359.51125 C50.92125,359.67125 50.76,360.30875 50.76,360.9475 C50.76,361.18625 50.84,361.345 51.00125,361.505 C51.24125,361.745 52.12375,362.22125 54.77125,361.9025 C56.45625,361.425 61.35,360.9475 64.63875,360.9475 C68.97125,360.9475 75.87,361.82375 76.7525,361.9025 C78.5975,361.98375 78.7575,361.345 78.7575,360.7075 L78.7575,360.7075 Z M50.84,381.4325 L53.1675,381.19375 L53.3275,376.49 L50.84,381.4325 L50.84,381.4325 Z M36.9625,385.4975 L35.83875,389.165 L42.7375,388.6075 L47.9525,388.12875 C48.19375,388.04875 48.67375,387.89 49.15625,387.89 C49.5575,387.89 50.03875,387.96875 50.44,388.28875 C50.92125,388.6075 51.4825,389.245 51.4825,390.44125 C51.4825,390.59875 51.4825,390.9175 51.4025,391.4775 L52.365,383.665 L36.9625,385.4975 L36.9625,385.4975 Z M19.3125,449.905 C20.27625,452.535 23.16375,454.21 28.69875,455.245 C32.87,456.0425 38.64625,453.4125 40.25125,452.61625 L42.09625,446.15875 L44.4225,429.5 C46.2675,414.5925 49.07625,391.95375 49.07625,390.52 L49.07625,390.36 C48.995,390.36 48.835,390.44125 48.755,390.44125 L48.59375,390.52 L36.9625,391.55625 L19.3125,449.905 L19.3125,449.905 Z M16.90625,450.30375 L14.98125,456.52125 L12.735,456.76 L39.28875,460.5875 L42.81875,460.4275 L44.98375,443.28875 L44.50375,446.5575 L42.25625,454.29 L41.775,454.52875 C41.455,454.6875 33.83375,458.6725 28.1375,457.5575 C23.645,456.76 18.35,455.16625 16.90625,450.30375 L16.90625,450.30375 Z M37.44375,463.855 L37.36375,462.73875 L17.1475,459.79 L37.44375,463.855 Z M48.67375,481.87 L54.53125,483.305 L54.53125,483.54375 L55.49375,483.54375 L38.085,466.405 L9.92625,460.74625 C19.3125,466.0075 36.24,475.17375 48.67375,481.87 L48.67375,481.87 Z M54.53125,501.63875 L79.72125,501.55875 L79.72125,485.85625 L54.53125,485.85625 L54.53125,501.63875 Z M61.51,505.06625 L72.74125,505.06625 L74.26625,504.03 L59.745,504.03 L61.51,505.06625 Z M96.00625,381.4325 L122.15875,457.07875 C124.64625,456.92 131.22375,456.44125 133.07,456.44125 C134.4325,456.44125 135.075,457 135.395,457.5575 C136.0375,458.6725 135.47625,460.0275 135.315,460.2675 L135.155,460.5875 L84.29375,485.85625 L82.2075,485.85625 L82.2075,504.03 L77.715,504.5875 L73.54375,507.2975 L60.86875,507.2975 L56.45625,504.7475 L52.12375,503.95 L52.12375,485.05875 L47.9525,484.0225 L47.63125,483.94125 C34.07375,476.68875 2.54625,459.71 1.3425,458.275 C0.54125,457.3175 0.62125,456.60125 0.86125,456.1225 C1.3425,455.16625 2.62625,455.08625 3.1075,455.08625 L13.055,454.21 L35.1175,383.26625 L47.9525,381.75125 L53.4075,370.67125 L53.5675,364.45375 C51.5625,364.53375 50.11875,364.215 49.23625,363.4175 C48.59375,362.86 48.19375,362.0625 48.19375,361.02625 C48.19375,359.11375 49.39625,357.67875 51.3225,357.28 C51.7225,356.5625 52.445,356.08375 53.3275,355.68625 L53.3275,7.74375 L53.3275,7.58375 C53.3275,7.58375 53.72875,4.55625 51.7225,2.80125 L53.3275,1.0475 C56.055,3.43875 55.81375,7.185 55.73375,7.82375 L55.73375,355.12875 C57.98,354.72875 60.94875,354.72875 64.0775,354.72875 L64.71875,354.72875 L65.68125,354.72875 C68.00875,354.72875 72.02,354.88875 74.9875,355.60625 L74.9875,7.82375 L74.9875,7.74375 C74.9875,7.58375 75.30875,4.475 77.315,2.005 L79.16,3.51875 C77.715,5.2725 77.395,7.505 77.395,7.82375 L77.395,356.5625 C77.555,356.7225 77.795,356.80125 77.95625,356.96125 C78.19625,357.20125 78.2775,357.43875 78.4375,357.67875 C80.76375,358.635 81.005,360.23 81.005,360.46875 L81.005,360.6275 L81.005,360.7075 C80.92375,363.17875 79.24,364.055 77.795,364.295 L78.5975,381.3525 L96.00625,381.4325 Z" id="path56" fill="#ACA29A" fill-rule="nonzero"></path>
                                                            </g>
                                                        </g>
                                                    </g>
                                                </g>
                                            </g>
                                        </g>
                                    </g>
                                </g>
                            </g>
                        </g>
                    </g>
                </g>
            </g>
        </g>
    </g>
</svg>