<?xml version="1.0" encoding="UTF-8"?>
<svg width="152px" height="244px" viewBox="0 0 152 244" version="1.1" xmlns="http://www.w3.org/2000/svg" xmlns:xlink="http://www.w3.org/1999/xlink">
    <!-- Generator: Sketch 47.1 (45422) - http://www.bohemiancoding.com/sketch -->
    <desc>Created with Sketch.</desc>
    <defs>
        <polygon id="path-1" points="0.85375 247.90875 151.51 247.90875 151.51 0.9375 0.85375 0.9375"></polygon>
    </defs>
    <g id="Page-1" stroke="none" stroke-width="1" fill="none" fill-rule="evenodd">
        <g id="Entergy_InteractiveWidget_20171129" transform="translate(-70.000000, -320.000000)">
            <g id="g10" transform="translate(475.000000, 282.000000) scale(-1, 1) rotate(-180.000000) translate(-475.000000, -282.000000) translate(0.000000, 0.500000)">
                <g id="g22">
                    <g id="g66-Clipped">
                        <g id="g66" transform="translate(70.000000, -5.000000)">
                            <g id="g72">
                                <g id="g80">
                                    <g id="g82-Clipped">
                                        <mask id="mask-2" fill="white">
                                            <use xlink:href="#path-1"></use>
                                        </mask>
                                        <g id="path78"></g>
                                        <g id="g82" opacity="0.5" mask="url(#mask-2)">
                                            <g id="g84" transform="translate(30.766000, 207.120375)" fill-rule="nonzero" fill="#ACA29A">
                                                <path d="M1.25,32.5 L63.14,38.24625 L71.98,39.06625 C71.745,39.30125 71.51125,39.53625 71.27625,39.77 L71.27625,3.935 C71.51125,4.17125 71.745,4.405 71.98,4.64 C51.37875,3.875 30.7775,3.10875 10.17625,2.345 C7.20125,2.23375 4.225,2.12375 1.25,2.0125 C1.48375,1.77875 1.71875,1.54375 1.95375,1.31 L1.95375,33.20375 C1.95375,34.10875 0.54625,34.11125 0.54625,33.20375 L0.54625,1.31 C0.54625,0.94 0.86875,0.5925 1.25,0.605 C21.85125,1.37125 42.4525,2.13625 63.05375,2.90125 C66.03,3.01125 69.005,3.1225 71.98,3.2325 C72.36,3.2475 72.68375,3.54375 72.68375,3.935 L72.68375,39.77 C72.68375,40.125 72.36,40.50875 71.98,40.47375 L10.09,34.7275 L1.25,33.9075 C0.35625,33.825 0.3475,32.4175 1.25,32.5" id="path86"></path>
                                            </g>
                                            <g id="g88" transform="translate(30.766000, 207.120375)" stroke="#ACA29A" stroke-width="0.625">
                                                <path d="M1.25,32.5 L63.14,38.24625 L71.98,39.06625 C71.745,39.30125 71.51125,39.53625 71.27625,39.77 L71.27625,3.935 C71.51125,4.17125 71.745,4.405 71.98,4.64 C51.37875,3.875 30.7775,3.10875 10.17625,2.345 C7.20125,2.23375 4.225,2.12375 1.25,2.0125 C1.48375,1.77875 1.71875,1.54375 1.95375,1.31 L1.95375,33.20375 C1.95375,34.10875 0.54625,34.11125 0.54625,33.20375 L0.54625,1.31 C0.54625,0.94 0.86875,0.5925 1.25,0.605 C21.85125,1.37125 42.4525,2.13625 63.05375,2.90125 C66.03,3.01125 69.005,3.1225 71.98,3.2325 C72.36,3.2475 72.68375,3.54375 72.68375,3.935 L72.68375,39.77 C72.68375,40.125 72.36,40.50875 71.98,40.47375 L10.09,34.7275 L1.25,33.9075 C0.35625,33.825 0.3475,32.4175 1.25,32.5 Z" id="path90"></path>
                                            </g>
                                            <g id="g92" transform="translate(101.040000, 206.012000)" fill-rule="nonzero" fill="#ACA29A">
                                                <path d="M48.75,33.75 L48.75,1.385 C48.98375,1.62125 49.21875,1.855 49.45375,2.09 C33.5375,3.30875 17.6225,4.52875 1.70625,5.74875 C1.94125,5.51375 2.175,5.28 2.41,5.04375 L2.41,40.87875 C2.1125,40.6525 1.81625,40.42625 1.51875,40.2 C15.4475,38.12 29.375,36.04125 43.30375,33.96125 C45.29125,33.665 47.27875,33.3675 49.2675,33.07125 C50.1525,32.93875 50.535,34.295 49.64,34.4275 C35.7125,36.5075 21.785,38.5875 7.85625,40.66625 C5.86875,40.96375 3.88,41.26 1.89375,41.5575 C1.45,41.62375 1.0025,41.38 1.0025,40.87875 L1.0025,5.04375 C1.0025,4.6425 1.32625,4.37 1.70625,4.34125 C17.6225,3.12125 33.5375,1.90125 49.45375,0.6825 C49.83375,0.6525 50.1575,1.02875 50.1575,1.385 L50.1575,33.75 C50.1575,34.655 48.75,34.65625 48.75,33.75" id="path94"></path>
                                            </g>
                                            <g id="g96" transform="translate(101.040000, 206.012000)" stroke="#ACA29A" stroke-width="0.625">
                                                <path d="M48.75,33.75 L48.75,1.385 C48.98375,1.62125 49.21875,1.855 49.45375,2.09 C33.5375,3.30875 17.6225,4.52875 1.70625,5.74875 C1.94125,5.51375 2.175,5.28 2.41,5.04375 L2.41,40.87875 C2.1125,40.6525 1.81625,40.42625 1.51875,40.2 C15.4475,38.12 29.375,36.04125 43.30375,33.96125 C45.29125,33.665 47.27875,33.3675 49.2675,33.07125 C50.1525,32.93875 50.535,34.295 49.64,34.4275 C35.7125,36.5075 21.785,38.5875 7.85625,40.66625 C5.86875,40.96375 3.88,41.26 1.89375,41.5575 C1.45,41.62375 1.0025,41.38 1.0025,40.87875 L1.0025,5.04375 C1.0025,4.6425 1.32625,4.37 1.70625,4.34125 C17.6225,3.12125 33.5375,1.90125 49.45375,0.6825 C49.83375,0.6525 50.1575,1.02875 50.1575,1.385 L50.1575,33.75 C50.1575,34.655 48.75,34.65625 48.75,33.75 Z" id="path98"></path>
                                            </g>
                                            <g id="g100" transform="translate(102.042875, 202.305875)" fill-rule="nonzero" fill="#ACA29A">
                                                <path d="M0,8.75 L0,4.52875 C0,4.13 0.3225,3.85125 0.7025,3.82625 C16.18125,2.7625 31.66,1.69875 47.1375,0.63625 C47.5175,0.61 47.84125,0.98 47.84125,1.34 L47.84125,5.1925 C47.84125,5.595 47.5175,5.86625 47.1375,5.89625 C31.66,7.0825 16.18125,8.2675 0.7025,9.45375 C-0.2,9.52375 -0.195,8.11625 0.7025,8.0475 C16.18125,6.86125 31.66,5.675 47.1375,4.49 L46.43375,5.1925 L46.43375,1.34 L47.1375,2.04375 C31.66,3.10625 16.18125,4.17 0.7025,5.23375 C0.9375,4.99875 1.1725,4.765 1.40625,4.52875 L1.40625,8.75 C1.40625,9.65625 0,9.6575 0,8.75" id="path102"></path>
                                            </g>
                                            <g id="g104" transform="translate(102.042875, 202.305875)" stroke="#ACA29A" stroke-width="0.625">
                                                <path d="M0,8.75 L0,4.52875 C0,4.13 0.3225,3.85125 0.7025,3.82625 C16.18125,2.7625 31.66,1.69875 47.1375,0.63625 C47.5175,0.61 47.84125,0.98 47.84125,1.34 L47.84125,5.1925 C47.84125,5.595 47.5175,5.86625 47.1375,5.89625 C31.66,7.0825 16.18125,8.2675 0.7025,9.45375 C-0.2,9.52375 -0.195,8.11625 0.7025,8.0475 C16.18125,6.86125 31.66,5.675 47.1375,4.49 L46.43375,5.1925 L46.43375,1.34 L47.1375,2.04375 C31.66,3.10625 16.18125,4.17 0.7025,5.23375 C0.9375,4.99875 1.1725,4.765 1.40625,4.52875 L1.40625,8.75 C1.40625,9.65625 0,9.6575 0,8.75 Z" id="path106"></path>
                                            </g>
                                            <g id="g108" transform="translate(102.042875, 196.834750)" fill-rule="nonzero" fill="#ACA29A">
                                                <path d="M0,10 L0,4.185 C0,3.7875 0.3225,3.5025 0.7025,3.48125 C16.61875,2.575 32.535,1.6675 48.45125,0.76 C48.83,0.73875 49.155,1.1 49.155,1.46375 L49.155,6.81125 C49.155,7.21125 48.83125,7.48875 48.45125,7.515 C32.535,8.5775 16.61875,9.64125 0.7025,10.70375 C-0.20125,10.76375 -0.1975,9.35625 0.7025,9.2975 C16.61875,8.23375 32.535,7.17 48.45125,6.1075 C48.21625,6.34125 47.98125,6.5775 47.7475,6.81125 L47.7475,1.46375 C47.98125,1.6975 48.21625,1.93375 48.45125,2.1675 C32.535,3.075 16.61875,3.98125 0.7025,4.8875 C0.9375,4.65375 1.1725,4.41875 1.40625,4.185 L1.40625,10 C1.40625,10.90625 0,10.9075 0,10" id="path110"></path>
                                            </g>
                                            <g id="g112" transform="translate(102.042875, 196.834750)" stroke="#ACA29A" stroke-width="0.625">
                                                <path d="M0,10 L0,4.185 C0,3.7875 0.3225,3.5025 0.7025,3.48125 C16.61875,2.575 32.535,1.6675 48.45125,0.76 C48.83,0.73875 49.155,1.1 49.155,1.46375 L49.155,6.81125 C49.155,7.21125 48.83125,7.48875 48.45125,7.515 C32.535,8.5775 16.61875,9.64125 0.7025,10.70375 C-0.20125,10.76375 -0.1975,9.35625 0.7025,9.2975 C16.61875,8.23375 32.535,7.17 48.45125,6.1075 C48.21625,6.34125 47.98125,6.5775 47.7475,6.81125 L47.7475,1.46375 C47.98125,1.6975 48.21625,1.93375 48.45125,2.1675 C32.535,3.075 16.61875,3.98125 0.7025,4.8875 C0.9375,4.65375 1.1725,4.41875 1.40625,4.185 L1.40625,10 C1.40625,10.90625 0,10.9075 0,10 Z" id="path114"></path>
                                            </g>
                                            <g id="g116" transform="translate(30.792875, 202.305875)" fill-rule="nonzero" fill="#ACA29A">
                                                <path d="M71.25,8.75 L71.25,4.52875 C71.48375,4.765 71.71875,4.99875 71.9525,5.23375 C51.3525,4.30375 30.75125,3.375 10.14875,2.44625 C7.17375,2.3125 4.19875,2.1775 1.22375,2.04375 C1.4575,1.80875 1.6925,1.575 1.9275,1.34 L1.9275,6.12375 C1.6925,5.89 1.4575,5.655 1.22375,5.42 C21.82375,6.185 42.425,6.95125 63.0275,7.71625 C66.0025,7.82625 68.9775,7.9375 71.9525,8.0475 C72.85625,8.08125 72.86,9.4875 71.9525,9.45375 C51.3525,8.68875 30.75125,7.92375 10.14875,7.16 C7.17375,7.04875 4.19875,6.93875 1.22375,6.8275 C0.8425,6.81375 0.52,6.51625 0.52,6.12375 L0.52,1.34 C0.52,0.97125 0.8425,0.61875 1.22375,0.63625 C21.82375,1.565 42.425,2.49375 63.0275,3.4225 C66.0025,3.5575 68.9775,3.69125 71.9525,3.82625 C72.33375,3.8425 72.65625,4.135 72.65625,4.52875 L72.65625,8.75 C72.65625,9.65625 71.25,9.6575 71.25,8.75" id="path118"></path>
                                            </g>
                                            <g id="g120" transform="translate(30.792875, 202.305875)" stroke="#ACA29A" stroke-width="0.625">
                                                <path d="M71.25,8.75 L71.25,4.52875 C71.48375,4.765 71.71875,4.99875 71.9525,5.23375 C51.3525,4.30375 30.75125,3.375 10.14875,2.44625 C7.17375,2.3125 4.19875,2.1775 1.22375,2.04375 C1.4575,1.80875 1.6925,1.575 1.9275,1.34 L1.9275,6.12375 C1.6925,5.89 1.4575,5.655 1.22375,5.42 C21.82375,6.185 42.425,6.95125 63.0275,7.71625 C66.0025,7.82625 68.9775,7.9375 71.9525,8.0475 C72.85625,8.08125 72.86,9.4875 71.9525,9.45375 C51.3525,8.68875 30.75125,7.92375 10.14875,7.16 C7.17375,7.04875 4.19875,6.93875 1.22375,6.8275 C0.8425,6.81375 0.52,6.51625 0.52,6.12375 L0.52,1.34 C0.52,0.97125 0.8425,0.61875 1.22375,0.63625 C21.82375,1.565 42.425,2.49375 63.0275,3.4225 C66.0025,3.5575 68.9775,3.69125 71.9525,3.82625 C72.33375,3.8425 72.65625,4.135 72.65625,4.52875 L72.65625,8.75 C72.65625,9.65625 71.25,9.6575 71.25,8.75 Z" id="path122"></path>
                                            </g>
                                            <g id="g124" transform="translate(30.792875, 196.834750)" fill-rule="nonzero" fill="#ACA29A">
                                                <path d="M71.25,10 L71.25,4.185 L71.9525,4.8875 C51.3525,3.95875 30.75125,3.03 10.14875,2.10125 C7.17375,1.96625 4.19875,1.8325 1.22375,1.6975 C1.4575,1.46375 1.6925,1.22875 1.9275,0.995 L1.9275,6.81125 C1.6925,6.5775 1.4575,6.34125 1.22375,6.1075 C21.82375,7.03625 42.425,7.965 63.0275,8.89375 C66.0025,9.02875 68.9775,9.1625 71.9525,9.2975 C72.855,9.3375 72.86,10.745 71.9525,10.70375 C51.3525,9.775 30.75125,8.84625 10.14875,7.9175 C7.17375,7.78375 4.19875,7.64875 1.22375,7.515 C0.8425,7.4975 0.52,7.20625 0.52,6.81125 L0.52,0.995 C0.52,0.6275 0.8425,0.275 1.22375,0.29125 C21.82375,1.22125 42.425,2.15 63.0275,3.07875 C66.0025,3.2125 68.9775,3.3475 71.9525,3.48125 C72.33375,3.49875 72.65625,3.78875 72.65625,4.185 L72.65625,10 C72.65625,10.90625 71.25,10.9075 71.25,10" id="path126"></path>
                                            </g>
                                            <g id="g128" transform="translate(30.792875, 196.834750)" stroke="#ACA29A" stroke-width="0.625">
                                                <path d="M71.25,10 L71.25,4.185 L71.9525,4.8875 C51.3525,3.95875 30.75125,3.03 10.14875,2.10125 C7.17375,1.96625 4.19875,1.8325 1.22375,1.6975 C1.4575,1.46375 1.6925,1.22875 1.9275,0.995 L1.9275,6.81125 C1.6925,6.5775 1.4575,6.34125 1.22375,6.1075 C21.82375,7.03625 42.425,7.965 63.0275,8.89375 C66.0025,9.02875 68.9775,9.1625 71.9525,9.2975 C72.855,9.3375 72.86,10.745 71.9525,10.70375 C51.3525,9.775 30.75125,8.84625 10.14875,7.9175 C7.17375,7.78375 4.19875,7.64875 1.22375,7.515 C0.8425,7.4975 0.52,7.20625 0.52,6.81125 L0.52,0.995 C0.52,0.6275 0.8425,0.275 1.22375,0.29125 C21.82375,1.22125 42.425,2.15 63.0275,3.07875 C66.0025,3.2125 68.9775,3.3475 71.9525,3.48125 C72.33375,3.49875 72.65625,3.78875 72.65625,4.185 L72.65625,10 C72.65625,10.90625 71.25,10.9075 71.25,10 Z" id="path130"></path>
                                            </g>
                                            <g id="g132" transform="translate(54.915125, 182.341250)" fill-rule="nonzero" fill="#ACA29A">
                                                <path d="M1.25,16.25 C4.29875,11.10375 10.015,7.20375 15.30375,4.75625 C25.8575,-0.1275 38.47625,-0.99625 49.51375,2.72125 C57.92125,5.5525 65.275,10.65 71.545,16.8575 C71.99875,17.30625 71.64125,18.025 71.0475,18.05875 C63.0925,18.5125 54.93125,19.5925 46.96875,19.3425 C35.9025,18.99625 24.8375,18.345 13.77625,17.845 C9.80375,17.6675 5.83125,17.4875 1.8575,17.30875 C0.95625,17.2675 0.95125,15.86 1.8575,15.90125 C11.4625,16.33375 21.06875,16.7675 30.67375,17.20125 C38.50375,17.55375 46.19875,18.0675 54.0175,17.6225 L71.0475,16.65125 C70.8825,17.0525 70.71625,17.4525 70.55,17.8525 C58.12625,5.55125 42.0275,-0.8025 24.70625,3.07 C16.55125,4.8925 6.93625,9.4125 2.465,16.96 C2.00375,17.7375 0.7875,17.03125 1.25,16.25" id="path134"></path>
                                            </g>
                                            <g id="g136" transform="translate(54.915125, 182.341250)" stroke="#ACA29A" stroke-width="0.625">
                                                <path d="M1.25,16.25 C4.29875,11.10375 10.015,7.20375 15.30375,4.75625 C25.8575,-0.1275 38.47625,-0.99625 49.51375,2.72125 C57.92125,5.5525 65.275,10.65 71.545,16.8575 C71.99875,17.30625 71.64125,18.025 71.0475,18.05875 C63.0925,18.5125 54.93125,19.5925 46.96875,19.3425 C35.9025,18.99625 24.8375,18.345 13.77625,17.845 C9.80375,17.6675 5.83125,17.4875 1.8575,17.30875 C0.95625,17.2675 0.95125,15.86 1.8575,15.90125 C11.4625,16.33375 21.06875,16.7675 30.67375,17.20125 C38.50375,17.55375 46.19875,18.0675 54.0175,17.6225 L71.0475,16.65125 C70.8825,17.0525 70.71625,17.4525 70.55,17.8525 C58.12625,5.55125 42.0275,-0.8025 24.70625,3.07 C16.55125,4.8925 6.93625,9.4125 2.465,16.96 C2.00375,17.7375 0.7875,17.03125 1.25,16.25 Z" id="path138"></path>
                                            </g>
                                            <g id="g140" transform="translate(10.766000, 201.849375)" fill-rule="nonzero" fill="#ACA29A">
                                                <path d="M21.25,2.5 L1.3625,3.4375 C1.5975,3.2025 1.83125,2.96875 2.06625,2.73375 L2.06625,30.03125 C1.83125,29.7975 1.5975,29.5625 1.3625,29.32875 C7.9925,29.51625 14.62125,29.70375 21.25,29.89125 C21.01625,30.12625 20.78125,30.36 20.54625,30.595 L20.54625,1.7975 C20.54625,0.89125 21.95375,0.89 21.95375,1.7975 L21.95375,30.595 C21.95375,30.9675 21.63125,31.31 21.25,31.29875 C14.62125,31.11125 7.9925,30.9225 1.3625,30.73625 C0.9825,30.725 0.65875,30.4225 0.65875,30.03125 L0.65875,2.73375 C0.65875,2.34125 0.9825,2.04875 1.3625,2.03125 C7.9925,1.71875 14.62125,1.405 21.25,1.0925 C22.155,1.05 22.1525,2.4575 21.25,2.5" id="path142"></path>
                                            </g>
                                            <g id="g144" transform="translate(10.766000, 201.849375)" stroke="#ACA29A" stroke-width="0.625">
                                                <path d="M21.25,2.5 L1.3625,3.4375 C1.5975,3.2025 1.83125,2.96875 2.06625,2.73375 L2.06625,30.03125 C1.83125,29.7975 1.5975,29.5625 1.3625,29.32875 C7.9925,29.51625 14.62125,29.70375 21.25,29.89125 C21.01625,30.12625 20.78125,30.36 20.54625,30.595 L20.54625,1.7975 C20.54625,0.89125 21.95375,0.89 21.95375,1.7975 L21.95375,30.595 C21.95375,30.9675 21.63125,31.31 21.25,31.29875 C14.62125,31.11125 7.9925,30.9225 1.3625,30.73625 C0.9825,30.725 0.65875,30.4225 0.65875,30.03125 L0.65875,2.73375 C0.65875,2.34125 0.9825,2.04875 1.3625,2.03125 C7.9925,1.71875 14.62125,1.405 21.25,1.0925 C22.155,1.05 22.1525,2.4575 21.25,2.5 Z" id="path146"></path>
                                            </g>
                                            <g id="g148" transform="translate(0.878875, 0.157500)" fill-rule="nonzero" fill="#ACA29A">
                                                <path d="M11.25,2.5 L1.2125,2.5 C1.4475,2.26625 1.68125,2.03 1.91625,1.79625 L1.91625,21.18625 L1.91625,106.505 L1.91625,162.8475 L1.91625,211.56 L1.91625,227.555 L1.91625,232.5975 C1.91625,233.165 2.20625,234.73625 1.91625,235.23625 C1.87875,235.30125 1.91625,235.48875 1.91625,235.57 C1.68125,235.33625 1.4475,235.10125 1.2125,234.8675 C4.55875,235.18 7.90375,235.4925 11.25,235.805 C11.01625,236.03875 10.78125,236.27375 10.54625,236.50875 L10.54625,217.055 L10.54625,170.32375 L10.54625,113.75875 L10.54625,26.05375 L10.54625,9.88125 C10.54625,7.47125 10.08125,4.53 10.54625,2.15375 C10.5675,2.04375 10.54625,1.90875 10.54625,1.79625 C10.54625,0.89125 11.95375,0.88875 11.95375,1.79625 L11.95375,21.25 L11.95375,106.73125 L11.95375,163.29625 L11.95375,212.25125 L11.95375,228.4225 C11.95375,230.81 12.4475,233.80125 11.95375,236.15125 C11.93,236.26 11.95375,236.395 11.95375,236.50875 C11.95375,236.8625 11.63,237.2475 11.25,237.2125 C7.90375,236.9 4.55875,236.5875 1.2125,236.27375 C0.83375,236.2375 0.50875,235.98 0.50875,235.57 L0.50875,216.17875 L0.50875,169.61 L0.50875,113.2675 L0.50875,25.80625 L0.50875,9.81125 C0.50875,7.45 0.01,4.45375 0.50875,2.12875 C0.53125,2.02875 0.50875,1.90125 0.50875,1.79625 C0.50875,1.41625 0.83125,1.0925 1.2125,1.0925 L11.25,1.0925 C12.155,1.0925 12.1575,2.5 11.25,2.5" id="path150"></path>
                                            </g>
                                            <g id="g152" transform="translate(0.878875, 0.157500)" stroke="#ACA29A" stroke-width="0.625">
                                                <path d="M11.25,2.5 L1.2125,2.5 C1.4475,2.26625 1.68125,2.03 1.91625,1.79625 L1.91625,21.18625 L1.91625,106.505 L1.91625,162.8475 L1.91625,211.56 L1.91625,227.555 L1.91625,232.5975 C1.91625,233.165 2.20625,234.73625 1.91625,235.23625 C1.87875,235.30125 1.91625,235.48875 1.91625,235.57 C1.68125,235.33625 1.4475,235.10125 1.2125,234.8675 C4.55875,235.18 7.90375,235.4925 11.25,235.805 C11.01625,236.03875 10.78125,236.27375 10.54625,236.50875 L10.54625,217.055 L10.54625,170.32375 L10.54625,113.75875 L10.54625,26.05375 L10.54625,9.88125 C10.54625,7.47125 10.08125,4.53 10.54625,2.15375 C10.5675,2.04375 10.54625,1.90875 10.54625,1.79625 C10.54625,0.89125 11.95375,0.88875 11.95375,1.79625 L11.95375,21.25 L11.95375,106.73125 L11.95375,163.29625 L11.95375,212.25125 L11.95375,228.4225 C11.95375,230.81 12.4475,233.80125 11.95375,236.15125 C11.93,236.26 11.95375,236.395 11.95375,236.50875 C11.95375,236.8625 11.63,237.2475 11.25,237.2125 C7.90375,236.9 4.55875,236.5875 1.2125,236.27375 C0.83375,236.2375 0.50875,235.98 0.50875,235.57 L0.50875,216.17875 L0.50875,169.61 L0.50875,113.2675 L0.50875,25.80625 L0.50875,9.81125 C0.50875,7.45 0.01,4.45375 0.50875,2.12875 C0.53125,2.02875 0.50875,1.90125 0.50875,1.79625 C0.50875,1.41625 0.83125,1.0925 1.2125,1.0925 L11.25,1.0925 C12.155,1.0925 12.1575,2.5 11.25,2.5 Z" id="path154"></path>
                                            </g>
                                            <g id="g156" transform="translate(10.878875, 0.961875)" fill-rule="nonzero" fill="#ACA29A">
                                                <path d="M1.25,235 C4.00125,234.6875 6.75375,234.375 9.505,234.0625 C9.27125,234.2975 9.03625,234.53125 8.80125,234.76625 L8.80125,215.375 L8.80125,168.80625 L8.80125,112.46375 L8.80125,25.00125 L8.80125,9.00625 L8.80125,3.96375 C8.80125,3.3975 8.51125,1.825 8.80125,1.325 C8.83875,1.26125 8.80125,1.0725 8.80125,0.99125 C9.03625,1.225 9.27125,1.46125 9.505,1.695 L1.25,1.695 C1.48375,1.46125 1.71875,1.225 1.95375,0.99125 L1.95375,20.445 L1.95375,105.92625 L1.95375,162.49125 L1.95375,211.44625 L1.95375,227.61875 C1.95375,230.02875 2.41875,232.97 1.95375,235.34625 C1.93125,235.45625 1.95375,235.59125 1.95375,235.70375 C1.95375,236.60875 0.54625,236.61125 0.54625,235.70375 L0.54625,216.25 L0.54625,169.51875 L0.54625,112.95375 L0.54625,25.24875 L0.54625,9.0775 C0.54625,6.69 0.0525,3.69875 0.54625,1.34875 C0.57,1.24 0.54625,1.10375 0.54625,0.99125 C0.54625,0.61125 0.86875,0.2875 1.25,0.2875 L9.505,0.2875 C9.885,0.2875 10.20875,0.61 10.20875,0.99125 L10.20875,20.3825 L10.20875,105.70125 L10.20875,162.04375 L10.20875,210.755 L10.20875,226.75 C10.20875,229.11125 10.7075,232.10875 10.20875,234.4325 C10.18625,234.53375 10.20875,234.66125 10.20875,234.76625 C10.20875,235.17875 9.88375,235.42625 9.505,235.46875 C6.75375,235.7825 4.00125,236.095 1.25,236.4075 C0.35125,236.51 0.35875,235.10125 1.25,235" id="path158"></path>
                                            </g>
                                            <g id="g160" transform="translate(10.878875, 0.961875)" stroke="#ACA29A" stroke-width="0.625">
                                                <path d="M1.25,235 C4.00125,234.6875 6.75375,234.375 9.505,234.0625 C9.27125,234.2975 9.03625,234.53125 8.80125,234.76625 L8.80125,215.375 L8.80125,168.80625 L8.80125,112.46375 L8.80125,25.00125 L8.80125,9.00625 L8.80125,3.96375 C8.80125,3.3975 8.51125,1.825 8.80125,1.325 C8.83875,1.26125 8.80125,1.0725 8.80125,0.99125 C9.03625,1.225 9.27125,1.46125 9.505,1.695 L1.25,1.695 C1.48375,1.46125 1.71875,1.225 1.95375,0.99125 L1.95375,20.445 L1.95375,105.92625 L1.95375,162.49125 L1.95375,211.44625 L1.95375,227.61875 C1.95375,230.02875 2.41875,232.97 1.95375,235.34625 C1.93125,235.45625 1.95375,235.59125 1.95375,235.70375 C1.95375,236.60875 0.54625,236.61125 0.54625,235.70375 L0.54625,216.25 L0.54625,169.51875 L0.54625,112.95375 L0.54625,25.24875 L0.54625,9.0775 C0.54625,6.69 0.0525,3.69875 0.54625,1.34875 C0.57,1.24 0.54625,1.10375 0.54625,0.99125 C0.54625,0.61125 0.86875,0.2875 1.25,0.2875 L9.505,0.2875 C9.885,0.2875 10.20875,0.61 10.20875,0.99125 L10.20875,20.3825 L10.20875,105.70125 L10.20875,162.04375 L10.20875,210.755 L10.20875,226.75 C10.20875,229.11125 10.7075,232.10875 10.20875,234.4325 C10.18625,234.53375 10.20875,234.66125 10.20875,234.76625 C10.20875,235.17875 9.88375,235.42625 9.505,235.46875 C6.75375,235.7825 4.00125,236.095 1.25,236.4075 C0.35125,236.51 0.35875,235.10125 1.25,235 Z" id="path162"></path>
                                            </g>
                                        </g>
                                    </g>
                                </g>
                            </g>
                        </g>
                    </g>
                </g>
            </g>
        </g>
    </g>
</svg>