<?xml version="1.0" encoding="UTF-8"?>
<svg width="90px" height="79px" viewBox="0 0 90 79" version="1.1" xmlns="http://www.w3.org/2000/svg" xmlns:xlink="http://www.w3.org/1999/xlink">
    <!-- Generator: Sketch 47.1 (45422) - http://www.bohemiancoding.com/sketch -->
    <desc>Created with Sketch.</desc>
    <defs></defs>
    <g id="Page-1" stroke="none" stroke-width="1" fill="none" fill-rule="evenodd">
        <g id="Entergy_InteractiveWidget_20171129" transform="translate(-538.000000, -313.000000)" fill-rule="nonzero">
            <g id="g10" transform="translate(475.000000, 282.000000) scale(-1, 1) rotate(-180.000000) translate(-475.000000, -282.000000) translate(0.000000, 0.500000)">
                <g id="g136">
                    <g id="g138-Clipped">
                        <g id="g138" transform="translate(538.000000, 171.000000)">
                            <polygon id="path190" fill="#FFFFFF" points="5.385 1.33875 84.6375 1.33875 84.6375 5.30125 5.385 5.30125"></polygon>
                            <g id="g192" transform="translate(11.820500, 2.364250)" fill="#EB0A26">
                                <polygon id="path194" points="15 58.75 1.24125 32.41 1.24125 1.20375 35.42 1.20375 35.42 33.895"></polygon>
                            </g>
                            <g id="g196" transform="translate(10.216500, 0.801750)" fill="#FFFFFF">
                                <path d="M15,61.25 C10.84375,53.29125 6.68625,45.3325 2.52875,37.37375 C2.0575,36.47 1.32,35.4675 1.055,34.46625 C0.78875,33.4625 0.98875,32.2 0.98875,31.18375 L0.98875,15.18625 L0.98875,2.76625 C0.98875,1.76125 1.84,0.90875 2.845,0.90875 L37.02375,0.90875 C38.02875,0.90875 38.88125,1.75875 38.88125,2.76625 L38.88125,31.66875 C38.88125,32.88625 39.0425,34.225 38.88125,35.43375 C38.72625,36.58875 37.77,37.4625 37.04875,38.34 C33.55625,42.59125 30.06375,46.84375 26.57,51.09375 C23.68625,54.605 20.8025,58.115 17.9175,61.62625 C16.39875,63.47375 13.78375,60.8325 15.29,58.99875 L35.71,34.14375 C35.52875,34.5825 35.3475,35.02125 35.16625,35.4575 L35.16625,2.76625 C35.785,3.385 36.405,4.00375 37.02375,4.62375 L2.845,4.62375 C3.46375,4.00375 4.085,3.385 4.70375,2.76625 L4.70375,29.37 C4.70375,30.4775 5.1425,32.6825 4.70375,33.7225 C4.455,34.3075 4.17625,32.93875 4.52875,33.18625 C4.84875,33.41125 5.10875,34.2975 5.28625,34.63625 C7.6425,39.14875 10,43.66125 12.3575,48.17375 C14.3075,51.90625 16.2575,55.64125 18.2075,59.375 C19.31375,61.49125 16.10875,63.37125 15,61.25" id="path198"></path>
                            </g>
                            <g id="g200" transform="translate(22.969250, 35.461125)" fill="#EB0A26">
                                <polygon id="path202" points="0 32.5 45.57 32.5 64.88875 0.79875 17.8325 0.79875"></polygon>
                            </g>
                            <g id="g204" transform="translate(20.469250, 33.604500)" fill="#FFFFFF">
                                <path d="M2.5,32.5 L42.375,32.5 L48.07,32.5 C47.535,32.80625 47.00125,33.1125 46.4675,33.41875 C52.90625,22.8525 59.34625,12.285 65.785,1.7175 C66.32,2.65 66.85375,3.58125 67.38875,4.5125 L26.17625,4.5125 L20.3325,4.5125 C20.86625,4.20625 21.40125,3.9 21.93625,3.5925 C15.99125,14.16 10.0475,24.7275 4.10375,35.29375 C2.93125,37.3775 -0.27875,35.5075 0.89625,33.41875 C6.84,22.8525 12.785,12.285 18.7275,1.7175 C19.04625,1.15 19.68625,0.79875 20.3325,0.79875 L61.54375,0.79875 L67.38875,0.79875 C68.77625,0.79875 69.73,2.3825 68.9925,3.5925 C62.78875,13.77375 56.58625,23.9525 50.38375,34.1325 C49.65875,35.32125 49.15,36.10375 47.63,36.215 C45.72625,36.3525 43.7625,36.215 41.855,36.215 L18.9225,36.215 L2.5,36.215 C0.11,36.215 0.105,32.5 2.5,32.5" id="path206"></path>
                            </g>
                            <g id="g208" transform="translate(1.719250, 35.461125)" fill="#EB0A26">
                                <polygon id="path210" points="21.25 32.5 0.445 0.79875 11.83875 0.79875 25.10125 25.6525"></polygon>
                            </g>
                            <g id="g212" transform="translate(0.115250, 33.898625)" fill="#FFFFFF">
                                <path d="M21.25,35 C14.315,24.43375 7.38,13.86625 0.445,3.29875 C-0.33875,2.1025 0.6975,0.50375 2.05,0.50375 L13.4425,0.50375 C14.0775,0.50375 14.74125,0.85375 15.04625,1.42375 C18.29875,7.5175 21.55,13.6125 24.8025,19.70625 C25.94375,21.845 27.41125,24.01 28.305,26.26875 C28.90625,27.78875 27.81875,29.02625 27.09125,30.32 L24.4575,35 C23.285,37.08375 20.07625,35.21375 21.25,33.125 C22.53375,30.8425 23.8175,28.56125 25.10125,26.2775 L25.10125,28.1525 C20.68,19.86875 16.26,11.58375 11.83875,3.29875 C12.3725,3.60625 12.9075,3.9125 13.4425,4.21875 L2.05,4.21875 C2.58375,3.2875 3.11875,2.35625 3.65375,1.42375 C10.58875,11.99125 17.52375,22.55875 24.4575,33.125 C25.7725,35.13 22.5575,36.99375 21.25,35" id="path214"></path>
                            </g>
                            <polygon id="path216" fill="#EB0A26" points="47.24 36.26 77.20875 36.26 77.20875 3.56875 47.24 3.56875"></polygon>
                            <g id="g218" transform="translate(44.740500, 0.652875)" fill="#FFFFFF">
                                <path d="M2.5,33.75 L32.46875,33.75 C31.84875,34.36875 31.22875,34.9875 30.61,35.60625 L30.61,2.915 L32.46875,4.7725 L2.5,4.7725 C3.11875,4.1525 3.7375,3.53375 4.3575,2.915 L4.3575,35.60625 C4.3575,37.9975 0.6425,38.00125 0.6425,35.60625 L0.6425,2.915 C0.6425,1.91 1.4925,1.0575 2.5,1.0575 L32.46875,1.0575 C33.47125,1.0575 34.325,1.9075 34.325,2.915 L34.325,35.60625 C34.325,36.61125 33.47375,37.465 32.46875,37.465 L2.5,37.465 C0.11,37.465 0.105,33.75 2.5,33.75" id="path220"></path>
                            </g>
                            <polygon id="path222" fill="#FFFFFF" points="32.6275 3.81625 26.68375 3.81625 26.68375 30.06875 32.6275 30.06875"></polygon>
                            <polygon id="path224" fill="#FFFFFF" points="66.06375 16.06 60.11875 16.06 60.11875 28.91125 66.06375 28.91125"></polygon>
                            <g id="g226" transform="translate(57.642125, 48.643500)" fill="#EB0A26">
                                <polyline id="path228" points="0 0 0 28.23375 10.8975 28.23375 10.8975 0"></polyline>
                            </g>
                            <g id="g230" transform="translate(55.273875, 48.643500)" fill="#FFFFFF">
                                <polygon id="path232" points="15 0 11.5325 0 11.5325 26.5 4.1025 26.5 4.1025 0 0.635 0 0.635 29.9675 15 29.9675"></polygon>
                            </g>
                        </g>
                    </g>
                </g>
            </g>
        </g>
    </g>
</svg>