<?xml version="1.0" encoding="UTF-8" standalone="no"?>
<!-- Generator: Adobe Illustrator 22.0.1, SVG Export Plug-In . SVG Version: 6.00 Build 0)  -->

<svg
   xmlns:dc="http://purl.org/dc/elements/1.1/"
   xmlns:cc="http://creativecommons.org/ns#"
   xmlns:rdf="http://www.w3.org/1999/02/22-rdf-syntax-ns#"
   xmlns:svg="http://www.w3.org/2000/svg"
   xmlns="http://www.w3.org/2000/svg"
   xmlns:sodipodi="http://sodipodi.sourceforge.net/DTD/sodipodi-0.dtd"
   xmlns:inkscape="http://www.inkscape.org/namespaces/inkscape"
   version="1.1"
   id="Layer_1"
   x="0px"
   y="0px"
   viewBox="0 0 54.365266 64.603258"
   xml:space="preserve"
   inkscape:version="0.91 r13725"
   sodipodi:docname="security.svg"
   width="54.365265"
   height="64.603256"><metadata
     id="metadata32"><rdf:RDF><cc:Work
         rdf:about=""><dc:format>image/svg+xml</dc:format><dc:type
           rdf:resource="http://purl.org/dc/dcmitype/StillImage" /><dc:title></dc:title></cc:Work></rdf:RDF></metadata><defs
     id="defs30" /><sodipodi:namedview
     pagecolor="#ffffff"
     bordercolor="#666666"
     borderopacity="1"
     objecttolerance="10"
     gridtolerance="10"
     guidetolerance="10"
     inkscape:pageopacity="0"
     inkscape:pageshadow="2"
     inkscape:window-width="737"
     inkscape:window-height="480"
     id="namedview28"
     showgrid="false"
     fit-margin-top="0"
     fit-margin-left="0"
     fit-margin-right="0"
     fit-margin-bottom="0"
     inkscape:zoom="3.570348"
     inkscape:cx="27.179012"
     inkscape:cy="32.250001"
     inkscape:window-x="0"
     inkscape:window-y="0"
     inkscape:window-maximized="0"
     inkscape:current-layer="Layer_1" /><style
     type="text/css"
     id="style3">
	.st0{fill:#000333;}
	.st1{fill:none;stroke:#FFFFFF;stroke-width:2;stroke-linecap:round;stroke-miterlimit:10;}
	.st2{fill:none;stroke:#FFFFFF;stroke-width:2;stroke-linecap:round;stroke-miterlimit:10;stroke-dasharray:5.037331e-02,4.0299;}
	.st3{fill:#EB0A26;}
	.st4{fill:#DDD9D4;}
	.st5{fill:#FFFFFF;}
	.st6{opacity:0.5;}
	.st7{clip-path:url(#SVGID_2_);}
	.st8{fill:#ACA29A;}
	.st9{fill:#3497B6;}
	.st10{fill:#ACA29A;stroke:#ACA29A;stroke-width:0.5;stroke-miterlimit:10;}
	.st11{clip-path:url(#SVGID_4_);}
	.st12{fill:#BAB0A8;}
	.st13{fill:none;stroke:#FFFFFF;stroke-miterlimit:10;}
	.st14{filter:url(#Adobe_OpacityMaskFilter);}
	.st15{mask:url(#SVGID_5_);}
	.st16{fill:#B5D2FF;}
	.st17{fill:#EB0A26;stroke:#FFFFFF;stroke-width:3;stroke-miterlimit:10;}
	.st18{opacity:0.7;}
	.st19{fill:#FFFFFF;stroke:#FFFFFF;stroke-width:0.5;stroke-miterlimit:10;}
	.st20{clip-path:url(#SVGID_7_);}
	.st21{clip-path:url(#SVGID_9_);}
	.st22{clip-path:url(#SVGID_11_);}
	.st23{fill:none;stroke:#FFFFFF;}
	.st24{fill:#EB0A26;stroke:#FFFFFF;}
</style><g
     id="g5"
     transform="translate(-2.7209877,-0.69674018)"><g
       id="g7"><g
         id="XMLID_4_"><g
           id="g10"><path
             class="st5"
             d="m 54.7,47.2 c 2.6,0.1 2.3,2.5 2.3,4.5 0,1.2 -0.3,2.1 -1.6,2.3 -0.9,0.1 -1.9,0.1 -2.9,0 -0.5,0 -1,-0.2 -1.2,0.4 -0.3,0.8 0.2,0.9 0.8,0.9 1.2,0.1 3.1,-0.4 4.2,0.3 1,0.7 0.8,2.1 0.7,3.1 0,1 0,2 0,3 0,0.7 0.1,1.6 -0.1,2.3 -0.3,0.9 -1.2,1.1 -2,1.1 1,0 1,-1.6 0,-1.6 0.9,0 0.6,-1.7 0.6,-2.4 0,-0.8 0,-1.7 0,-2.5 0,-0.3 0.1,-0.7 0,-1 -0.1,-0.8 0,-0.7 -0.8,-0.9 -0.8,-0.1 -1.7,0 -2.5,0 -0.8,0 -1.7,-0.1 -2.1,-0.9 -0.4,-0.7 -0.4,-1.8 -0.1,-2.5 0.7,-1.8 3.4,-1.1 4.9,-1.1 0.5,0 0.6,0.1 0.7,-0.2 0.3,-0.6 0,-1.8 0,-2.4 0,-0.5 0.1,-0.8 -0.4,-1 -0.2,-0.1 -0.9,0 -1.2,0 -0.7,0 -1.4,0.1 -2,0 -0.8,0 -1.5,-0.3 -1.9,-1 C 49.4,47 49.5,45.7 50,45 c 0.6,-0.8 1.6,-0.8 2.5,-0.8 0.7,0 2.4,0.3 2.9,-0.3 0.2,-0.4 0.1,-2 0,-2.4 -0.1,-0.4 0,-0.7 -0.4,-0.9 -0.3,-0.1 -1.1,0 -1.5,0 -0.7,0 -1.6,0.1 -2.3,0 -1.7,-0.3 -2.2,-2.9 -1,-4 0.9,-0.8 2.7,-0.5 3.8,-0.5 0.3,0 0.8,0.1 1,0 0.5,-0.2 0.3,-0.6 0.3,-1.1 0,-0.9 0,-1.7 0,-2.6 0,-0.5 0,-1 0,-1.5 0,-0.3 0.2,-1.3 0,-1.5 -0.3,-0.3 -1.6,-0.1 -2,-0.1 -1.5,0 -3,0.2 -4.5,0 -0.9,-0.1 -1.5,-0.7 -1.7,-1.7 -0.2,-1.5 0,-3.2 0,-4.7 0,-3 0,-5.9 -1,-8.8 -0.7,-2.3 -2,-4.4 -3.6,-6.2 -3.3,-3.7 -8.1,-5.6 -13,-5.6 -5.6,0 -10.7,2.8 -13.9,7.4 -1.6,2.3 -2.7,5 -3,7.8 -0.2,1.8 -0.2,3.7 -0.2,5.5 0,1.5 0.2,3.1 0,4.5 -0.1,0.9 -0.6,1.5 -1.5,1.7 -1.4,0.3 -3.1,0.1 -4.5,0.1 -0.4,0 -1.3,-0.2 -1.7,0 -0.6,0.3 -0.5,0.5 -0.5,1.1 0,0.8 -0.1,1.7 0,2.5 0,0.4 0,0.8 0,1.3 0,0.3 -0.1,1.3 0.1,1.5 0.4,0.6 1.7,0.3 2.4,0.3 2,0 3.9,0.4 3.4,2.9 -0.4,2.2 -3,1.6 -4.6,1.6 -0.4,0 -0.9,-0.1 -1,0.2 -0.3,0.4 0,1.8 0,2.3 0,1.1 0.2,1.2 1.3,1.2 0.8,0 1.6,-0.1 2.4,0 0.7,0.1 1.5,0.3 1.8,0.9 0.4,0.7 0.4,2 0,2.6 -0.4,0.8 -1.2,0.9 -2,0.9 -0.7,0 -3.2,-0.4 -3.5,0.3 -0.1,0.3 0,0.9 0,1.3 0,0.5 -0.1,1.2 0,1.6 0.2,0.7 0.6,0.5 1.4,0.5 0.8,0 1.5,0 2.3,0 1.9,0.1 2.9,2.2 1.7,3.8 -0.7,1 -2,0.7 -3.1,0.7 -0.6,0 -1.5,-0.2 -2,0 -0.4,0.2 -0.3,0.3 -0.3,0.9 0,1.7 -0.1,3.5 0,5.2 0,0.6 -0.1,0.5 0.4,0.6 0.3,0.1 0.7,0 1,0 2.7,0 5.5,0 8.2,0 13.6,0 27.2,-0.1 40.8,0 -1,0 -1,1.6 0,1.6 -0.7,0 -1.3,0 -2,0 -15.1,0 -30.2,0 -45.3,0 -1.1,0 -2.9,0.3 -3.8,-0.2 C 3.1,64.5 3,63.7 3,62.9 2.9,61.2 3,59.4 3,57.7 3,56.9 3,55.9 3.9,55.5 4.8,55 6.2,55.2 7.1,55.2 c 0.6,0 2.3,0.2 1.7,-1 C 8.3,53.8 7.3,54 6.7,54 5.7,54 4.2,54.3 3.4,53.5 2.6,52.7 2.9,51.3 2.9,50.3 2.9,49.7 2.8,49 3,48.4 3.4,47 5,47.2 6.1,47.2 c 0.6,0 1.2,0.1 1.7,0 0.4,-0.1 0.5,0.1 0.8,-0.3 C 8.7,46.8 8.7,46.1 8.6,46 8.4,45.6 7.1,45.8 6.8,45.8 6,45.8 5.2,45.9 4.5,45.8 2.3,45.5 2.8,42.6 2.9,41 c 0.1,-1.3 0.7,-1.9 2,-2 1,-0.1 2,0 3,0 0.5,0 0.7,0.1 0.8,-0.6 0,-0.2 0,-0.5 -0.1,-0.6 C 8.3,37.4 6.8,37.7 6.3,37.7 5.2,37.7 3.7,38 3.1,36.8 2.6,35.7 2.8,34 2.8,32.8 c 0,-1.2 -0.4,-3.4 0.6,-4.4 0.8,-0.9 2.4,-0.6 3.5,-0.6 1,0 2,0 2.9,0 1,0 1.2,0 1.3,-1 0,-1.8 0,-3.5 0,-5.3 0,-3.1 0.2,-6.2 1.5,-9.2 2.1,-5 6.4,-9 11.6,-10.7 9.6,-3.2 20.4,2.4 23.6,12.1 0.9,2.7 1,5.4 1,8.2 0,1.1 0,2.2 0,3.4 0,0.6 -0.3,2.1 0.2,2.5 0.4,0.3 1.9,0 2.4,0 1,0 2,0 2.9,0 1,0 2,0.1 2.4,1.1 0.6,1.3 0.1,3.2 0.1,4.6 0,1.1 0.4,2.9 -0.6,3.8 -0.9,0.7 -2.3,0.4 -3.4,0.4 -0.7,0 -2.1,-0.2 -1.7,0.9 0.2,0.7 1.1,0.4 1.8,0.4 1.1,0 2.7,-0.3 3.5,0.6 0.4,0.5 0.4,1 0.4,1.6 0,0.9 0.1,1.8 0,2.6 -0.1,0.9 -0.4,1.6 -1.4,1.9 -0.8,0.2 -1.7,0.1 -2.5,0.1 -0.6,0 -1.5,-0.2 -1.8,0.3 -0.8,1.6 2.9,1.1 3.6,1.1 z"
             id="path12"
             inkscape:connector-curvature="0"
             style="fill:#ffffff" /><path
             class="st3"
             d="m 55.4,49.8 c 0,0.7 0.2,1.8 0,2.4 -0.1,0.3 -0.2,0.2 -0.7,0.2 -1.5,0 -4.2,-0.6 -4.9,1.1 -0.3,0.7 -0.3,1.8 0.1,2.5 0.4,0.8 1.3,0.9 2.1,0.9 0.8,0 1.7,-0.1 2.5,0 0.8,0.1 0.7,0.1 0.8,0.9 0.1,0.3 0,0.7 0,1 0,0.8 0,1.7 0,2.5 0,0.7 0.4,2.3 -0.6,2.4 -13.6,-0.1 -27.2,0 -40.8,0 -2.7,0 -5.5,0 -8.2,0 -0.3,0 -0.7,0.1 -1,0 -0.5,-0.1 -0.3,0 -0.4,-0.6 -0.1,-1.7 0,-3.5 0,-5.2 0,-0.6 -0.1,-0.7 0.3,-0.9 0.5,-0.2 1.4,0 2,0 1,0 2.4,0.2 3.1,-0.7 1.2,-1.6 0.1,-3.7 -1.7,-3.8 -0.7,0 -1.5,0 -2.3,0 -0.8,0 -1.1,0.2 -1.3,-0.5 -0.1,-0.5 0,-1.1 0,-1.6 0,-0.3 -0.1,-1 0,-1.3 0.3,-0.6 2.8,-0.2 3.5,-0.3 0.8,0 1.6,-0.1 2,-0.9 0.4,-0.7 0.4,-2 0,-2.6 -0.4,-0.7 -1.1,-0.9 -1.8,-0.9 -0.8,-0.1 -1.6,0 -2.4,0 -1.2,0 -1.3,-0.1 -1.3,-1.2 0,-0.5 -0.2,-1.8 0,-2.3 0.2,-0.3 0.6,-0.2 1,-0.2 1.7,0 4.2,0.6 4.6,-1.6 0.5,-2.5 -1.3,-2.9 -3.4,-2.9 -0.7,0 -1.9,0.3 -2.4,-0.3 -0.2,-0.2 0,-1.2 -0.1,-1.5 0,-0.4 0,-0.8 0,-1.3 0,-0.8 0,-1.7 0,-2.5 0,-0.6 -0.1,-0.8 0.5,-1.1 0.4,-0.2 1.3,0 1.7,0 1.4,0 3.1,0.3 4.5,-0.1 0.9,-0.2 1.4,-0.9 1.5,-1.7 0.2,-1.5 0,-3 0,-4.5 0,-1.8 0,-3.7 0.2,-5.5 0.3,-2.8 1.3,-5.5 3,-7.8 3.2,-4.6 8.3,-7.3 13.9,-7.4 4.9,0 9.7,1.9 13,5.6 1.6,1.8 2.8,3.9 3.6,6.2 0.9,2.9 0.9,5.8 1,8.8 0,1.5 -0.2,3.2 0,4.7 0.1,0.9 0.7,1.5 1.7,1.7 1.4,0.2 3,0 4.5,0 0.4,0 1.7,-0.2 2,0.1 0.2,0.2 0,1.2 0,1.5 0,0.5 0,1 0,1.5 0,0.9 0,1.7 0,2.6 0,0.5 0.2,0.8 -0.3,1.1 -0.2,0.1 -0.7,0 -1,0 -1.1,0 -2.9,-0.3 -3.8,0.5 -1.2,1.1 -0.7,3.7 1,4 0.7,0.1 1.6,0 2.3,0 0.3,0 1.2,-0.1 1.5,0 0.4,0.2 0.3,0.5 0.4,0.9 0.1,0.4 0.2,2.1 0,2.4 -0.4,0.7 -2.1,0.3 -2.9,0.3 -0.9,0 -1.9,-0.1 -2.5,0.8 -0.5,0.7 -0.6,2 -0.1,2.8 0.4,0.7 1.1,0.9 1.9,1 0.7,0 1.4,0 2,0 0.3,0 1,-0.1 1.2,0 0.6,0 0.5,0.3 0.5,0.8 z M 40.2,27.6 c 0.2,-1.4 0,-3 0,-4.5 0,-1.6 0.1,-3.3 -0.1,-5 -0.5,-4.4 -4,-8 -8.4,-8.7 -4.5,-0.8 -9.2,1.4 -11.2,5.6 -1.3,2.7 -1,5.7 -1,8.6 0,2.2 -0.8,5.6 2.1,5.8 0,0 0.1,0 0.1,0 0,0 0.1,0 0.1,0 0,0 0,0 0,0 4.2,-0.1 8.4,0 12.6,0 1.9,-0.1 5.4,0.8 5.8,-1.8 z m -4.7,17.2 c 1.7,-3.6 -1,-7.9 -4.9,-8.4 -4.2,-0.5 -7.8,3.7 -6.5,7.7 0.4,1.2 1.7,2.2 1.6,3.5 -0.1,1.5 -0.7,3.2 -1.1,4.7 -0.4,1.8 -1.3,4.2 1.2,4.4 0,0 0.1,0 0.1,0 0,0 0,0 0.1,0 0,0 0,0 0,0 1.6,0 3.1,0 4.7,0 1.2,0 3,0.3 4.2,-0.2 1.6,-0.7 0.5,-3.2 0.3,-4.4 -0.3,-1.3 -0.6,-2.6 -0.9,-3.9 -0.2,-0.8 -0.3,-1.3 0.2,-2 0.3,-0.4 0.7,-0.8 1,-1.4 z"
             id="path14"
             inkscape:connector-curvature="0"
             style="fill:#eb0a26" /><path
             class="st5"
             d="m 54.8,63.7 c 1,0 1,1.6 0,1.6 0,0 0,0 0,0 -1,0 -1,-1.5 0,-1.6 z"
             id="path16"
             inkscape:connector-curvature="0"
             style="fill:#ffffff" /><path
             class="st5"
             d="m 40.2,23.1 c 0,1.5 0.2,3.1 0,4.5 -0.4,2.6 -3.9,1.8 -5.7,1.8 -4.2,0 -8.4,0 -12.6,0 1,0 1,-1.6 0,-1.6 3.4,-0.1 6.7,0 10.1,0 1.4,0 2.7,0 4.1,0 0.9,0 2.5,0.4 2.7,-0.6 0.2,-1.3 0,-2.8 0,-4.1 0,-1.3 0,-2.6 0,-3.8 -0.1,-3.9 -2.8,-7.3 -6.6,-8.2 -3.7,-0.9 -7.8,0.7 -9.8,4.1 -1.1,1.9 -1.1,4 -1.1,6.2 0,1.3 0,2.7 0,4 0,0.6 -0.1,1.2 0,1.8 0,0.6 0.1,0.7 0.8,0.7 -0.9,0 -1,1.4 -0.2,1.6 -2.9,-0.2 -2.1,-3.6 -2.1,-5.8 0,-2.9 -0.3,-5.9 1,-8.6 2,-4.1 6.7,-6.3 11.2,-5.6 4.4,0.7 7.9,4.3 8.4,8.7 -0.1,1.5 -0.2,3.2 -0.2,4.9 z"
             id="path18"
             inkscape:connector-curvature="0"
             style="fill:#ffffff" /><path
             class="st5"
             d="m 30.6,36.4 c 3.9,0.5 6.6,4.8 4.9,8.4 -0.3,0.6 -0.6,1 -1,1.5 -0.5,0.7 -0.4,1.2 -0.2,2 0.3,1.3 0.6,2.6 0.9,3.9 0.3,1.2 1.4,3.7 -0.3,4.4 -1.1,0.5 -2.9,0.2 -4.2,0.2 -1.6,0 -3.1,0 -4.7,0 1,0 1,-1.6 0,-1.6 2.5,-0.1 5,0 7.5,0 0.4,0 0.6,0.1 0.6,-0.1 0.1,-0.2 -0.2,-1 -0.3,-1.2 -0.2,-1 -0.4,-1.9 -0.6,-2.9 -0.3,-1.4 -1.2,-3.3 -0.5,-4.7 0.3,-0.8 1,-1.3 1.3,-2 0.4,-0.9 0.4,-1.9 0.1,-2.9 -0.5,-1.6 -1.7,-2.8 -3.4,-3.1 -1.8,-0.4 -3.7,0.4 -4.7,2 -1.2,2 -0.6,3.7 0.6,5.5 1,1.4 0.4,2.9 0,4.5 -0.2,1.1 -0.5,2.1 -0.7,3.2 -0.1,0.4 -0.4,1 -0.4,1.5 0,0.5 -0.2,0.4 0.4,0.5 -0.9,0 -1,1.4 -0.2,1.6 -2.5,-0.2 -1.7,-2.6 -1.2,-4.4 0.3,-1.5 0.9,-3.1 1.1,-4.7 0.1,-1.2 -1.2,-2.3 -1.6,-3.5 -1.2,-4.4 2.4,-8.6 6.6,-8.1 z"
             id="path20"
             inkscape:connector-curvature="0"
             style="fill:#ffffff" /><path
             class="st3"
             d="m 34.2,41.2 c 0.3,1 0.3,2 -0.1,2.9 -0.3,0.8 -1,1.3 -1.3,2 -0.6,1.5 0.2,3.3 0.5,4.7 0.2,1 0.4,1.9 0.6,2.9 0.1,0.2 0.4,1 0.3,1.2 -0.1,0.2 -0.2,0.1 -0.6,0.1 -2.5,0.1 -5,0 -7.5,0 -0.6,0 -0.4,0 -0.4,-0.5 0,-0.4 0.2,-1 0.4,-1.5 0.2,-1.1 0.5,-2.1 0.7,-3.2 0.4,-1.6 0.9,-3 0,-4.5 -1.2,-1.8 -1.8,-3.5 -0.6,-5.5 1,-1.6 2.9,-2.4 4.7,-2 1.5,0.6 2.8,1.8 3.3,3.4 z"
             id="path22"
             inkscape:connector-curvature="0"
             style="fill:#eb0a26" /><path
             class="st5"
             d="m 26,55.1 c 1,0 1,1.6 0,1.6 0,0 0,0 0,0 0,0 -0.1,0 -0.1,0 0,0 -0.1,0 -0.1,0 C 25,56.5 25.1,55.2 26,55.1 Z"
             id="path24"
             inkscape:connector-curvature="0"
             style="fill:#ffffff" /><path
             class="st5"
             d="m 21.9,27.8 c 1,0 1,1.6 0,1.6 0,0 0,0 0,0 0,0 -0.1,0 -0.1,0 0,0 -0.1,0 -0.1,0 -0.9,-0.2 -0.8,-1.6 0.2,-1.6 z"
             id="path26"
             inkscape:connector-curvature="0"
             style="fill:#ffffff" /></g></g></g></g></svg>