<?xml version="1.0" encoding="UTF-8" standalone="no"?>
<!-- Created with Inkscape (http://www.inkscape.org/) -->

<svg
   xmlns:dc="http://purl.org/dc/elements/1.1/"
   xmlns:cc="http://creativecommons.org/ns#"
   xmlns:rdf="http://www.w3.org/1999/02/22-rdf-syntax-ns#"
   xmlns:svg="http://www.w3.org/2000/svg"
   xmlns="http://www.w3.org/2000/svg"
   xmlns:sodipodi="http://sodipodi.sourceforge.net/DTD/sodipodi-0.dtd"
   xmlns:inkscape="http://www.inkscape.org/namespaces/inkscape"
   id="svg2"
   version="1.1"
   inkscape:version="0.91 r13725"
   xml:space="preserve"
   width="94.9375"
   height="98.094376"
   viewBox="0 0 94.9375 98.094376"
   sodipodi:docname="Entergy_InteractiveWidget_20171129.pdf"><metadata
     id="metadata8"><rdf:RDF><cc:Work
         rdf:about=""><dc:format>image/svg+xml</dc:format><dc:type
           rdf:resource="http://purl.org/dc/dcmitype/StillImage" /><dc:title></dc:title></cc:Work></rdf:RDF></metadata><defs
     id="defs6"><clipPath
       clipPathUnits="userSpaceOnUse"
       id="clipPath110"><path
         d="m 70.8355,140.063 75.9505,0 0,-78.4765 -75.9505,0 0,78.4765 z"
         id="path112"
         inkscape:connector-curvature="0" /></clipPath></defs><sodipodi:namedview
     pagecolor="#ffffff"
     bordercolor="#666666"
     borderopacity="1"
     objecttolerance="10"
     gridtolerance="10"
     guidetolerance="10"
     inkscape:pageopacity="0"
     inkscape:pageshadow="2"
     inkscape:window-width="1280"
     inkscape:window-height="751"
     id="namedview4"
     showgrid="false"
     fit-margin-top="0"
     fit-margin-left="0"
     fit-margin-right="0"
     fit-margin-bottom="0"
     inkscape:zoom="0.83911111"
     inkscape:cx="-83.435771"
     inkscape:cy="174.42857"
     inkscape:window-x="0"
     inkscape:window-y="1"
     inkscape:window-maximized="1"
     inkscape:current-layer="g10" /><g
     id="g10"
     inkscape:groupmode="layer"
     inkscape:label="Entergy_InteractiveWidget_20171129"
     transform="matrix(1.25,0,0,-1.25,-88.544375,175.07775)"><g
       id="g106"><g
         id="g108" /><g
         id="g114"><g
           clip-path="url(#clipPath110)"
           id="g116"
           style="opacity:0.5"><g
             transform="translate(102.9528,125.9746)"
             id="g118"><path
               d="M 0,0 5.857,3.295 11.716,0 0,0 Z M 18.034,-0.188 6.576,6.257 C 6.13,6.508 5.585,6.508 5.139,6.257 L -6.319,-0.188 C -6.9,-0.516 -7.188,-1.193 -7.02,-1.839 c 0.169,-0.645 0.752,-1.095 1.419,-1.095 l 22.916,0 c 0.667,0 1.249,0.451 1.419,1.095 0.169,0.646 -0.119,1.323 -0.7,1.651"
               style="fill:#aca29a;fill-opacity:1;fill-rule:nonzero;stroke:none"
               id="path120"
               inkscape:connector-curvature="0" /></g><g
             transform="translate(143.5261,64.8457)"
             id="g122"><path
               d="m 0,0 -69.431,0 0,3.411 1.611,0 66.21,0 1.61,0 L 0,0 Z m -66.19,10.082 62.95,0 0,-3.411 -62.95,0 0,3.411 z m 12.501,32.593 c -0.16,0.052 -0.33,0.082 -0.506,0.082 l -6.353,0 c -0.177,0 -0.347,-0.029 -0.507,-0.082 l -0.107,0 0,2.167 7.581,0 0,-2.167 -0.108,0 z m -5.888,-23.988 0.612,20.81 3.188,0 0.611,-20.81 -4.411,0 z m 5.996,-5.346 -7.581,0 0,2.086 7.581,0 0,-2.086 z m 1.679,5.257 -0.618,20.98 0.487,0 c 0.855,0 1.549,0.693 1.549,1.549 l 0,3.715 8.881,0 0,-3.715 c 0,-0.856 0.693,-1.549 1.548,-1.549 l 0.487,0 -0.617,-20.98 c -0.794,-0.066 -1.419,-0.731 -1.419,-1.541 l 0,-3.716 -8.88,0 0,3.716 c 0,0.81 -0.624,1.475 -1.418,1.541 m 20.869,24.077 c -0.159,0.052 -0.329,0.082 -0.507,0.082 l -6.353,0 c -0.176,0 -0.345,-0.029 -0.505,-0.082 l -0.109,0 0,2.167 7.582,0 0,-2.167 -0.108,0 z m -5.888,-23.988 0.611,20.81 3.188,0 0.612,-20.81 -4.411,0 z m 5.996,-5.346 -7.581,0 0,2.086 7.581,0 0,-2.086 z m 1.678,5.258 -0.154,5.26 -0.462,15.719 0.486,0 c 0.856,0 1.549,0.693 1.549,1.549 l 0,3.715 8.881,0 0,-3.715 c 0,-0.856 0.693,-1.549 1.549,-1.549 l 0.486,0 -0.617,-20.98 c -0.794,-0.067 -1.418,-0.731 -1.418,-1.541 l 0,-3.716 -8.882,0 0,3.716 c 0.001,0.811 -0.623,1.475 -1.418,1.542 m 20.87,24.076 c -0.16,0.052 -0.33,0.082 -0.507,0.082 l -6.352,0 c -0.177,0 -0.347,-0.029 -0.506,-0.082 l -0.109,0 0,2.167 7.581,0 0,-2.167 -0.107,0 z m -5.888,-23.988 0.612,20.81 3.187,0 0.463,-15.733 0.149,-5.077 -4.411,0 z m 5.995,-5.346 -7.581,0 0,2.086 7.581,0 0,-2.086 z m -57.92,38.172 62.95,0 0,-3.411 -62.95,0 0,3.411 z m 31.474,20.204 30.123,-16.945 -60.246,0 30.123,16.945 z M 1.63,6.671 l -1.61,0 0,5.04 c 0,0.9 -0.731,1.63 -1.63,1.63 l -3.563,0 0,3.716 c 0,0.81 -0.624,1.475 -1.418,1.541 l -0.616,20.98 0.486,0 c 0.856,0 1.548,0.693 1.548,1.549 l 0,3.715 3.563,0 c 0.899,0 1.63,0.73 1.63,1.63 l 0,5.041 1.61,0 c 0.74,0 1.389,0.5 1.576,1.216 0.188,0.717 -0.132,1.47 -0.777,1.834 l -36.346,20.445 c -0.495,0.278 -1.102,0.278 -1.598,0 L -71.859,54.563 c -0.647,-0.363 -0.966,-1.117 -0.779,-1.834 0.189,-0.716 0.836,-1.216 1.577,-1.216 l 1.611,0 0,-5.041 c 0,-0.9 0.729,-1.629 1.629,-1.629 l 3.562,0 0,-3.716 c 0,-0.856 0.694,-1.549 1.549,-1.549 l 0.486,0 -0.617,-20.979 c -0.794,-0.067 -1.418,-0.731 -1.418,-1.542 l 0,-3.716 -3.562,0 c -0.9,0 -1.629,-0.73 -1.629,-1.629 l 0,-5.041 -1.611,0 c -0.9,0 -1.629,-0.731 -1.629,-1.63 l 0,-6.671 c 0,-0.899 0.729,-1.629 1.629,-1.629 l 72.691,0 c 0.899,0 1.629,0.73 1.629,1.629 l 0,6.671 C 3.26,5.94 2.529,6.671 1.63,6.671"
               style="fill:#aca29a;fill-opacity:1;fill-rule:nonzero;stroke:none"
               id="path124"
               inkscape:connector-curvature="0" /></g></g></g></g></g></svg>