<?xml version="1.0" encoding="UTF-8" standalone="no"?>
<!-- Generator: Adobe Illustrator 22.0.1, SVG Export Plug-In . SVG Version: 6.00 Build 0)  -->

<svg
   xmlns:dc="http://purl.org/dc/elements/1.1/"
   xmlns:cc="http://creativecommons.org/ns#"
   xmlns:rdf="http://www.w3.org/1999/02/22-rdf-syntax-ns#"
   xmlns:svg="http://www.w3.org/2000/svg"
   xmlns="http://www.w3.org/2000/svg"
   xmlns:sodipodi="http://sodipodi.sourceforge.net/DTD/sodipodi-0.dtd"
   xmlns:inkscape="http://www.inkscape.org/namespaces/inkscape"
   version="1.1"
   id="Layer_1"
   x="0px"
   y="0px"
   viewBox="0 0 65.774333 50.500001"
   xml:space="preserve"
   inkscape:version="0.91 r13725"
   sodipodi:docname="work.svg"
   width="65.77433"
   height="50.5"><metadata
     id="metadata126"><rdf:RDF><cc:Work
         rdf:about=""><dc:format>image/svg+xml</dc:format><dc:type
           rdf:resource="http://purl.org/dc/dcmitype/StillImage" /><dc:title></dc:title></cc:Work></rdf:RDF></metadata><defs
     id="defs124" /><sodipodi:namedview
     pagecolor="#ffffff"
     bordercolor="#666666"
     borderopacity="1"
     objecttolerance="10"
     gridtolerance="10"
     guidetolerance="10"
     inkscape:pageopacity="0"
     inkscape:pageshadow="2"
     inkscape:window-width="737"
     inkscape:window-height="480"
     id="namedview122"
     showgrid="false"
     fit-margin-top="0"
     fit-margin-left="0"
     fit-margin-right="0"
     fit-margin-bottom="0"
     inkscape:zoom="3.570348"
     inkscape:cx="32.874325"
     inkscape:cy="25.750001"
     inkscape:window-x="0"
     inkscape:window-y="0"
     inkscape:window-maximized="0"
     inkscape:current-layer="Layer_1" /><style
     type="text/css"
     id="style3">
	.st0{fill:#000333;}
	.st1{fill:none;stroke:#FFFFFF;stroke-width:2;stroke-linecap:round;stroke-miterlimit:10;}
	.st2{fill:none;stroke:#FFFFFF;stroke-width:2;stroke-linecap:round;stroke-miterlimit:10;stroke-dasharray:5.037331e-02,4.0299;}
	.st3{fill:#EB0A26;}
	.st4{fill:#DDD9D4;}
	.st5{fill:#FFFFFF;}
	.st6{opacity:0.5;}
	.st7{clip-path:url(#SVGID_2_);}
	.st8{fill:#ACA29A;}
	.st9{fill:#3497B6;}
	.st10{fill:#ACA29A;stroke:#ACA29A;stroke-width:0.5;stroke-miterlimit:10;}
	.st11{clip-path:url(#SVGID_4_);}
	.st12{fill:#BAB0A8;}
	.st13{fill:none;stroke:#FFFFFF;stroke-miterlimit:10;}
	.st14{filter:url(#Adobe_OpacityMaskFilter);}
	.st15{mask:url(#SVGID_5_);}
	.st16{fill:#B5D2FF;}
	.st17{fill:#EB0A26;stroke:#FFFFFF;stroke-width:3;stroke-miterlimit:10;}
	.st18{opacity:0.7;}
	.st19{fill:#FFFFFF;stroke:#FFFFFF;stroke-width:0.5;stroke-miterlimit:10;}
	.st20{clip-path:url(#SVGID_7_);}
	.st21{clip-path:url(#SVGID_9_);}
	.st22{clip-path:url(#SVGID_11_);}
	.st23{fill:none;stroke:#FFFFFF;}
	.st24{fill:#EB0A26;stroke:#FFFFFF;}
</style><g
     id="g5"
     transform="translate(-2.2256734,-8.3)"><g
       id="svg_2_3_"><g
         id="svg_3_3_"><path
           class="st3"
           d="m 46.9,51.5 c 0,0 -5.5,3 -13.9,5.9 C 27.9,59.2 18.9,56.2 14.2,54.9 9.5,53.6 1.3,51.1 3.6,48.8 c 2.3,-2.3 8.8,-7.1 8.8,-7.1 0,0 -6.3,10.3 34.5,9.8 z"
           id="path9"
           inkscape:connector-curvature="0"
           style="fill:#eb0a26" /><g
           id="g11"><path
             class="st5"
             d="m 46.5,50.8 c -2.6,1.4 -5.3,2.6 -8,3.7 -1.4,0.6 -2.7,1.1 -4.1,1.6 -1.1,0.4 -2.3,0.9 -3.5,1 -2.3,0.3 -4.7,0 -6.9,-0.4 -4.3,-0.8 -8.5,-2 -12.7,-3.3 C 9.3,52.8 7.2,52.1 5.4,51.1 5,50.7 4.2,50.3 4,49.8 3.9,49.5 4.4,49.2 4.7,48.9 c 2.5,-2.3 5.3,-4.4 8,-6.4 -0.4,-0.4 -0.7,-0.7 -1.1,-1.1 -0.8,1.3 -0.5,3 0.3,4.2 1,1.5 2.6,2.4 4.2,3.2 3.1,1.4 6.5,2.1 9.8,2.5 6.9,1 14,1.1 21,1.1 1,0 1,-1.6 0,-1.6 -6.2,0.1 -12.4,0 -18.6,-0.8 -3.5,-0.4 -7.1,-1 -10.4,-2.2 -1.7,-0.6 -3.2,-1.4 -4.4,-2.7 -0.2,-0.2 0,0 -0.2,-0.2 -0.1,-0.1 -0.1,-0.2 -0.2,-0.3 -0.1,-0.1 -0.1,-0.2 -0.2,-0.3 0.1,0.1 0,0 -0.1,-0.2 0,-0.1 -0.1,-0.2 -0.1,-0.3 0,-0.1 -0.1,-0.4 0,-0.2 0,0.1 0,-0.3 0,-0.4 0,-0.1 0,-0.2 0,-0.3 0,0.3 0,0 0,-0.1 0,-0.1 0.1,-0.3 0.1,-0.4 0.1,-0.3 -0.1,0.2 0,-0.1 0,0 0,-0.1 0,-0.1 0.4,-0.6 -0.4,-1.6 -1.1,-1.1 -2.7,2 -5.3,4 -7.8,6.2 -1.1,0.9 -2.3,2 -1.3,3.5 1,1.5 3.1,2.3 4.7,2.9 2.1,0.8 4.4,1.5 6.6,2.1 2.3,0.6 4.5,1.3 6.8,1.8 2.5,0.6 5,1.1 7.6,1.2 1.2,0 2.4,0 3.5,-0.2 1.4,-0.3 2.7,-0.8 4,-1.3 3.9,-1.5 7.8,-3 11.4,-5 1,-0.6 0.2,-2 -0.7,-1.5 z"
             id="path13"
             inkscape:connector-curvature="0"
             style="fill:#ffffff" /></g></g><g
         id="svg_4_3_"><g
           id="svg_5_3_"><path
             class="st3"
             d="m 9.3,44.1 c 0,4.3 12.9,7.8 28.8,7.8 15.9,0 28.8,-3.5 28.8,-7.8 -3.3,-2.4 -2.8,-4.4 -2.8,-4.4 l -52.1,0 c 0,0 0.4,2 -2.7,4.4 z"
             id="path17"
             inkscape:connector-curvature="0"
             style="fill:#eb0a26" /><g
             id="g19"><path
               class="st5"
               d="m 8.5,44.1 c 0.1,3.2 4.3,4.7 6.7,5.6 5.3,1.8 11,2.5 16.6,2.8 6.8,0.4 13.6,0.2 20.3,-0.8 2.6,-0.4 5.2,-0.9 7.8,-1.7 1.8,-0.6 3.7,-1.3 5.4,-2.3 1.2,-0.8 2.4,-1.9 2.5,-3.4 0,-0.8 -0.7,-1.1 -1.2,-1.6 -0.5,-0.5 -1,-1 -1.3,-1.6 -0.1,-0.3 -0.3,-0.6 -0.3,-0.9 0,-0.2 0,-0.4 0,-0.3 0.1,-0.5 -0.2,-1 -0.8,-1 -5.9,0 -11.8,0 -17.6,0 -9.3,0 -18.7,0 -28,0 -2.1,0 -4.3,0 -6.4,0 -0.5,0 -0.9,0.5 -0.8,1 -0.1,-0.3 0,0 0,0.2 0,0.2 -0.1,0.5 -0.2,0.7 -0.4,1.2 -1.4,2 -2.3,2.8 -0.8,0.6 0.3,1.8 1.1,1.1 1.4,-1.1 3.4,-3.2 2.9,-5.2 -0.3,0.3 -0.5,0.7 -0.8,1 5.9,0 11.8,0 17.6,0 9.3,0 18.7,0 28,0 2.1,0 4.3,0 6.4,0 -0.3,-0.3 -0.5,-0.7 -0.8,-1 -0.5,2.2 1.7,4.2 3.2,5.3 -0.1,-0.2 -0.3,-0.5 -0.4,-0.7 0,2.1 -3.6,3.4 -5.3,3.9 -4.2,1.5 -8.7,2.2 -13.2,2.6 -5.7,0.5 -11.4,0.6 -17.1,0.2 -4.7,-0.3 -9.4,-1 -13.9,-2.4 -1.7,-0.5 -3.3,-1.1 -4.8,-2.1 -0.8,-0.5 -1.7,-1.4 -1.7,-2.3 0,-0.9 -1.6,-0.9 -1.6,0.1 z"
               id="path21"
               inkscape:connector-curvature="0"
               style="fill:#ffffff" /></g></g></g><g
         id="svg_6_3_"><g
           id="svg_7_3_"><g
             id="svg_8_3_"><path
               class="st3"
               d="M 60.9,24.2 C 60.3,22.7 57.8,17.7 52.7,14.1 43.5,7.6 32.1,8.9 25.4,12.7 c -4.5,2.6 -7.7,6 -10.1,11 -0.6,1.2 -1.7,3.8 -2.5,7.5 -0.7,3.2 -0.7,5.3 -0.8,8.6 0,2.8 5.4,5.4 14.6,6.6 12.9,1.7 28.5,0.2 34.9,-3.4 1.8,-1 2.7,-2.1 2.7,-3.2 -0.3,-4.1 -0.5,-9.1 -3.3,-15.6 z"
               id="path26"
               inkscape:connector-curvature="0"
               style="fill:#eb0a26" /><g
               id="g28"><path
                 class="st5"
                 d="m 61.6,23.8 c -4,-9.2 -13.3,-15 -23.2,-15.1 -4.7,-0.1 -9.6,1 -13.6,3.5 -4.5,2.7 -8,6.7 -10.3,11.4 -2.3,4.8 -3.1,10 -3.3,15.2 -0.1,1.7 0.2,2.9 1.5,4 1.4,1.3 3.3,2 5,2.6 5.4,1.8 11.3,2.4 17,2.6 5.7,0.2 11.4,-0.1 17,-1 2.2,-0.4 4.5,-0.9 6.6,-1.6 1.9,-0.7 4.2,-1.5 5.5,-3.1 1.5,-1.7 0.9,-4.2 0.8,-6.2 -0.2,-2.6 -0.6,-5.2 -1.4,-7.7 -0.4,-1.6 -1,-3.1 -1.6,-4.6 -0.4,-0.9 -1.8,-0.1 -1.4,0.8 2,4.7 2.8,9.6 3,14.7 0,1.2 -0.4,1.9 -1.4,2.6 -0.8,0.5 -1.6,0.9 -2.4,1.3 -1.8,0.8 -3.7,1.3 -5.6,1.7 -4.9,1.1 -10,1.5 -15.1,1.5 C 33,46.5 27.4,46.1 22,45 c -2.2,-0.5 -4.4,-1 -6.3,-2 -1,-0.5 -2.4,-1.2 -2.9,-2.4 -0.3,-0.8 -0.1,-1.9 0,-2.8 0.1,-1.2 0.1,-2.5 0.3,-3.7 0.4,-2.7 1,-5.3 2,-7.8 1.6,-4.2 4.3,-8.1 7.8,-10.8 3.5,-2.8 7.8,-4.4 12.3,-4.9 5,-0.5 10.2,0.3 14.6,2.7 4.2,2.3 7.5,5.8 9.7,9.9 0.3,0.5 0.5,1 0.7,1.5 0.4,0.9 1.8,0.1 1.4,-0.9 z"
                 id="path30"
                 inkscape:connector-curvature="0"
                 style="fill:#ffffff" /></g></g></g><g
           id="svg_9_3_"><g
             id="svg_10_3_"><path
               class="st3"
               d="M 60.9,24.2 C 60.3,22.7 57.8,17.7 52.7,14.1 43.5,7.6 32.1,8.9 25.4,12.7 c -4.5,2.6 -7.7,6 -10.1,11 -0.6,1.2 -1.7,3.8 -2.5,7.5 -0.7,3.2 -0.7,5.3 -0.8,8.6 0,2.8 5.4,5.4 14.6,6.6 12.9,1.7 28.5,0.2 34.9,-3.4 1.8,-1 2.7,-2.1 2.7,-3.2 -0.3,-4.1 -0.5,-9.1 -3.3,-15.6 z"
               id="path34"
               inkscape:connector-curvature="0"
               style="fill:#eb0a26" /><g
               id="g36"><path
                 class="st5"
                 d="m 61.6,23.8 c -4,-9.2 -13.3,-15 -23.2,-15.1 -4.7,-0.1 -9.6,1 -13.6,3.5 -4.5,2.7 -8,6.7 -10.3,11.4 -2.3,4.8 -3.1,10 -3.3,15.2 -0.1,1.7 0.2,2.9 1.5,4 1.4,1.3 3.3,2 5,2.6 5.4,1.8 11.3,2.4 17,2.6 5.7,0.2 11.4,-0.1 17,-1 2.2,-0.4 4.5,-0.9 6.6,-1.6 1.9,-0.7 4.2,-1.5 5.5,-3.1 1.5,-1.7 0.9,-4.2 0.8,-6.2 -0.2,-2.6 -0.6,-5.2 -1.4,-7.7 -0.4,-1.6 -1,-3.1 -1.6,-4.6 -0.4,-0.9 -1.8,-0.1 -1.4,0.8 2,4.7 2.8,9.6 3,14.7 0,1.2 -0.4,1.9 -1.4,2.6 -0.8,0.5 -1.6,0.9 -2.4,1.3 -1.8,0.8 -3.7,1.3 -5.6,1.7 -4.9,1.1 -10,1.5 -15.1,1.5 C 33,46.5 27.4,46.1 22,45 c -2.2,-0.5 -4.4,-1 -6.3,-2 -1,-0.5 -2.4,-1.2 -2.9,-2.4 -0.3,-0.8 -0.1,-1.9 0,-2.8 0.1,-1.2 0.1,-2.5 0.3,-3.7 0.4,-2.7 1,-5.3 2,-7.8 1.6,-4.2 4.3,-8.1 7.8,-10.8 3.5,-2.8 7.8,-4.4 12.3,-4.9 5,-0.5 10.2,0.3 14.6,2.7 4.2,2.3 7.5,5.8 9.7,9.9 0.3,0.5 0.5,1 0.7,1.5 0.4,0.9 1.8,0.1 1.4,-0.9 z"
                 id="path38"
                 inkscape:connector-curvature="0"
                 style="fill:#ffffff" /></g></g></g></g></g><g
       id="svg_12_3_"><path
         class="st3"
         d="m 47.1,51.4 c 0,0 -5.5,3 -13.9,5.9 C 28.1,59.1 19.1,56.1 14.4,54.8 9.6,53.6 1.5,51 3.8,48.7 c 2.3,-2.3 8.8,-7.1 8.8,-7.1 0,0 -6.3,10.3 34.5,9.8 z"
         id="path41"
         inkscape:connector-curvature="0"
         style="fill:#eb0a26" /><g
         id="g43"><path
           class="st5"
           d="m 46.7,50.7 c -2.6,1.4 -5.3,2.6 -8,3.7 -1.4,0.6 -2.7,1.1 -4.1,1.6 -1.1,0.4 -2.3,0.9 -3.5,1 -2.3,0.3 -4.7,0 -6.9,-0.4 -4.3,-0.8 -8.5,-2 -12.7,-3.3 C 9.5,52.7 7.4,52 5.6,51 5.1,50.7 4.3,50.3 4.1,49.8 4,49.5 4.5,49.2 4.8,48.9 c 2.5,-2.3 5.3,-4.4 8,-6.4 -0.4,-0.4 -0.7,-0.7 -1.1,-1.1 -0.8,1.3 -0.5,3 0.3,4.2 1,1.5 2.6,2.4 4.2,3.2 3.1,1.4 6.5,2.1 9.8,2.5 6.9,1 14,1.1 21,1.1 1,0 1,-1.6 0,-1.6 -6.2,0.1 -12.4,0 -18.6,-0.8 -3.5,-0.4 -7.1,-1 -10.4,-2.2 -1.7,-0.6 -3.2,-1.4 -4.4,-2.7 -0.2,-0.2 0,0 -0.2,-0.2 -0.1,-0.1 -0.1,-0.2 -0.2,-0.3 -0.1,-0.1 -0.1,-0.2 -0.2,-0.3 0.1,0.1 0,0 -0.1,-0.2 0,-0.1 -0.1,-0.2 -0.1,-0.3 0,-0.1 -0.1,-0.4 0,-0.2 0,0.1 0,-0.3 0,-0.4 0,-0.1 0,-0.2 0,-0.3 0,0.3 0,0 0,-0.1 0,-0.1 0.1,-0.3 0.1,-0.4 0.1,-0.3 -0.1,0.2 0,-0.1 0,0 0,-0.1 0,-0.1 0.4,-0.6 -0.4,-1.6 -1.1,-1.1 -2.7,2 -5.3,4 -7.8,6.2 -1.1,0.9 -2.3,2 -1.3,3.5 1,1.5 3.1,2.3 4.7,2.9 2.1,0.8 4.4,1.5 6.6,2.1 2.3,0.6 4.5,1.3 6.8,1.8 2.5,0.6 5,1.1 7.6,1.2 1.2,0 2.4,0 3.5,-0.2 1.4,-0.3 2.7,-0.8 4,-1.3 3.9,-1.5 7.8,-3 11.4,-5 1.1,-0.7 0.3,-2.1 -0.6,-1.6 z"
           id="path45"
           inkscape:connector-curvature="0"
           style="fill:#ffffff" /></g></g><g
       id="svg_13_3_"><g
         id="svg_14_3_"><path
           class="st3"
           d="m 9.5,44 c 0,4.3 12.9,7.8 28.8,7.8 15.9,0 28.8,-3.5 28.8,-7.8 -3.3,-2.4 -2.8,-4.4 -2.8,-4.4 l -52.1,0 c 0,-0.1 0.5,1.9 -2.7,4.4 z"
           id="path49"
           inkscape:connector-curvature="0"
           style="fill:#eb0a26" /><g
           id="g51"><path
             class="st5"
             d="m 8.7,44 c 0.1,3.2 4.3,4.7 6.7,5.6 5.3,1.8 11,2.5 16.6,2.8 6.8,0.4 13.6,0.2 20.3,-0.8 2.6,-0.4 5.2,-0.9 7.8,-1.7 1.8,-0.6 3.7,-1.3 5.4,-2.3 1.2,-0.8 2.4,-1.9 2.5,-3.4 0,-0.8 -0.7,-1.1 -1.2,-1.6 -0.5,-0.5 -1,-1 -1.3,-1.6 -0.1,-0.3 -0.3,-0.6 -0.3,-0.9 0,-0.2 0,-0.4 0,-0.3 0.1,-0.5 -0.2,-1 -0.8,-1 -5.9,0 -11.8,0 -17.6,0 -9.3,0 -18.7,0 -28,0 -2.1,0 -4.3,0 -6.4,0 -0.5,0 -0.9,0.5 -0.8,1 -0.1,-0.3 0,0 0,0.2 0,0.2 -0.1,0.5 -0.2,0.7 -0.4,1.2 -1.4,2 -2.3,2.8 -0.8,0.6 0.3,1.8 1.1,1.1 1.4,-1.1 3.4,-3.2 2.9,-5.2 -0.3,0.3 -0.5,0.7 -0.8,1 5.9,0 11.8,0 17.6,0 9.3,0 18.7,0 28,0 2.1,0 4.3,0 6.4,0 -0.3,-0.3 -0.5,-0.7 -0.8,-1 -0.5,2.2 1.7,4.2 3.2,5.3 -0.1,-0.2 -0.3,-0.5 -0.4,-0.7 0,2.1 -3.6,3.4 -5.3,3.9 -4.2,1.5 -8.7,2.2 -13.2,2.6 -5.7,0.5 -11.4,0.6 -17.1,0.2 -4.7,-0.3 -9.4,-1 -13.9,-2.4 -1.7,-0.5 -3.3,-1.1 -4.8,-2.1 -0.8,-0.5 -1.7,-1.4 -1.7,-2.3 0,-1 -1.6,-1 -1.6,0.1 z"
             id="path53"
             inkscape:connector-curvature="0"
             style="fill:#ffffff" /></g></g></g><g
       id="svg_15_3_"><g
         id="svg_16_3_"><g
           id="svg_17_3_"><path
             class="st3"
             d="M 61.1,24.1 C 60.5,22.6 58,17.6 52.9,14 43.7,7.5 32.3,8.8 25.6,12.6 c -4.5,2.6 -7.7,6 -10.1,11 -0.6,1.2 -1.7,3.8 -2.5,7.5 -0.7,3.2 -0.7,5.3 -0.8,8.6 0,2.8 5.4,5.4 14.6,6.6 12.9,1.7 28.5,0.2 34.9,-3.4 1.8,-1 2.7,-2.1 2.7,-3.2 -0.3,-4.2 -0.5,-9.1 -3.3,-15.6 z"
             id="path58"
             inkscape:connector-curvature="0"
             style="fill:#eb0a26" /><g
             id="g60"><path
               class="st5"
               d="M 61.8,23.7 C 57.8,14.5 48.5,8.7 38.6,8.6 33.9,8.5 29,9.6 25,12.1 c -4.5,2.7 -8,6.6 -10.3,11.4 -2.3,4.8 -3.1,10 -3.3,15.2 -0.1,1.7 0.2,2.9 1.5,4 1.4,1.3 3.3,2 5,2.6 5.4,1.8 11.3,2.4 17,2.6 5.7,0.2 11.4,-0.1 17,-1 2.2,-0.4 4.5,-0.9 6.6,-1.6 1.9,-0.7 4.2,-1.5 5.5,-3.1 1.5,-1.7 0.9,-4.2 0.8,-6.2 -0.2,-2.6 -0.6,-5.2 -1.4,-7.7 -0.4,-1.7 -1,-3.1 -1.6,-4.6 -0.4,-0.9 -1.8,-0.1 -1.4,0.8 2,4.7 2.8,9.6 3,14.7 0,1.2 -0.4,1.9 -1.4,2.6 -0.8,0.5 -1.6,0.9 -2.4,1.3 -1.8,0.8 -3.7,1.3 -5.6,1.7 -4.9,1.1 -10,1.5 -15.1,1.5 -5.5,0 -11.1,-0.3 -16.5,-1.5 -2.2,-0.5 -4.4,-1 -6.3,-2 -1,-0.5 -2.4,-1.2 -2.9,-2.4 -0.3,-0.8 -0.1,-1.9 0,-2.8 0.1,-1.2 0.1,-2.5 0.3,-3.7 0.4,-2.7 1,-5.3 2,-7.8 1.6,-4.2 4.3,-8.1 7.8,-10.8 3.5,-2.8 7.8,-4.4 12.3,-4.9 5,-0.5 10.2,0.3 14.6,2.7 4.2,2.3 7.5,5.8 9.7,9.9 0.3,0.5 0.5,1 0.7,1.4 0.2,1 1.6,0.2 1.2,-0.7 z"
               id="path62"
               inkscape:connector-curvature="0"
               style="fill:#ffffff" /></g></g></g><g
         id="svg_18_3_"><g
           id="svg_19_3_"><path
             class="st3"
             d="M 61.1,24.1 C 60.5,22.6 58,17.6 52.9,14 43.7,7.5 32.3,8.8 25.6,12.6 c -4.5,2.6 -7.7,6 -10.1,11 -0.6,1.2 -1.7,3.8 -2.5,7.5 -0.7,3.2 -0.7,5.3 -0.8,8.6 0,2.8 5.4,5.4 14.6,6.6 12.9,1.7 28.5,0.2 34.9,-3.4 1.8,-1 2.7,-2.1 2.7,-3.2 -0.3,-4.2 -0.5,-9.1 -3.3,-15.6 z"
             id="path66"
             inkscape:connector-curvature="0"
             style="fill:#eb0a26" /><g
             id="g68"><path
               class="st5"
               d="M 61.8,23.7 C 57.8,14.5 48.5,8.7 38.6,8.6 33.9,8.5 29,9.6 25,12.1 c -4.5,2.7 -8,6.6 -10.3,11.4 -2.3,4.8 -3.1,10 -3.3,15.2 -0.1,1.7 0.2,2.9 1.5,4 1.4,1.3 3.3,2 5,2.6 5.4,1.8 11.3,2.4 17,2.6 5.7,0.2 11.4,-0.1 17,-1 2.2,-0.4 4.5,-0.9 6.6,-1.6 1.9,-0.7 4.2,-1.5 5.5,-3.1 1.5,-1.7 0.9,-4.2 0.8,-6.2 -0.2,-2.6 -0.6,-5.2 -1.4,-7.7 -0.4,-1.7 -1,-3.1 -1.6,-4.6 -0.4,-0.9 -1.8,-0.1 -1.4,0.8 2,4.7 2.8,9.6 3,14.7 0,1.2 -0.4,1.9 -1.4,2.6 -0.8,0.5 -1.6,0.9 -2.4,1.3 -1.8,0.8 -3.7,1.3 -5.6,1.7 -4.9,1.1 -10,1.5 -15.1,1.5 -5.5,0 -11.1,-0.3 -16.5,-1.5 -2.2,-0.5 -4.4,-1 -6.3,-2 -1,-0.5 -2.4,-1.2 -2.9,-2.4 -0.3,-0.8 -0.1,-1.9 0,-2.8 0.1,-1.2 0.1,-2.5 0.3,-3.7 0.4,-2.7 1,-5.3 2,-7.8 1.6,-4.2 4.3,-8.1 7.8,-10.8 3.5,-2.8 7.8,-4.4 12.3,-4.9 5,-0.5 10.2,0.3 14.6,2.7 4.2,2.3 7.5,5.8 9.7,9.9 0.3,0.5 0.5,1 0.7,1.4 0.2,1 1.6,0.2 1.2,-0.7 z"
               id="path70"
               inkscape:connector-curvature="0"
               style="fill:#ffffff" /></g></g></g></g><g
       id="svg_20_3_"><g
         id="svg_21_3_"><g
           id="svg_22_3_"><path
             class="st3"
             d="M 61.1,24.1 C 60.5,22.6 58,17.6 52.9,14 43.7,7.5 32.3,8.8 25.6,12.6 c -4.5,2.6 -7.7,6 -10.1,11 -0.6,1.2 -1.7,3.8 -2.5,7.5 -0.7,3.2 -0.7,5.3 -0.8,8.6 0,2.8 5.4,5.4 14.6,6.6 12.9,1.7 28.5,0.2 34.9,-3.4 1.8,-1 2.7,-2.1 2.7,-3.2 -0.3,-4.2 -0.5,-9.1 -3.3,-15.6 z"
             id="path75"
             inkscape:connector-curvature="0"
             style="fill:#eb0a26" /><g
             id="g77"><path
               class="st5"
               d="M 61.8,23.7 C 57.8,14.5 48.5,8.7 38.6,8.6 33.9,8.5 29,9.6 25,12.1 c -4.5,2.7 -8,6.6 -10.3,11.4 -2.3,4.8 -3.1,10 -3.3,15.2 -0.1,1.7 0.2,2.9 1.5,4 1.4,1.3 3.3,2 5,2.6 5.4,1.8 11.3,2.4 17,2.6 5.7,0.2 11.4,-0.1 17,-1 2.2,-0.4 4.5,-0.9 6.6,-1.6 1.9,-0.7 4.2,-1.5 5.5,-3.1 1.5,-1.7 0.9,-4.2 0.8,-6.2 -0.2,-2.6 -0.6,-5.2 -1.4,-7.7 -0.4,-1.7 -1,-3.1 -1.6,-4.6 -0.4,-0.9 -1.8,-0.1 -1.4,0.8 2,4.7 2.8,9.6 3,14.7 0,1.2 -0.4,1.9 -1.4,2.6 -0.8,0.5 -1.6,0.9 -2.4,1.3 -1.8,0.8 -3.7,1.3 -5.6,1.7 -4.9,1.1 -10,1.5 -15.1,1.5 -5.5,0 -11.1,-0.3 -16.5,-1.5 -2.2,-0.5 -4.4,-1 -6.3,-2 -1,-0.5 -2.4,-1.2 -2.9,-2.4 -0.3,-0.8 -0.1,-1.9 0,-2.8 0.1,-1.2 0.1,-2.5 0.3,-3.7 0.4,-2.7 1,-5.3 2,-7.8 1.6,-4.2 4.3,-8.1 7.8,-10.8 3.5,-2.8 7.8,-4.4 12.3,-4.9 5,-0.5 10.2,0.3 14.6,2.7 4.2,2.3 7.5,5.8 9.7,9.9 0.3,0.5 0.5,1 0.7,1.4 0.2,1 1.6,0.2 1.2,-0.7 z"
               id="path79"
               inkscape:connector-curvature="0"
               style="fill:#ffffff" /></g></g></g></g><g
       id="svg_23_3_"><g
         id="svg_24_3_"><g
           id="svg_25_3_"><g
             id="svg_26_3_"><path
               class="st3"
               d="M 51.7,13 C 32.4,0.7 12.7,26 13.3,42.3 L 11.5,43 c 0,-17.7 19.2,-43.9 40.2,-30"
               id="path85"
               inkscape:connector-curvature="0"
               style="fill:#eb0a26" /><g
               id="g87"><path
                 class="st5"
                 d="M 52.1,12.3 C 48.6,10.1 44.7,8.8 40.6,8.9 36.8,9 33.1,10.3 29.9,12.2 23.1,16.3 18,23 15,30.3 c -1.5,3.8 -2.6,7.9 -2.4,11.9 0.2,-0.3 0.4,-0.5 0.6,-0.8 -0.6,0.2 -1.2,0.5 -1.8,0.7 0.3,0.3 0.7,0.5 1,0.8 0,-7.5 3.1,-15 7.5,-21.1 4.3,-6 10.8,-11.4 18.4,-12 4.7,-0.4 9.2,1.2 13.1,3.7 0.7,0.8 1.5,-0.6 0.7,-1.2 -3.7,-2.4 -7.8,-4 -12.2,-4 -3.9,0 -7.7,1.1 -11.1,3.1 -7.1,4.1 -12.3,11.3 -15.3,18.9 -1.6,4 -2.7,8.4 -2.7,12.7 0,0.5 0.5,1 1,0.8 0.6,-0.2 1.2,-0.5 1.8,-0.7 0.3,-0.1 0.6,-0.4 0.6,-0.8 -0.2,-7.1 2.9,-14.2 7,-19.8 4.2,-5.8 10.5,-11 17.9,-11.8 4.4,-0.5 8.6,0.7 12.3,3.1 0.7,0.4 1.5,-0.9 0.7,-1.5 l 0,0 z"
                 id="path89"
                 inkscape:connector-curvature="0"
                 style="fill:#ffffff" /></g></g></g><g
           id="svg_27_3_"><polygon
             class="st3"
             points="13.3,42.3 10.5,45.7 11.5,43 "
             id="polygon92"
             style="fill:#eb0a26" /><g
             id="g94"><path
               class="st5"
               d="m 12.8,41.7 c -0.9,1.1 -1.9,2.3 -2.8,3.4 0.4,0.3 0.9,0.5 1.3,0.8 0.3,-0.9 0.7,-1.8 1,-2.7 -0.2,0.2 -0.4,0.4 -0.6,0.6 0.6,-0.2 1.2,-0.5 1.8,-0.7 0.9,-0.4 0.5,-1.9 -0.4,-1.5 -0.7,0.3 -2.1,0.5 -2.4,1.3 -0.3,0.9 -0.6,1.7 -1,2.6 -0.3,0.7 0.8,1.4 1.3,0.8 0.9,-1.1 1.9,-2.3 2.8,-3.4 0.7,-0.9 -0.4,-2 -1,-1.2 z"
               id="path96"
               inkscape:connector-curvature="0"
               style="fill:#ffffff" /></g></g></g><g
         id="svg_28_3_"><path
           class="st3"
           d="m 19,45.5 0,0 C 19,29.5 28.6,4.5 45.9,10.1 27.4,3.9 11.5,26.9 11.5,43 l -1,2.7 7.5,2.5 1,-2.7 0,0 z"
           id="path99"
           inkscape:connector-curvature="0"
           style="fill:#eb0a26" /><g
           id="g101"><path
             class="st5"
             d="m 19.8,45.5 c 0,-6.8 1.5,-13.7 4.1,-20 2.4,-5.7 6.1,-11.8 11.9,-14.3 3.2,-1.4 6.6,-1.3 9.9,-0.3 1,0.3 1.4,-1.2 0.4,-1.5 C 42.4,8.1 38.3,8 34.5,9 c -3.7,1 -7.1,3 -10.1,5.5 -6.2,5.3 -10.6,12.8 -12.6,20.6 -0.5,2.1 -0.9,4.2 -1,6.3 0,0.8 0,1.3 -0.3,2 -0.2,0.7 -0.5,1.3 -0.7,2 -0.2,0.4 0.2,0.9 0.6,1 2.5,0.8 5,1.7 7.5,2.5 0.4,0.1 0.8,-0.2 1,-0.6 0.3,-0.9 0.7,-1.8 1,-2.7 0.4,-1 -1.2,-1.4 -1.5,-0.4 -0.3,0.9 -0.7,1.8 -1,2.7 0.3,-0.2 0.7,-0.4 1,-0.6 -2.5,-0.8 -5,-1.7 -7.5,-2.5 0.2,0.3 0.4,0.7 0.6,1 0.4,-1 1,-2 1,-3.1 0.1,-1.8 0.2,-3.5 0.6,-5.3 0.8,-3.8 2.1,-7.4 3.9,-10.8 3.4,-6.6 9,-13 16.3,-15.6 4.1,-1.4 8.4,-1.4 12.5,-0.1 0.1,-0.5 0.3,-1 0.4,-1.5 -3.1,-1 -6.4,-1.2 -9.5,-0.2 -3,1 -5.6,2.9 -7.7,5.2 -4.8,5.3 -7.6,12.4 -9.2,19.3 -0.9,3.9 -1.4,7.9 -1.4,11.8 -0.2,1.1 1.4,1.1 1.4,0 z"
             id="path103"
             inkscape:connector-curvature="0"
             style="fill:#ffffff" /></g></g><g
         id="svg_29_3_"><g
           id="svg_30_3_"><g
             id="svg_31_3_"><path
               class="st3"
               d="m 19,45.5 0,0 0,0 -1,2.7 4.4,-3.1 C 21.9,28.8 32.3,0.7 51.7,13 30.7,-0.9 19,27.8 19,45.5 Z"
               id="path108"
               inkscape:connector-curvature="0"
               style="fill:#eb0a26" /><g
               id="g110"><path
                 class="st5"
                 d="m 18.3,45.3 c -0.3,0.9 -0.7,1.8 -1,2.7 -0.2,0.6 0.6,1.3 1.2,0.9 1.2,-0.8 2.3,-1.6 3.5,-2.4 0.4,-0.3 1.1,-0.6 1.2,-1 0.2,-0.4 0,-0.9 0,-1.3 0,-0.5 0,-1 0,-1.5 0.1,-4.2 0.8,-8.4 2,-12.4 1.2,-4.1 2.8,-8.1 5.2,-11.7 2,-3 4.7,-5.7 8.1,-7 4.4,-1.6 8.9,-0.2 12.8,2.2 0.9,0.6 1.7,-0.8 0.8,-1.4 -3.4,-2.2 -7.4,-3.9 -11.5,-3.8 -3.5,0.1 -6.6,1.5 -9.3,3.7 -6,4.9 -9.4,12.9 -11.2,20.2 -1.1,4.3 -1.7,8.7 -1.7,13.1 0,1 1.6,1 1.6,0 0,-7.5 1.8,-15.2 5,-22 2.8,-5.9 7.4,-12.3 14.4,-13.3 4.3,-0.6 8.5,1.1 12.1,3.4 0.3,-0.5 0.5,-0.9 0.8,-1.4 -3.2,-2 -6.8,-3.4 -10.6,-3.1 -3.3,0.3 -6.2,1.8 -8.6,4 -5.5,5 -8.4,12.6 -10,19.6 -0.9,4 -1.4,8.2 -1.2,12.3 0.1,-0.2 0.3,-0.5 0.4,-0.7 -1.5,1 -2.9,2.1 -4.4,3.1 0.4,0.3 0.8,0.6 1.2,0.9 0.3,-0.9 0.7,-1.8 1,-2.7 0.1,-0.9 -1.5,-1.3 -1.8,-0.4 z"
                 id="path112"
                 inkscape:connector-curvature="0"
                 style="fill:#ffffff" /></g></g></g><g
           id="svg_32_3_"><g
             id="svg_33_3_"><path
               class="st3"
               d="m 19,45.5 0,0 0,0 -1,2.7 4.4,-3.1 C 21.9,28.8 32.3,0.7 51.7,13 30.7,-0.9 19,27.8 19,45.5 Z"
               id="path116"
               inkscape:connector-curvature="0"
               style="fill:#eb0a26" /><g
               id="g118"><path
                 class="st5"
                 d="m 18.3,45.3 c -0.3,0.9 -0.7,1.8 -1,2.7 -0.2,0.6 0.6,1.3 1.2,0.9 1.2,-0.8 2.3,-1.6 3.5,-2.4 0.4,-0.3 1.1,-0.6 1.2,-1 0.2,-0.4 0,-0.9 0,-1.3 0,-0.5 0,-1 0,-1.5 0.1,-4.2 0.8,-8.4 2,-12.4 1.2,-4.1 2.8,-8.1 5.2,-11.7 2,-3 4.7,-5.7 8.1,-7 4.4,-1.6 8.9,-0.2 12.8,2.2 0.9,0.6 1.7,-0.8 0.8,-1.4 -3.4,-2.2 -7.4,-3.9 -11.5,-3.8 -3.5,0.1 -6.6,1.5 -9.3,3.7 -6,4.9 -9.4,12.9 -11.2,20.2 -1.1,4.3 -1.7,8.7 -1.7,13.1 0,1 1.6,1 1.6,0 0,-7.5 1.8,-15.2 5,-22 2.8,-5.9 7.4,-12.3 14.4,-13.3 4.3,-0.6 8.5,1.1 12.1,3.4 0.3,-0.5 0.5,-0.9 0.8,-1.4 -3.2,-2 -6.8,-3.4 -10.6,-3.1 -3.3,0.3 -6.2,1.8 -8.6,4 -5.5,5 -8.4,12.6 -10,19.6 -0.9,4 -1.4,8.2 -1.2,12.3 0.1,-0.2 0.3,-0.5 0.4,-0.7 -1.5,1 -2.9,2.1 -4.4,3.1 0.4,0.3 0.8,0.6 1.2,0.9 0.3,-0.9 0.7,-1.8 1,-2.7 0.1,-0.9 -1.5,-1.3 -1.8,-0.4 z"
                 id="path120"
                 inkscape:connector-curvature="0"
                 style="fill:#ffffff" /></g></g></g></g></g></g></svg>